<svg width="326" height="327" viewBox="0 0 326 327" fill="none" xmlns="http://www.w3.org/2000/svg">
<path d="M163 325.639C252.746 325.639 325.5 252.886 325.5 163.139C325.5 73.3932 252.746 0.639648 163 0.639648C73.2537 0.639648 0.5 73.3932 0.5 163.139C0.5 252.886 73.2537 325.639 163 325.639Z" stroke="white" stroke-miterlimit="22.9256"/>
<path d="M163 325.639C252.746 325.639 325.5 252.886 325.5 163.139C325.5 73.3932 252.746 0.639648 163 0.639648C73.2537 0.639648 0.5 73.3932 0.5 163.139C0.5 252.886 73.2537 325.639 163 325.639Z" stroke="white" stroke-miterlimit="22.9256"/>
<path fill-rule="evenodd" clip-rule="evenodd" d="M212.164 104.244C208.582 106.628 207.278 113.188 198.845 110.316C192.421 108.127 191.489 102.089 194.519 95.1204C186.868 95.5491 181.424 97.8056 178.592 102.029C182.99 82.6833 228.944 76.7794 237.556 108.864L240.462 113.369C244.011 99.1919 227.978 83.1544 215.548 80.3437C188.327 74.1881 165.85 97.2351 174.706 127.237C178.234 139.191 177.697 132.63 178.752 132.384C181.504 131.742 177.374 130.341 182.723 133.519C185.726 135.304 184.324 135.416 188.513 136.371C208.032 140.817 220.826 123.281 212.164 104.244Z" fill="black"/>
<path fill-rule="evenodd" clip-rule="evenodd" d="M83.7566 135.701C80.8702 136.001 78.3132 136.149 75.5093 136.865C71.576 137.869 71.5697 138.855 70.0663 138.426C72.1225 138.188 75.2959 136.775 78.6263 137.565C83.5568 138.735 80.2473 137.246 82.956 139.911C76.1505 141.239 73.596 143.189 66.4746 140.297L72.468 144.098L78.198 145.888L74.3642 150.448C86.6701 148.258 95.673 141.759 110.603 143.144C122.052 144.206 133.595 150.323 143.416 153.749C140.462 148.013 133.887 142.52 127.561 140.535C128.974 139.893 126.936 140.403 129.999 140C131.144 139.85 129.895 140.565 132.581 139.861C109.339 127.725 96.7784 139.249 79.9766 132.982C80.6005 132.578 82.1881 134.23 83.7566 135.701Z" fill="black"/>
<path fill-rule="evenodd" clip-rule="evenodd" d="M57.1895 106.923C69.8213 108.59 95.611 105.403 105.495 102.231C120.97 97.2643 133.518 91.3316 124.537 71.8623C119.102 74.6429 117.733 85.0981 96.151 95.5828C82.7827 102.077 72.5884 103.851 57.1895 106.923Z" fill="black"/>
<path fill-rule="evenodd" clip-rule="evenodd" d="M163.615 71.646C169.461 65.8402 179.116 56.3175 192.912 56.6722C207.639 57.0501 215.958 65.8242 226.905 70.2709C224.777 65.295 227.108 69.8842 225.191 67.0916L219.832 61.2277C215.103 55.6805 201.09 43.9944 193.877 43.1658C178.778 41.4319 167.094 59.1843 163.615 71.646Z" fill="black"/>
<path fill-rule="evenodd" clip-rule="evenodd" d="M204.592 152.498C212.934 147.105 218.084 142.964 224.065 136.327C233.043 126.363 232.775 127.633 244.004 121.859C233.012 121.848 218.748 132.706 212.852 141.088C211.024 143.687 211.225 143.082 208.934 145.711L204.592 152.498Z" fill="black"/>
<path fill-rule="evenodd" clip-rule="evenodd" d="M212.164 104.244C208.582 106.628 207.278 113.188 198.845 110.316C192.421 108.127 191.489 102.089 194.519 95.1204C186.868 95.5491 181.424 97.8056 178.592 102.029C182.99 82.6833 228.944 76.7794 237.556 108.864L240.462 113.369C244.011 99.1919 227.978 83.1544 215.548 80.3437C188.327 74.1881 165.85 97.2351 174.706 127.237C178.234 139.191 177.697 132.63 178.752 132.384C181.504 131.742 177.374 130.341 182.723 133.519C185.726 135.304 184.324 135.416 188.513 136.371C208.032 140.817 220.826 123.281 212.164 104.244Z" fill="black"/>
<path fill-rule="evenodd" clip-rule="evenodd" d="M83.7566 135.701C80.8702 136.001 78.3132 136.149 75.5093 136.865C71.576 137.869 71.5697 138.855 70.0663 138.426C72.1225 138.188 75.2959 136.775 78.6263 137.565C83.5568 138.735 80.2473 137.246 82.956 139.911C76.1505 141.239 73.596 143.189 66.4746 140.297L72.468 144.098L78.198 145.888L74.3642 150.448C86.6701 148.258 95.673 141.759 110.603 143.144C122.052 144.206 133.595 150.323 143.416 153.749C140.462 148.013 133.887 142.52 127.561 140.535C128.974 139.893 126.936 140.403 129.999 140C131.144 139.85 129.895 140.565 132.581 139.861C109.339 127.725 96.7784 139.249 79.9766 132.982C80.6005 132.578 82.1881 134.23 83.7566 135.701Z" fill="black"/>
<path fill-rule="evenodd" clip-rule="evenodd" d="M57.1895 106.923C69.8213 108.59 95.611 105.403 105.495 102.231C120.97 97.2643 133.518 91.3316 124.537 71.8623C119.102 74.6429 117.733 85.0981 96.151 95.5828C82.7827 102.077 72.5884 103.851 57.1895 106.923Z" fill="black"/>
<path fill-rule="evenodd" clip-rule="evenodd" d="M163.615 71.646C169.461 65.8402 179.116 56.3175 192.912 56.6722C207.639 57.0501 215.958 65.8242 226.905 70.2709C224.777 65.295 227.108 69.8842 225.191 67.0916L219.832 61.2277C215.103 55.6805 201.09 43.9944 193.877 43.1658C178.778 41.4319 167.094 59.1843 163.615 71.646Z" fill="black"/>
<path fill-rule="evenodd" clip-rule="evenodd" d="M204.592 152.498C212.934 147.105 218.084 142.964 224.065 136.327C233.043 126.363 232.775 127.633 244.004 121.859C233.012 121.848 218.748 132.706 212.852 141.088C211.024 143.687 211.225 143.082 208.934 145.711L204.592 152.498Z" fill="black"/>
</svg>
