<svg width="325" height="325" viewBox="0 0 325 325" fill="none" xmlns="http://www.w3.org/2000/svg">
<path d="M162.5 324.5C251.97 324.5 324.5 251.97 324.5 162.5C324.5 73.0298 251.97 0.5 162.5 0.5C73.0299 0.5 0.5 73.0298 0.5 162.5C0.5 251.97 73.0299 324.5 162.5 324.5Z" stroke="white" stroke-miterlimit="22.9256"/>
<path d="M162.5 324.5C251.97 324.5 324.5 251.97 324.5 162.5C324.5 73.0298 251.97 0.5 162.5 0.5C73.0299 0.5 0.5 73.0298 0.5 162.5C0.5 251.97 73.0299 324.5 162.5 324.5Z" stroke="white" stroke-miterlimit="22.9256"/>
<path fill-rule="evenodd" clip-rule="evenodd" d="M203.85 148.055C201.438 142.867 204.155 143.078 204.17 143.056C209.182 140.892 209.601 146.255 208.284 150.876C205.586 150.783 205.034 150.6 203.85 148.055ZM173.894 157.392C179.038 142.904 174.642 141.782 184.733 127.311C188.347 122.129 200.862 114.407 210.409 113.305C235.674 110.388 249.148 131.203 245.227 155.584L212.725 158.095C222.668 121.255 172.378 134.4 186.209 157.564C192.536 168.158 201.207 161.497 214.798 159.779C226.419 158.311 239.533 157.412 250.956 156.999C245.311 155.821 248.65 157.145 245.935 154.33C252.705 146.175 248.427 125.027 242.588 117.565C235.983 109.123 226.333 102.32 211.237 104.616C186.917 108.316 171.229 128.902 173.894 157.392Z" fill="black"/>
<path fill-rule="evenodd" clip-rule="evenodd" d="M76.1372 155.115C61.555 101.434 103.795 93.0142 127.312 116.763C136.865 126.409 134.731 136.77 139.776 145.712C142.018 112.697 117.435 91.2164 94.0598 95.2929C66.0708 100.175 60.1975 132.253 76.1372 155.115Z" fill="black"/>
<path fill-rule="evenodd" clip-rule="evenodd" d="M120.456 138.895C122.968 139.567 123.686 143.446 125.125 146.266L116.66 145.067C116.292 142.251 116.102 137.73 120.456 138.895ZM118.432 132.322C101.68 129.469 94.0353 150.453 105.093 157.99C94.6884 159.85 79.4906 155.108 71.2012 159.803C81.7552 160.3 105.694 157.879 118.004 162.216L121.93 164.293C122.138 164.009 122.617 164.73 122.92 165.034L125.543 166.422C127.505 158.76 120.392 170.646 125.486 164.727C126.424 163.637 124.291 164.34 127.554 163.8C123.049 162.951 124.209 163.535 121.858 160.749C135.656 154.663 133.058 134.813 118.432 132.322Z" fill="black"/>
<path fill-rule="evenodd" clip-rule="evenodd" d="M164.785 107.058C177.842 111.474 173.347 114.741 187.948 105.905C194.659 101.845 200.113 97.8195 207.442 93.6947C214.485 89.7313 222.365 85.1943 231.091 84.7722C243.818 84.1552 247.938 86.0205 254.252 92.7944C242.979 64.1098 205.75 87.1766 187.225 98.1334C170.76 107.872 168.643 105.155 164.785 107.058Z" fill="black"/>
<path fill-rule="evenodd" clip-rule="evenodd" d="M66.2598 84.9594C68.6204 84.2625 69.3439 83.5448 71.7232 84.1089C78.5947 85.7364 77.9129 83.3193 86.8152 82.6414C113.846 80.5825 131.269 113.464 152.534 92.9809C150.858 93.3591 147.758 94.3672 146.372 94.3539C141.128 94.304 147.365 94.4297 141.639 93.2466C126.693 90.1574 123.815 87.3488 109.188 80.9491C80.4923 68.3934 80.2227 81.9766 66.2598 84.9594Z" fill="black"/>
<path fill-rule="evenodd" clip-rule="evenodd" d="M116.66 145.067L125.126 146.266C123.687 143.446 122.969 139.567 120.457 138.895C116.103 137.73 116.293 142.251 116.66 145.067Z" fill="white"/>
<path fill-rule="evenodd" clip-rule="evenodd" d="M204.169 143.056C204.154 143.078 201.437 142.867 203.85 148.056C205.033 150.6 205.586 150.783 208.283 150.876C209.6 146.256 209.181 140.892 204.169 143.056Z" fill="white"/>
<path fill-rule="evenodd" clip-rule="evenodd" d="M203.85 148.055C201.438 142.867 204.155 143.078 204.17 143.056C209.182 140.892 209.601 146.255 208.284 150.876C205.586 150.783 205.034 150.6 203.85 148.055ZM173.894 157.392C179.038 142.904 174.642 141.782 184.733 127.311C188.347 122.129 200.862 114.407 210.409 113.305C235.674 110.388 249.148 131.203 245.227 155.584L212.725 158.095C222.668 121.255 172.378 134.4 186.209 157.564C192.536 168.158 201.207 161.497 214.798 159.779C226.419 158.311 239.533 157.412 250.956 156.999C245.311 155.821 248.65 157.145 245.935 154.33C252.705 146.175 248.427 125.027 242.588 117.565C235.983 109.123 226.333 102.32 211.237 104.616C186.917 108.316 171.229 128.902 173.894 157.392Z" fill="black"/>
<path fill-rule="evenodd" clip-rule="evenodd" d="M76.1372 155.115C61.555 101.434 103.795 93.0142 127.312 116.763C136.865 126.409 134.731 136.77 139.776 145.712C142.018 112.697 117.435 91.2164 94.0598 95.2929C66.0708 100.175 60.1975 132.253 76.1372 155.115Z" fill="black"/>
<path fill-rule="evenodd" clip-rule="evenodd" d="M120.456 138.895C122.968 139.567 123.686 143.446 125.125 146.266L116.66 145.067C116.292 142.251 116.102 137.73 120.456 138.895ZM118.432 132.322C101.68 129.469 94.0353 150.453 105.093 157.99C94.6884 159.85 79.4906 155.108 71.2012 159.803C81.7552 160.3 105.694 157.879 118.004 162.216L121.93 164.293C122.138 164.009 122.617 164.73 122.92 165.034L125.543 166.422C127.505 158.76 120.392 170.646 125.486 164.727C126.424 163.637 124.291 164.34 127.554 163.8C123.049 162.951 124.209 163.535 121.858 160.749C135.656 154.663 133.058 134.813 118.432 132.322Z" fill="black"/>
<path fill-rule="evenodd" clip-rule="evenodd" d="M164.785 107.058C177.842 111.474 173.347 114.741 187.948 105.905C194.659 101.845 200.113 97.8195 207.442 93.6947C214.485 89.7313 222.365 85.1943 231.091 84.7722C243.818 84.1552 247.938 86.0205 254.252 92.7944C242.979 64.1098 205.75 87.1766 187.225 98.1334C170.76 107.872 168.643 105.155 164.785 107.058Z" fill="black"/>
<path fill-rule="evenodd" clip-rule="evenodd" d="M66.2598 84.9594C68.6204 84.2625 69.3439 83.5448 71.7232 84.1089C78.5947 85.7364 77.9129 83.3193 86.8152 82.6414C113.846 80.5825 131.269 113.464 152.534 92.9809C150.858 93.3591 147.758 94.3672 146.372 94.3539C141.128 94.304 147.365 94.4297 141.639 93.2466C126.693 90.1574 123.815 87.3488 109.188 80.9491C80.4923 68.3934 80.2227 81.9766 66.2598 84.9594Z" fill="black"/>
<path fill-rule="evenodd" clip-rule="evenodd" d="M116.66 145.067L125.126 146.266C123.687 143.446 122.969 139.567 120.457 138.895C116.103 137.73 116.293 142.251 116.66 145.067Z" fill="white"/>
<path fill-rule="evenodd" clip-rule="evenodd" d="M204.169 143.056C204.154 143.078 201.437 142.867 203.85 148.056C205.033 150.6 205.586 150.783 208.283 150.876C209.6 146.256 209.181 140.892 204.169 143.056Z" fill="white"/>
</svg>
