<svg width="325" height="326" viewBox="0 0 325 326" fill="none" xmlns="http://www.w3.org/2000/svg">
<path d="M162.5 325.146C251.97 325.146 324.5 252.616 324.5 163.146C324.5 73.6763 251.97 1.14648 162.5 1.14648C73.0299 1.14648 0.5 73.6763 0.5 163.146C0.5 252.616 73.0299 325.146 162.5 325.146Z" stroke="white" stroke-miterlimit="22.9256"/>
<path d="M162.5 325.146C251.97 325.146 324.5 252.616 324.5 163.146C324.5 73.6763 251.97 1.14648 162.5 1.14648C73.0299 1.14648 0.5 73.6763 0.5 163.146C0.5 252.616 73.0299 325.146 162.5 325.146Z" stroke="white" stroke-miterlimit="22.9256"/>
<path fill-rule="evenodd" clip-rule="evenodd" d="M236.933 95.674C200.483 64.4821 157.531 110.83 165.662 130.185C174.542 71.18 253.395 91.4038 250.227 139.349L202.204 156.579C211.727 151.535 217.836 149.138 218.701 135.373L206.139 134.426L204.23 131.8L211.096 118.427C198.488 109.074 181.723 113.323 176.452 126.181C168.682 145.133 183.366 150.766 194.435 157.29L177.344 157.306C191.307 167.744 226.03 163.008 237.89 153.579L219.546 157.79C241.174 149.18 255.97 150.67 251.433 124.823C248.547 108.382 233.984 92.6583 215.387 87.7994L236.933 95.674Z" fill="black"/>
<path fill-rule="evenodd" clip-rule="evenodd" d="M99.4142 167.334C91.6032 167.435 84.3045 167.072 76.4177 165.797C66.0159 164.116 65.5426 163 66.1753 151.965C67.1165 135.544 75.3661 126.982 85.3965 122.472C119.083 107.328 134.105 130.753 145.29 148.438C146.969 108.452 58.6809 83.5296 60.9374 161.23L50.5595 156.684C74.6863 173.631 82.3089 169.642 111.459 169.683L81.7101 172.641C104.598 177.449 133.099 170.354 141.094 155.477L132.071 160.262L132.876 140.457L117.667 145.072L115.333 142.048L119.91 130.598C109.645 124.322 97.1336 133.188 93.419 139.742C85.7319 153.302 95.2579 160.752 99.4142 167.334Z" fill="black"/>
<path fill-rule="evenodd" clip-rule="evenodd" d="M234.181 75.372C194.986 67.5687 197.44 70.6945 162.245 50.1299C161.415 53.7577 160.05 57.1618 161.76 59.7786C163.928 63.0963 163.174 61.1462 167.721 63.5589C170.758 65.171 169.865 65.2807 172.957 66.9827C193.229 78.1429 246.929 87.5715 261.46 82.2207C251.616 79.984 244.768 77.4788 234.181 75.372Z" fill="black"/>
<path fill-rule="evenodd" clip-rule="evenodd" d="M49.9055 105.708C60.6441 104.925 84.1352 96.6953 93.4714 92.4777C100.831 89.1525 107.06 86.0013 112.697 82.34C118.757 78.4041 123.12 74.1848 124.748 64.272C122.253 62.5273 125.373 62.8614 121.445 66.0727C121.586 62.0423 121.93 59.5065 120.117 56.5512C110.939 71.6172 102.106 80.2146 89.1729 87.0613C82.809 90.4301 76.8134 93.5133 69.3494 96.3681C65.5451 97.8238 61.8954 98.723 58.3137 100.218C53.0981 102.395 54.9651 103.429 49.9055 105.708Z" fill="black"/>
</svg>
