<svg width="421" height="422" viewBox="0 0 421 422" fill="none" xmlns="http://www.w3.org/2000/svg">
<path d="M210.5 420.793C326.48 420.793 420.5 326.707 420.5 210.647C420.5 94.5859 326.48 0.5 210.5 0.5C94.5202 0.5 0.5 94.5859 0.5 210.647C0.5 326.707 94.5202 420.793 210.5 420.793Z" stroke="#BEBEBE" stroke-miterlimit="22.9256"/>
<path fill-rule="evenodd" clip-rule="evenodd" d="M299.559 132.854C248.043 98.1021 199.511 163.933 212.82 187.615C215.613 110.5 320.138 124.961 323.082 187.03L263.751 216.188C275.279 208.315 282.796 204.342 281.893 186.528L265.575 187.149L262.731 184.053L269.616 165.866C252.007 155.691 231.036 163.6 226.13 180.892C218.899 206.381 238.638 211.473 253.85 218.237L231.84 220.755C251.352 232.127 295.382 220.967 309.276 207.118L286.266 215.21C312.861 200.985 332.137 200.737 322.506 168.189C316.38 147.485 295.32 129.41 270.655 125.885L299.559 132.854Z" fill="black"/>
<path fill-rule="evenodd" clip-rule="evenodd" d="M132.936 245.03C122.89 246.302 113.436 246.902 103.091 246.417C89.4478 245.777 88.6746 244.412 87.873 230.141C86.6795 208.903 96.0505 196.696 108.309 189.435C149.479 165.052 172.259 192.957 189.255 214.045C185.56 162.421 68.1942 143.302 82.4839 242.811L68.4512 238.486C102.009 256.735 111.243 250.496 148.794 246.289L110.911 254.437C141.095 257.27 176.765 243.988 184.881 223.704L173.962 231.17L172.097 205.606L153.184 213.758L149.735 210.213L153.953 194.832C139.812 188.268 124.996 201.489 121.172 210.452C113.257 229 126.618 237.181 132.936 245.03Z" fill="black"/>
<path fill-rule="evenodd" clip-rule="evenodd" d="M293.04 107.169C241.415 102.871 245.034 106.528 196.69 85.2483C196.152 90.0313 194.893 94.6047 197.479 97.7171C200.758 101.663 199.5 99.2678 205.71 101.703C209.858 103.331 208.724 103.602 212.955 105.337C240.7 116.715 311.248 120.981 329.179 111.982C316.173 110.547 306.985 108.329 293.04 107.169Z" fill="black"/>
<path fill-rule="evenodd" clip-rule="evenodd" d="M60.1406 173.081C73.8571 170.505 102.908 156.497 114.315 149.713C123.306 144.365 130.868 139.406 137.592 133.877C144.821 127.934 149.821 121.875 150.467 108.9C146.998 107.023 151.065 106.996 146.476 111.697C146.067 106.497 146.139 103.189 143.37 99.6562C133.757 120.356 123.64 132.694 107.985 143.382C100.282 148.641 93.0111 153.479 83.8158 158.238C79.1292 160.664 74.5601 162.353 70.1659 164.797C63.7672 168.357 66.3234 169.413 60.1406 173.081Z" fill="black"/>
<path fill-rule="evenodd" clip-rule="evenodd" d="M320.298 262.415L330.242 264.775C324.534 275.165 301.146 297.01 290.142 304.597C274.049 315.69 257.793 324.075 234.998 328.784C195.514 336.943 133.791 323.294 111.796 297.682C116.279 294.519 119.604 295.254 121.992 290.832C107.588 288.141 87.8317 290.342 85.0762 302.754C111.71 300.105 100.35 295.194 121.389 308.62C155.618 330.462 190.998 346.965 234.954 338.913C270.44 332.412 290.724 314.841 309.606 293.243L333.834 267.598C340.223 263.404 342.735 266.291 349.201 265.59C351.198 265.373 352.499 265.84 355.5 263.348C346.776 258.958 330.891 256.636 320.298 262.415Z" fill="black"/>
</svg>
