<svg width="421" height="421" viewBox="0 0 421 421" fill="none" xmlns="http://www.w3.org/2000/svg">
<path d="M210.5 420.22C326.48 420.22 420.5 326.263 420.5 210.36C420.5 94.4576 326.48 0.5 210.5 0.5C94.5202 0.5 0.5 94.4576 0.5 210.36C0.5 326.263 94.5202 420.22 210.5 420.22Z" stroke="#BEBEBE" stroke-miterlimit="22.9256"/>
<path fill-rule="evenodd" clip-rule="evenodd" d="M268.4 320.743C273.86 344.04 216.427 372.799 172.391 351.683C164.585 347.941 162.893 347.614 159.028 341.818C153.196 333.071 154.603 343.145 151.12 332.59C151.621 321.449 187.293 315.926 196.926 321.094C203.502 324.622 198.092 321.889 198.643 324.853C198.723 325.284 195.231 327.282 201.945 325.223C218.106 320.266 253.557 303.071 268.4 320.743ZM324.727 249.575C328.523 243.174 330.069 234.987 333.675 228.94C344.968 229.821 341.324 233.413 347.75 236.76L330.836 222.582C329.093 225.126 307.521 236.258 292.863 239.575C278.643 242.793 262.705 244.773 247.723 245.99C210.225 249.035 183.069 246.193 146.713 245.449C170.867 261.464 292.602 239.091 303.908 242.353C292.861 290.171 111.945 289.291 118.235 242.908L146.811 246.641C138.138 240.696 117.963 239.763 106.029 235.584C91.2375 230.403 86.0334 224.833 73.6699 239.69L88.1111 235.22C95.7276 243.018 121.436 297.103 130.226 311.788C145.548 337.383 160.39 357.252 199.223 361.267C262.835 367.841 312.561 301.597 324.727 249.575Z" fill="black"/>
<path fill-rule="evenodd" clip-rule="evenodd" d="M264.103 191.468C260.975 184.746 264.497 185.02 264.516 184.991C271.013 182.187 271.557 189.136 269.85 195.121C266.353 195.001 265.637 194.764 264.103 191.468ZM225.27 203.562C231.939 184.794 226.24 183.341 239.321 164.595C244.005 157.882 260.229 147.878 272.605 146.451C305.355 142.672 322.822 169.637 317.739 201.22L275.607 204.473C288.495 156.749 223.305 173.779 241.235 203.785C249.435 217.509 260.676 208.88 278.294 206.655C293.358 204.753 310.357 203.589 325.166 203.053C317.848 201.528 322.177 203.243 318.657 199.596C327.432 189.031 321.887 161.636 314.318 151.969C305.756 141.033 293.247 132.22 273.678 135.195C242.152 139.988 221.816 166.655 225.27 203.562Z" fill="black"/>
<path fill-rule="evenodd" clip-rule="evenodd" d="M98.5494 200.613C79.6465 131.072 134.402 120.165 164.888 150.93C177.27 163.426 174.504 176.849 181.044 188.432C183.95 145.663 152.083 117.837 121.782 123.117C85.5003 129.441 77.8868 170.997 98.5494 200.613Z" fill="black"/>
<path fill-rule="evenodd" clip-rule="evenodd" d="M155.997 179.6C159.254 180.471 160.185 185.496 162.05 189.149L151.076 187.596C150.6 183.948 150.353 178.091 155.997 179.6ZM153.373 171.086C131.658 167.39 121.748 194.573 136.082 204.337C122.595 206.746 102.894 200.604 92.1484 206.685C105.83 207.33 136.862 204.193 152.819 209.812L157.908 212.502C158.178 212.134 158.798 213.068 159.191 213.462L162.592 215.26C165.135 205.334 155.915 220.732 162.518 213.064C163.734 211.652 160.968 212.563 165.198 211.864C159.358 210.764 160.863 211.519 157.815 207.911C175.701 200.027 172.334 174.312 153.373 171.086Z" fill="black"/>
<path fill-rule="evenodd" clip-rule="evenodd" d="M213.463 138.358C230.388 144.079 224.562 148.31 243.488 136.865C252.188 131.604 259.258 126.39 268.759 121.047C277.889 115.912 288.104 110.035 299.414 109.488C315.913 108.689 321.253 111.105 329.439 119.88C314.825 82.7214 266.565 112.603 242.552 126.797C221.207 139.412 218.464 135.892 213.463 138.358Z" fill="black"/>
<path fill-rule="evenodd" clip-rule="evenodd" d="M85.7441 109.73C88.8042 108.828 89.7421 107.898 92.8264 108.629C101.734 110.737 100.85 107.606 112.39 106.728C147.431 104.06 170.016 146.657 197.582 120.122C195.409 120.612 191.39 121.918 189.593 121.9C182.795 121.836 190.88 121.999 183.459 120.466C164.083 116.464 160.352 112.826 141.392 104.535C104.194 88.2702 103.844 105.866 85.7441 109.73Z" fill="black"/>
<path fill-rule="evenodd" clip-rule="evenodd" d="M151.077 187.596L162.051 189.149C160.186 185.496 159.255 180.471 155.998 179.6C150.354 178.091 150.601 183.948 151.077 187.596Z" fill="white"/>
<path fill-rule="evenodd" clip-rule="evenodd" d="M264.516 184.991C264.497 185.02 260.975 184.747 264.103 191.468C265.636 194.764 266.353 195.001 269.85 195.122C271.557 189.136 271.013 182.188 264.516 184.991Z" fill="white"/>
</svg>
