<svg width="421" height="422" viewBox="0 0 421 422" fill="none" xmlns="http://www.w3.org/2000/svg">
<path d="M210.5 420.779C326.48 420.779 420.5 326.696 420.5 210.639C420.5 94.5825 326.48 0.5 210.5 0.5C94.5202 0.5 0.5 94.5825 0.5 210.639C0.5 326.696 94.5202 420.779 210.5 420.779Z" stroke="#BEBEBE" stroke-miterlimit="22.9256"/>
<path fill-rule="evenodd" clip-rule="evenodd" d="M299.238 208.725L308.869 208.356C293.297 240.62 252.569 267.985 203.238 268.026C174.371 268.052 113.157 247.531 112.192 237.572C111.96 235.175 121.56 233.719 107.975 232.585C100.674 231.976 97.7428 234.915 94.1211 238.216C96.5023 239.833 101.932 237.16 113.194 243.818C144.451 262.297 133.801 253.811 167.287 278.664C210.859 311.002 238.858 359.49 263.95 299.088C273.635 275.776 283.154 250.211 296.829 233.378C309.063 218.319 309.131 205.713 329.368 208.853C323.629 196.01 305.276 200.347 299.238 208.725Z" fill="black"/>
<path fill-rule="evenodd" clip-rule="evenodd" d="M274.034 135.306C269.404 138.389 267.72 146.872 256.821 143.157C248.519 140.327 247.315 132.518 251.23 123.507C241.344 124.061 234.308 126.979 230.649 132.441C236.332 107.424 295.719 99.7889 306.848 141.28L310.603 147.105C315.19 128.772 294.47 108.033 278.406 104.398C243.229 96.4379 214.182 126.241 225.627 165.039C230.186 180.497 229.492 172.012 230.856 171.694C234.411 170.864 229.075 169.052 235.987 173.162C239.868 175.471 238.056 175.615 243.469 176.85C268.694 182.601 285.228 159.924 274.034 135.306Z" fill="black"/>
<path fill-rule="evenodd" clip-rule="evenodd" d="M108.093 175.984C104.363 176.373 101.059 176.563 97.4353 177.49C92.3523 178.788 92.3441 180.062 90.4013 179.508C93.0586 179.2 97.1596 177.374 101.464 178.395C107.835 179.908 103.558 177.983 107.059 181.428C98.264 183.146 94.9628 185.667 85.7598 181.928L93.505 186.843L100.91 189.158L95.9555 195.055C111.859 192.222 123.493 183.818 142.788 185.61C157.583 186.983 172.5 194.893 185.191 199.324C181.374 191.906 172.877 184.802 164.702 182.236C166.529 181.405 163.894 182.064 167.853 181.544C169.332 181.349 167.719 182.274 171.19 181.363C141.153 165.67 124.922 180.572 103.209 172.468C104.015 171.946 106.066 174.082 108.093 175.984Z" fill="black"/>
<path fill-rule="evenodd" clip-rule="evenodd" d="M73.7598 138.769C90.084 140.925 123.412 136.804 136.185 132.701C156.184 126.279 172.4 118.607 160.794 93.4297C153.77 97.0254 152 110.546 124.11 124.104C106.834 132.502 93.6599 134.797 73.7598 138.769Z" fill="black"/>
<path fill-rule="evenodd" clip-rule="evenodd" d="M211.295 93.1502C218.849 85.6423 231.327 73.3278 249.155 73.7864C268.187 74.2752 278.937 85.6215 293.085 91.3719C290.334 84.9372 293.347 90.8719 290.87 87.2604L283.945 79.6775C277.833 72.504 259.724 57.392 250.403 56.3206C230.89 54.0783 215.791 77.035 211.295 93.1502Z" fill="black"/>
<path fill-rule="evenodd" clip-rule="evenodd" d="M264.25 197.705C275.031 190.73 281.687 185.376 289.416 176.793C301.018 163.908 300.672 165.55 315.183 158.084C300.978 158.069 282.544 172.111 274.924 182.95C272.563 186.311 272.823 185.529 269.861 188.928L264.25 197.705Z" fill="black"/>
<path fill-rule="evenodd" clip-rule="evenodd" d="M227.6 342.542C229.801 345.677 231.342 351.117 243.73 346.912C252.046 344.09 255.052 339.515 258.208 333.279C246.27 337.28 246.498 343.898 227.6 342.542Z" fill="black"/>
</svg>
