<svg width="421" height="422" viewBox="0 0 421 422" fill="none" xmlns="http://www.w3.org/2000/svg">
<path d="M210.5 420.793C326.48 420.793 420.5 326.707 420.5 210.647C420.5 94.5859 326.48 0.5 210.5 0.5C94.5202 0.5 0.5 94.5859 0.5 210.647C0.5 326.707 94.5202 420.793 210.5 420.793Z" stroke="#BEBEBE" stroke-miterlimit="22.9256"/>
<path d="M142.973 152.488C142.381 151.988 140.64 149.529 140.25 136.777C140.117 132.423 141.709 129.083 143.928 124.518C146.826 118.558 151.944 113.328 157.626 108.945C164.371 103.743 172.811 100.21 179.321 97.7011C184.496 95.7069 192.625 94.5325 207.494 93.3831C216.843 92.6603 230.028 92.9767 238.719 93.2731C251.306 93.7022 258.786 95.7967 264.981 97.6342C272.454 99.8505 276.341 103.401 279.288 106.447C280.595 107.797 280.591 111.311 280.753 115.719C280.859 118.581 279.027 122.219 275.379 128.418C273.214 132.097 269.435 136.579 265.949 140.515C262.463 144.451 259.135 147.635 247.228 155.817C235.322 163.999 214.937 177.084 203.157 184.896C188.485 194.627 184.915 198.579 182.891 201.14C181.536 207.377 181.312 216.724 182.107 219.689C182.748 221.702 183.874 224.746 185.635 228.612" stroke="black" stroke-width="12" stroke-linecap="round" stroke-linejoin="round"/>
<path d="M207.067 293.217C203.357 293.31 193.933 294.021 187.442 297.266C182.565 299.704 179.715 303.568 177.705 306.667C176.011 309.278 176.448 314.887 177.603 320.065C178.38 323.548 182.932 325.063 186.802 326.691C192.39 329.043 200.511 327.591 203.432 326.298C206.774 324.818 210.102 315.319 212.494 306.937C213.434 303.642 212.647 301.125 211.854 299.818C209.916 296.626 205.16 295.241 197.735 293.8C191.619 293.667 186.833 293.958 184.464 294.497C183.334 294.791 182.351 295.13 181.337 295.479" stroke="black" stroke-width="12" stroke-linecap="round" stroke-linejoin="round"/>
</svg>
