<svg width="325" height="325" viewBox="0 0 325 325" fill="none" xmlns="http://www.w3.org/2000/svg">
<path d="M162.5 324.5C251.97 324.5 324.5 251.97 324.5 162.5C324.5 73.0297 251.97 0.5 162.5 0.5C73.0299 0.5 0.5 73.0297 0.5 162.5C0.5 251.97 73.0299 324.5 162.5 324.5Z" stroke="white" stroke-miterlimit="22.9256"/>
<path fill-rule="evenodd" clip-rule="evenodd" d="M230.955 176.884L238.385 176.6C226.372 201.473 194.954 222.568 156.899 222.601C134.63 222.62 87.4075 206.8 86.6628 199.123C86.4842 197.275 93.8897 196.153 83.4097 195.279C77.7778 194.809 75.5166 197.074 72.7227 199.619C74.5596 200.865 78.7484 198.805 87.4364 203.938C111.548 218.184 103.333 211.641 129.165 230.801C162.778 255.731 184.376 293.112 203.734 246.546C211.205 228.575 218.548 208.866 229.098 195.89C238.535 184.28 238.587 174.562 254.199 176.983C249.771 167.082 235.614 170.425 230.955 176.884Z" fill="black"/>
</svg>
