<svg width="325" height="325" viewBox="0 0 325 325" fill="none" xmlns="http://www.w3.org/2000/svg">
<path d="M162.5 324.5C251.97 324.5 324.5 251.97 324.5 162.5C324.5 73.0298 251.97 0.5 162.5 0.5C73.0299 0.5 0.5 73.0298 0.5 162.5C0.5 251.97 73.0299 324.5 162.5 324.5Z" stroke="white" stroke-miterlimit="22.9256"/>
<path fill-rule="evenodd" clip-rule="evenodd" d="M207.166 252.849C211.378 270.833 167.072 293.033 133.101 276.733C127.08 273.844 125.775 273.592 122.793 269.118C118.294 262.366 119.379 270.142 116.692 261.994C117.079 253.394 144.597 249.131 152.028 253.12C157.102 255.843 152.928 253.734 153.353 256.022C153.415 256.354 150.721 257.896 155.901 256.307C168.368 252.481 195.715 239.207 207.166 252.849ZM250.618 197.911C253.546 192.97 254.739 186.65 257.52 181.983C266.233 182.662 263.421 185.435 268.379 188.018L255.331 177.074C253.986 179.038 237.345 187.631 226.037 190.192C215.068 192.676 202.773 194.204 191.215 195.144C162.288 197.494 141.339 195.3 113.293 194.726C131.926 207.089 225.836 189.818 234.558 192.336C226.036 229.249 86.472 228.57 91.3242 192.765L113.368 195.646C106.678 191.058 91.1142 190.337 81.9077 187.111C70.4975 183.112 66.4829 178.812 56.9453 190.28L68.0856 186.83C73.9612 192.85 93.7932 234.6 100.574 245.936C112.394 265.694 123.843 281.032 153.801 284.131C202.873 289.206 241.232 238.069 250.618 197.911Z" fill="black"/>
</svg>
