<svg width="325" height="325" viewBox="0 0 325 325" fill="none" xmlns="http://www.w3.org/2000/svg">
<path d="M162.5 324.5C251.97 324.5 324.5 251.97 324.5 162.5C324.5 73.0298 251.97 0.5 162.5 0.5C73.0299 0.5 0.5 73.0298 0.5 162.5C0.5 251.97 73.0299 324.5 162.5 324.5Z" stroke="white" stroke-miterlimit="22.9256"/>
<path fill-rule="evenodd" clip-rule="evenodd" d="M247.201 202.261L254.872 204.081C250.469 212.09 232.427 228.93 223.938 234.779C211.524 243.331 198.983 249.795 181.398 253.425C150.939 259.715 103.324 249.193 86.3567 229.448C89.8148 227.01 92.3798 227.577 94.2218 224.168C83.1105 222.094 67.8698 223.79 65.7441 233.358C86.2902 231.316 77.5265 227.531 93.7571 237.88C120.162 254.719 147.455 267.44 181.364 261.233C208.739 256.222 224.387 242.676 238.953 226.027L257.643 206.257C262.571 203.024 264.509 205.249 269.497 204.709C271.038 204.542 272.042 204.902 274.357 202.981C267.627 199.596 255.373 197.807 247.201 202.261Z" fill="black"/>
</svg>
