<svg xmlns="http://www.w3.org/2000/svg" width="230" height="116" viewBox="0 0 230 116" fill="none" aria-hidden="true" focusable="false">
  <rect x=".5" y=".5" width="229" height="115" rx="7.5" fill="#FBFBFB" stroke="#E5E7EB"/>
  <path d="M1 1h228v114H1V1Z" fill="url(#documentPreviewDots)"/>
  <rect x="30" y="16" width="70" height="7" rx="3.5" fill="#C6CDD3"/>
  <rect x="30" y="38" width="188" height="7" rx="3.5" fill="#D7DCE0"/>
  <rect x="30" y="53" width="142" height="7" rx="3.5" fill="#D7DCE0"/>
  <rect x="30" y="74" width="104" height="7" rx="3.5" fill="#D7DCE0"/>
  <path d="M30 87h58M30 96h58M30 105h58" stroke="#DFE4E7" stroke-width="5" stroke-linecap="round"/>
  <path d="M30 87h8M30 96h8M30 105h8" stroke="#67D6B6" stroke-width="5" stroke-linecap="round"/>
  <rect x="160" y="64" width="76" height="44" rx="7" fill="#DFF6EE"/>
  <path d="m161 108 75-44v44h-75Z" fill="#63C7A8"/>
  <path d="m190 108 46-44" stroke="#9BE5CF" stroke-width="9"/>
  <circle cx="216" cy="80" r="5" fill="#8DE0C6"/>
  <defs>
    <pattern id="documentPreviewDots" width="14" height="14" patternUnits="userSpaceOnUse">
      <circle cx="1" cy="1" r="1" fill="#0F172A" opacity=".07"/>
    </pattern>
  </defs>
</svg>
