<svg xmlns="http://www.w3.org/2000/svg" width="120" height="72" viewBox="0 0 120 72" fill="none" aria-hidden="true" focusable="false">
  <g filter="url(#starterShadow)">
    <rect x="32" y="30" width="56" height="34" rx="7" fill="url(#starterFolder)"/>
    <path d="M40 22h23l8 8H32l8-8Z" fill="#35C99F"/>
    <circle cx="53" cy="51" r="2.5" fill="#08765F"/>
    <circle cx="67" cy="51" r="2.5" fill="#08765F"/>
  </g>
  <g filter="url(#starterPageShadow)">
    <rect x="29.5" y="16.5" width="27" height="33" rx="4.5" fill="white" stroke="#D8E2DF" transform="rotate(-13 43 33)"/>
    <path d="M42.2 29.7 38.5 36h4.1l-1.1 5.5 4.7-7h-4l1.4-4.8Z" stroke="#0F766E" stroke-width="1.7" stroke-linejoin="round"/>
  </g>
  <g filter="url(#starterPageShadow)">
    <rect x="48.5" y="1.5" width="27" height="33" rx="4.5" fill="white" stroke="#D8E2DF" transform="rotate(-10 62 18)"/>
    <path d="M58 11h8l4 4v11H58V11Z" stroke="#0F766E" stroke-width="1.6" stroke-linejoin="round"/>
    <path d="M66 11v4h4M61 18h6M61 22h7" stroke="#0F766E" stroke-width="1.4" stroke-linecap="round"/>
  </g>
  <g filter="url(#starterPageShadow)">
    <rect x="63.5" y="16.5" width="27" height="33" rx="4.5" fill="white" stroke="#D8E2DF" transform="rotate(13 77 33)"/>
    <rect x="73" y="31" width="13" height="9" rx="1.5" fill="#0F766E" opacity=".85"/>
  </g>
  <defs>
    <linearGradient id="starterFolder" x1="60" y1="30" x2="60" y2="64" gradientUnits="userSpaceOnUse">
      <stop stop-color="#B9F1DF"/>
      <stop offset="1" stop-color="#77D9B8"/>
    </linearGradient>
    <filter id="starterShadow" x="16" y="12" width="88" height="68" filterUnits="userSpaceOnUse" color-interpolation-filters="sRGB">
      <feDropShadow dx="0" dy="12" stdDeviation="12" flood-color="#14B8A6" flood-opacity=".18"/>
    </filter>
    <filter id="starterPageShadow" x="16" y="-8" width="88" height="72" filterUnits="userSpaceOnUse" color-interpolation-filters="sRGB">
      <feDropShadow dx="0" dy="8" stdDeviation="9" flood-color="#0F172A" flood-opacity=".08"/>
    </filter>
  </defs>
</svg>
