<svg width="24" height="24" viewBox="0 0 24 24" fill="none" xmlns="http://www.w3.org/2000/svg"> <path d="M20.25 6.5C20.25 6.08579 19.9142 5.75 19.5 5.75H17.25V18.25H19.5C19.9142 18.25 20.25 17.9142 20.25 17.5V6.5ZM12.75 18.25H15.75V5.75H12.75V18.25ZM8.25 18.25H11.25V5.75H8.25V18.25ZM3.75 17.5C3.75 17.9142 4.08579 18.25 4.5 18.25H6.75V5.75H4.5C4.08578 5.75 3.75 6.08578 3.75 6.5V17.5ZM21.75 17.5C21.75 18.7426 20.7426 19.75 19.5 19.75H4.5C3.25735 19.75 2.25 18.7426 2.25 17.5V6.5C2.25 5.25736 3.25736 4.25 4.5 4.25H19.5C20.7426 4.25 21.75 5.25735 21.75 6.5V17.5Z" fill="currentColor"/> </svg>