<svg width="24" height="24" viewBox="0 0 24 24" fill="none" xmlns="http://www.w3.org/2000/svg"> <path d="M20.2685 12C20.2685 7.1675 16.351 3.25 11.5185 3.25C8.58177 3.25004 6.00856 4.61326 4.39257 6.75H7.01854C7.43276 6.75 7.76854 7.08579 7.76854 7.5C7.76854 7.91421 7.43276 8.25 7.01854 8.25H3.01854C2.60438 8.24993 2.26854 7.91417 2.26854 7.5V3.5C2.26854 3.08583 2.60438 2.75007 3.01854 2.75C3.43276 2.75 3.76854 3.08579 3.76854 3.5V5.15234C5.66934 3.05074 8.42914 1.75003 11.5185 1.75C17.1795 1.75 21.7685 6.33908 21.7685 12C21.7685 17.6609 17.1795 22.25 11.5185 22.25C7.46778 22.25 3.96957 19.8999 2.30663 16.4922C2.12503 16.12 2.2793 15.671 2.65135 15.4893C3.02356 15.3076 3.47258 15.4619 3.65428 15.834C5.07543 18.7464 8.06287 20.75 11.5185 20.75C16.351 20.75 20.2685 16.8325 20.2685 12ZM10.7685 6.5C10.7685 6.08583 11.1044 5.75007 11.5185 5.75C11.9328 5.75 12.2685 6.08579 12.2685 6.5V11.6895L15.5488 14.9697C15.8417 15.2626 15.8417 15.7374 15.5488 16.0303C15.2559 16.3231 14.7811 16.3231 14.4883 16.0303L10.9883 12.5303C10.8477 12.3896 10.7685 12.1989 10.7685 12V6.5Z" fill="currentColor"/> </svg>