<svg width="25" height="25" viewBox="0 0 25 25" fill="none" xmlns="http://www.w3.org/2000/svg"> <path d="M11.75 0C12.1642 0 12.5 0.335786 12.5 0.75V14.75C12.5 15.1642 12.1642 15.5 11.75 15.5H0.75C0.335786 15.5 0 15.1642 0 14.75V0.75C0 0.335786 0.335786 0 0.75 0H11.75ZM7 14H11V8.5H7V14ZM1.5 14H5.5V8.5H1.5V14ZM15 9.75V8.5H13.75C13.3358 8.5 13 8.16421 13 7.75C13 7.33579 13.3358 7 13.75 7H15V5.75C15 5.33579 15.3358 5 15.75 5C16.1642 5 16.5 5.33579 16.5 5.75V7H17.75C18.1642 7 18.5 7.33579 18.5 7.75C18.5 8.16421 18.1642 8.5 17.75 8.5H16.5V9.75C16.5 10.1642 16.1642 10.5 15.75 10.5C15.3358 10.5 15 10.1642 15 9.75ZM7 7H11V1.5H7V7ZM1.5 7H5.5V1.5H1.5V7Z" fill="currentColor"/> </svg>