<svg width="25" height="25" viewBox="0 0 25 25" fill="none" xmlns="http://www.w3.org/2000/svg"> <path d="M14.75 6C15.1642 6 15.5 6.33579 15.5 6.75V17.75C15.5 18.1642 15.1642 18.5 14.75 18.5H0.75C0.335786 18.5 0 18.1642 0 17.75V6.75C0 6.33579 0.335786 6 0.75 6H14.75ZM8.5 17H14V13H8.5V17ZM1.5 17H7V13H1.5V17ZM8.5 11.5H14V7.5H8.5V11.5ZM1.5 11.5H7V7.5H1.5V11.5ZM7 4.75V3.5H5.75C5.33579 3.5 5 3.16421 5 2.75C5 2.33579 5.33579 2 5.75 2H7V0.75C7 0.335786 7.33579 0 7.75 0C8.16421 0 8.5 0.335786 8.5 0.75V2H9.75C10.1642 2 10.5 2.33579 10.5 2.75C10.5 3.16421 10.1642 3.5 9.75 3.5H8.5V4.75C8.5 5.16421 8.16421 5.5 7.75 5.5C7.33579 5.5 7 5.16421 7 4.75Z" fill="currentColor"/> </svg>