<svg width="24" height="24" viewBox="0 0 24 24" fill="none" xmlns="http://www.w3.org/2000/svg"> <path d="M17.5 6.85254C18.6537 6.85254 19.6519 7.28703 20.4668 8.13086L20.6162 8.28613C21.336 9.07413 21.7021 10.0195 21.7021 11.0977C21.7021 12.2478 21.2849 13.2463 20.4668 14.0645C19.6487 14.8826 18.6501 15.2998 17.5 15.2998H17.0166C17.0972 15.3955 17.1475 15.5174 17.1475 15.6523V17.5C17.1475 17.8038 16.9014 18.0498 16.5977 18.0498H7.875C6.3286 18.0498 4.99921 17.507 3.91992 16.4277C2.84063 15.3484 2.29785 14.0191 2.29785 12.4727C2.29785 10.9263 2.84063 9.59687 3.91992 8.51758C4.99695 7.41164 6.32609 6.85254 7.875 6.85254H17.5ZM7.875 9.7998C7.13344 9.7998 6.51381 10.0565 5.98633 10.584C5.45884 11.1115 5.20215 11.7311 5.20215 12.4727C5.20215 13.2115 5.45694 13.8293 5.98047 14.3555C6.5055 14.8552 7.12693 15.1025 7.875 15.1025H8.64551C8.30743 14.9699 7.9957 14.771 7.71387 14.5068C7.70955 14.5028 7.70535 14.4983 7.70117 14.4941C7.14298 13.936 6.85254 13.2533 6.85254 12.4727C6.85254 11.692 7.14298 11.0094 7.70117 10.4512C7.99331 10.159 8.32017 9.942 8.67676 9.7998H7.875ZM17.1475 12C17.1475 12.1349 17.0972 12.2569 17.0166 12.3525H17.5C17.8408 12.3525 18.137 12.2376 18.4111 11.9863C18.6817 11.7112 18.7979 11.4217 18.7979 11.0977C18.7979 10.7692 18.6789 10.4758 18.4004 10.1973C18.1219 9.91874 17.8285 9.7998 17.5 9.7998H17.0166C17.0972 9.89549 17.1475 10.0174 17.1475 10.1523V12Z" stroke="currentColor" stroke-width="1.1" stroke-linecap="round" stroke-linejoin="round"/> </svg>