<svg width="25" height="25" viewBox="0 0 25 25" fill="none" xmlns="http://www.w3.org/2000/svg"> <path d="M7 17.75V16.5H5.75C5.33579 16.5 5 16.1642 5 15.75C5 15.3358 5.33579 15 5.75 15H7V13.75C7 13.3358 7.33579 13 7.75 13C8.16421 13 8.5 13.3358 8.5 13.75V15H9.75C10.1642 15 10.5 15.3358 10.5 15.75C10.5 16.1642 10.1642 16.5 9.75 16.5H8.5V17.75C8.5 18.1642 8.16421 18.5 7.75 18.5C7.33579 18.5 7 18.1642 7 17.75ZM14.75 0C15.1642 0 15.5 0.335786 15.5 0.75V11.75C15.5 12.1642 15.1642 12.5 14.75 12.5H0.75C0.335786 12.5 0 12.1642 0 11.75V0.75C0 0.335786 0.335786 0 0.75 0H14.75ZM8.5 11H14V7H8.5V11ZM1.5 11H7V7H1.5V11ZM8.5 5.5H14V1.5H8.5V5.5ZM1.5 5.5H7V1.5H1.5V5.5Z" fill="currentColor"/> </svg>