<svg width="24" height="24" viewBox="0 0 24 24" fill="none" xmlns="http://www.w3.org/2000/svg"> <path d="M6.30273 12.4727C6.30273 11.778 6.49748 11.144 6.87012 10.5938C6.69565 10.6902 6.53153 10.8161 6.375 10.9727C5.95024 11.3974 5.75195 11.8776 5.75195 12.4727C5.75195 13.0604 5.94631 13.5352 6.36035 13.9561C6.51255 14.1009 6.67286 14.2189 6.84473 14.3105C6.48948 13.7697 6.30273 13.1505 6.30273 12.4727ZM17.5 6.30273V7.40234H7.875V6.30273H17.5ZM18.248 11.0977C18.248 10.9276 18.1964 10.7706 18.0117 10.5859C17.9002 10.4745 17.7974 10.4153 17.6973 10.3828V11.7744C17.8106 11.7449 17.9172 11.6885 18.0283 11.5889C18.198 11.4123 18.248 11.2619 18.248 11.0977ZM19.3477 11.0977C19.3477 11.5846 19.1615 12.0143 18.7891 12.3867C18.4167 12.7305 17.987 12.9023 17.5 12.9023H9.63672C9.37891 12.9023 9.25 12.7591 9.25 12.4727C9.25 12.1576 9.37891 12 9.63672 12H16.5977V10.1523H9.72266C9.09245 10.1523 8.54818 10.3815 8.08984 10.8398C7.63151 11.2982 7.40234 11.8424 7.40234 12.4727C7.40234 13.1029 7.63151 13.6471 8.08984 14.1055C8.54818 14.5352 9.09245 14.75 9.72266 14.75H17.5C18.5026 14.75 19.362 14.3919 20.0781 13.6758C20.7943 12.9596 21.1523 12.1003 21.1523 11.0977C21.1523 10.0951 20.7943 9.23568 20.0781 8.51953C19.362 7.77474 18.5026 7.40234 17.5 7.40234V6.30273C18.8119 6.30273 19.9547 6.80385 20.8711 7.75684C21.7816 8.67433 22.252 9.80689 22.252 11.0977C22.252 12.3953 21.7756 13.533 20.8555 14.4531C19.9823 15.3263 18.9131 15.7987 17.6973 15.8447V17.5C17.6973 18.1075 17.2052 18.5996 16.5977 18.5996H7.875C6.18585 18.5996 4.71587 18.001 3.53125 16.8164C2.34663 15.6318 1.74805 14.1618 1.74805 12.4727C1.74805 10.7889 2.34235 9.32232 3.51953 8.13965C4.70159 6.92284 6.17552 6.30273 7.875 6.30273V7.40234C6.47135 7.40234 5.28255 7.90365 4.30859 8.90625C3.33464 9.88021 2.84766 11.069 2.84766 12.4727C2.84766 13.8763 3.33464 15.0651 4.30859 16.0391C5.28255 17.013 6.47135 17.5 7.875 17.5H16.5977V15.6523H7.875C6.98698 15.6523 6.22786 15.3516 5.59766 14.75C4.96745 14.1198 4.65234 13.3607 4.65234 12.4727C4.65234 11.5846 4.96745 10.8255 5.59766 10.1953C6.22786 9.5651 6.98698 9.25 7.875 9.25H17.5C17.987 9.25 18.4167 9.4362 18.7891 9.80859C19.1615 10.181 19.3477 10.6107 19.3477 11.0977Z" fill="currentColor"/> </svg>