<svg width="25" height="25" viewBox="0 0 25 25" fill="none" xmlns="http://www.w3.org/2000/svg"> <path d="M17.75 0C18.1642 0 18.5 0.335786 18.5 0.75V14.75C18.5 15.1642 18.1642 15.5 17.75 15.5H6.75C6.33579 15.5 6 15.1642 6 14.75V0.75C6 0.335786 6.33579 0 6.75 0H17.75ZM13 14H17V8.5H13V14ZM7.5 14H11.5V8.5H7.5V14ZM2 9.75V8.5H0.75C0.335786 8.5 0 8.16421 0 7.75C0 7.33579 0.335786 7 0.75 7H2V5.75C2 5.33579 2.33579 5 2.75 5C3.16421 5 3.5 5.33579 3.5 5.75V7H4.75C5.16421 7 5.5 7.33579 5.5 7.75C5.5 8.16421 5.16421 8.5 4.75 8.5H3.5V9.75C3.5 10.1642 3.16421 10.5 2.75 10.5C2.33579 10.5 2 10.1642 2 9.75ZM13 7H17V1.5H13V7ZM7.5 7H11.5V1.5H7.5V7Z" fill="currentColor"/> </svg>