<svg width="24" height="24" viewBox="0 0 24 24" fill="none" xmlns="http://www.w3.org/2000/svg"> <path d="M20.25 6.97266C20.25 6.54297 20.1068 6.15625 19.8203 5.8125L18.5742 4.26562C18.2878 3.92188 17.9297 3.75 17.5 3.75H6.5C6.07031 3.75 5.71224 3.92188 5.42578 4.26562L4.17969 5.8125C3.89323 6.15625 3.75 6.54297 3.75 6.97266V18.4023C3.75 18.8893 3.9362 19.319 4.30859 19.6914C4.68099 20.0638 5.11068 20.25 5.59766 20.25H18.4023C18.8893 20.25 19.319 20.0638 19.6914 19.6914C20.0638 19.319 20.25 18.8893 20.25 18.4023V6.97266ZM12.748 11.252H11.252V12C11.252 12.6075 10.7599 13.0996 10.1523 13.0996H9.62695L12 15.4727L14.373 13.0996H13.8477C13.2401 13.0996 12.748 12.6075 12.748 12V11.252ZM17.457 4.65234L18.3164 5.59766H5.68359L6.45703 4.65234H17.457ZM17.0273 12L12 17.0273L6.97266 12H10.1523V10.1523H13.8477V12H17.0273ZM21.3496 18.4023C21.3496 19.2063 21.0289 19.9086 20.4688 20.4688C19.9086 21.0289 19.2063 21.3496 18.4023 21.3496H5.59766C4.79371 21.3496 4.09139 21.0289 3.53125 20.4688C2.97111 19.9086 2.65039 19.2063 2.65039 18.4023V6.97266C2.65039 6.28011 2.88745 5.65186 3.32422 5.12207L4.56934 3.5752L4.58105 3.56152C5.06656 2.97897 5.72868 2.65039 6.5 2.65039H17.5C18.2713 2.65039 18.9334 2.97897 19.4189 3.56152C19.4228 3.5661 19.4269 3.57056 19.4307 3.5752L20.6768 5.12207C21.1135 5.65186 21.3496 6.28011 21.3496 6.97266V18.4023Z" fill="currentColor"/> </svg>