<svg width="24" height="24" viewBox="0 0 24 24" fill="none" xmlns="http://www.w3.org/2000/svg"> <path d="M17.5 3.2002C18.0256 3.2002 18.4822 3.39161 18.8467 3.75L18.9971 3.91309L19.0029 3.9209L20.2432 5.45996L20.3721 5.62793C20.6534 6.02677 20.7998 6.4792 20.7998 6.97266V18.4023C20.7998 19.0478 20.5463 19.6138 20.0801 20.0801C19.6138 20.5463 19.0478 20.7998 18.4023 20.7998H5.59766C4.95219 20.7998 4.38619 20.5463 3.91992 20.0801C3.45366 19.6138 3.2002 19.0478 3.2002 18.4023V6.97266C3.2002 6.40864 3.39171 5.89811 3.75684 5.45996L4.99707 3.9209L5.00293 3.91309C5.38891 3.44997 5.89952 3.2002 6.5 3.2002H17.5ZM10.7021 12C10.7021 12.3038 10.4561 12.5498 10.1523 12.5498H8.2998L12 16.25L15.7002 12.5498H13.8477C13.5439 12.5498 13.2979 12.3038 13.2979 12V10.7021H10.7021V12Z" stroke="currentColor" stroke-width="1.1" stroke-linecap="round" stroke-linejoin="round"/> </svg>