<svg width="24" height="24" viewBox="0 0 24 24" fill="none" xmlns="http://www.w3.org/2000/svg"> <path d="M2.33203 8C2.33203 7.63181 2.63083 7.33301 2.99902 7.33301C3.36721 7.33301 3.66602 7.63181 3.66602 8V20.333H20.332V8C20.332 7.63181 20.6308 7.33301 20.999 7.33301C21.3672 7.33301 21.666 7.63181 21.666 8V21C21.666 21.3682 21.3672 21.667 20.999 21.667H2.99902C2.63083 21.667 2.33203 21.3682 2.33203 21V8Z" fill="currentColor"/> <path d="M22.999 2.33301C23.3672 2.33301 23.666 2.63181 23.666 3V8C23.666 8.36819 23.3672 8.66699 22.999 8.66699H0.999023C0.630834 8.66699 0.332031 8.36819 0.332031 8V3C0.332031 2.63181 0.630834 2.33301 0.999023 2.33301H22.999ZM1.66602 7.33301H22.332V3.66699H1.66602V7.33301Z" fill="currentColor"/> <path d="M13.999 11.333C14.3672 11.333 14.666 11.6318 14.666 12C14.666 12.3682 14.3672 12.667 13.999 12.667H9.99902C9.63083 12.667 9.33203 12.3682 9.33203 12C9.33203 11.6318 9.63083 11.333 9.99902 11.333H13.999Z" fill="currentColor"/> </svg>