<svg width="25" height="25" viewBox="0 0 25 25" fill="none" xmlns="http://www.w3.org/2000/svg"> <path d="M23.0996 18.8979C23.4034 18.8979 23.6494 19.144 23.6494 19.4478V23.1001C23.6494 23.4039 23.4034 23.6499 23.0996 23.6499H1.09961C0.795853 23.6499 0.549805 23.4039 0.549805 23.1001V19.4478C0.549805 19.144 0.795853 18.8979 1.09961 18.8979H23.0996ZM7.80762 0.63623C8.02117 0.49971 8.30757 0.525868 8.49316 0.712402L16.6562 8.91846L16.791 9.06494C17.0856 9.41561 17.2471 9.83021 17.2471 10.2954C17.2471 10.8298 17.0335 11.2919 16.6357 11.6499L11.6289 16.6567C11.2493 17.0364 10.7838 17.2476 10.252 17.2476C9.73697 17.2476 9.28854 17.0269 8.91895 16.6577L3.84863 11.6313L3.84766 11.6294C3.4759 11.2576 3.2998 10.7833 3.2998 10.2524C3.2998 9.73767 3.48425 9.28186 3.84766 8.91846L8.18555 4.58057L6.38281 2.77783C6.27856 2.67358 6.22047 2.5317 6.22168 2.38428C6.22299 2.237 6.28284 2.09609 6.38867 1.99365L7.7207 0.70459L7.80762 0.63623ZM18.4912 11.0776C18.6492 11.0746 18.8015 11.1397 18.9082 11.2563C19.5397 11.9466 20.0302 12.5851 20.3652 13.1694C20.6971 13.7483 20.8994 14.3146 20.8994 14.8501C20.8994 15.4956 20.646 16.0616 20.1797 16.5278C19.7134 16.9941 19.1474 17.2476 18.502 17.2476C17.8565 17.2476 17.2905 16.9941 16.8242 16.5278C16.819 16.5226 16.8136 16.5176 16.8086 16.5122C16.3753 16.0428 16.1475 15.4814 16.1475 14.8501C16.1475 14.3719 16.3406 13.8322 16.6406 13.2622L16.6514 13.2427C16.9763 12.6814 17.2938 12.2086 17.6064 11.8335L17.6094 11.8306L18.082 11.272C18.1841 11.1514 18.3332 11.0807 18.4912 11.0776ZM7.19629 9.70264H13.3418L10.2529 6.64502L7.19629 9.70264Z" stroke="currentColor" stroke-width="1.1" stroke-linecap="round" stroke-linejoin="round"/> </svg>