<svg width="25" height="25" viewBox="0 0 25 25" fill="none" xmlns="http://www.w3.org/2000/svg"> <path d="M23.0996 19.4475H1.09961V23.0999H23.0996V19.4475ZM20.3496 14.8499C20.3496 14.0478 19.7337 12.9736 18.502 11.6272L18.0293 12.1858C17.7428 12.5295 17.4421 12.9736 17.127 13.5178C16.8405 14.0621 16.6973 14.5061 16.6973 14.8499C16.6973 15.3368 16.8691 15.7665 17.2129 16.1389C17.5853 16.5113 18.015 16.6975 18.502 16.6975C18.9889 16.6975 19.4186 16.5113 19.791 16.1389C20.1634 15.7665 20.3496 15.3368 20.3496 14.8499ZM14.6777 10.2522H5.86914L10.252 5.86938L14.6777 10.2522ZM8.52344 9.15258H12.0039L10.2549 7.42016L8.52344 9.15258ZM24.1992 23.0998C24.1992 23.7074 23.7071 24.1995 23.0996 24.1995H1.09961C0.492096 24.1995 0 23.7074 0 23.0998V19.4475C0 18.84 0.492096 18.3479 1.09961 18.3479H23.0996C23.7071 18.3479 24.1992 18.84 24.1992 19.4475V23.0998ZM21.4492 14.8498C21.4492 15.6538 21.1285 16.3561 20.5684 16.9163C20.0082 17.4764 19.3059 17.7971 18.502 17.7971C17.698 17.7971 16.9957 17.4764 16.4355 16.9163C16.4252 16.9059 16.4142 16.8958 16.4043 16.885C15.8815 16.3186 15.5977 15.6254 15.5977 14.8498C15.5977 14.2371 15.8397 13.6009 16.1533 13.0051C16.1601 12.9922 16.1675 12.9796 16.1748 12.967C16.214 12.8994 16.2548 12.8333 16.2939 12.7678L12.0176 17.0452C11.5448 17.5179 10.9432 17.7971 10.252 17.7971C9.5663 17.7971 8.98492 17.4996 8.53223 17.0481L3.46191 12.0217L3.45898 12.0178C2.97328 11.5321 2.75 10.9129 2.75 10.2522C2.75 9.59505 2.98999 8.99853 3.45898 8.52953L7.4082 4.58031L5.99414 3.16625C5.78569 2.9578 5.66952 2.67489 5.67188 2.38012C5.67429 2.08529 5.79498 1.80392 6.00684 1.59887L7.33887 0.309806L7.42285 0.235587C7.85622 -0.106535 8.48614 -0.0752849 8.88379 0.324455L17.0479 8.53149C17.5194 9.00396 17.7969 9.60489 17.7969 10.2952C17.7969 10.4839 17.774 10.6655 17.7334 10.8401C17.9326 10.6455 18.1995 10.5331 18.4805 10.5276C18.7965 10.5215 19.1001 10.6518 19.3135 10.885C19.9608 11.5925 20.4796 12.264 20.8418 12.8957C21.1977 13.5165 21.4492 14.1798 21.4492 14.8498ZM3.84961 10.2522C3.84961 10.6532 3.97852 10.9827 4.23633 11.2405L9.30664 16.2678C9.5931 16.5543 9.9082 16.6975 10.252 16.6975C10.6243 16.6975 10.9538 16.5543 11.2402 16.2678L16.2676 11.2405C16.554 10.9827 16.6973 10.6676 16.6973 10.2952C16.6973 9.92277 16.554 9.59334 16.2676 9.30688L8.10352 1.09985L6.77148 2.38892L8.96289 4.58032L4.23633 9.30688C3.97852 9.5647 3.84961 9.8798 3.84961 10.2522Z" fill="currentColor"/> </svg>