<svg width="24" height="24" viewBox="0 0 24 24" fill="none" xmlns="http://www.w3.org/2000/svg"> <path d="M13.1602 4.10254C14.3308 4.10254 15.3325 4.51448 16.127 5.33789L16.2764 5.49414C16.9986 6.28667 17.3623 7.24695 17.3623 8.34766C17.3623 9.32 16.9828 10.1425 16.2832 10.8096C16.6776 11.0894 17.0047 11.4266 17.2559 11.8252C17.651 12.4523 17.835 13.1924 17.835 14.0195C17.835 15.1317 17.4538 16.1001 16.6943 16.8926L16.6934 16.8916C15.9518 17.6667 15.0031 18.0498 13.8906 18.0498H7.40234C7.09859 18.0498 6.85254 17.8038 6.85254 17.5V4.65234C6.85254 4.34859 7.09859 4.10254 7.40234 4.10254H13.1602ZM10.7021 14.6729H13.375C13.6397 14.6729 13.8205 14.5936 13.9629 14.4561C14.1265 14.2699 14.2002 14.0746 14.2002 13.8477C14.2002 13.6176 14.1268 13.4432 13.9746 13.291C13.9678 13.2842 13.9606 13.2777 13.9541 13.2705C13.8053 13.1052 13.6273 13.0225 13.375 13.0225H10.7021V14.6729ZM10.7021 9.17285H12.9023C13.1324 9.17285 13.3068 9.09949 13.459 8.94727C13.6523 8.75397 13.7275 8.56064 13.7275 8.34766C13.7275 8.13728 13.6546 7.96915 13.4795 7.81152C13.4652 7.79862 13.4514 7.78484 13.4385 7.77051C13.2808 7.59539 13.1127 7.52246 12.9023 7.52246H10.7021V9.17285Z" stroke="currentColor" stroke-width="1.1" stroke-linecap="round" stroke-linejoin="round"/> </svg>