<svg width="24" height="24" viewBox="0 0 24 24" fill="none" xmlns="http://www.w3.org/2000/svg"> <path d="M17.2852 14.0195C17.2852 12.5299 16.6263 11.4844 15.3086 10.8828C16.3112 10.224 16.8125 9.37891 16.8125 8.34766C16.8125 7.31641 16.4544 6.44271 15.7383 5.72656C15.0508 5.01042 14.1914 4.65234 13.1602 4.65234V3.55273C14.4779 3.55273 15.6284 4.02339 16.5322 4.96484C17.4485 5.8888 17.9121 7.03804 17.9121 8.34766C17.9121 9.27389 17.614 10.0787 17.0791 10.7539C17.3229 10.9848 17.5396 11.2424 17.7217 11.5312C18.1826 12.2627 18.3848 13.1101 18.3848 14.0195C18.3848 15.2697 17.9505 16.3742 17.0908 17.2715C16.2378 18.1632 15.1419 18.5996 13.8906 18.5996H7.40234C6.79483 18.5996 6.30273 18.1075 6.30273 17.5V4.65234C6.30273 4.04483 6.79483 3.55273 7.40234 3.55273H13.1602V4.65234H7.40234V17.5H13.8906C14.8646 17.5 15.6667 17.1706 16.2969 16.5117C16.9557 15.8242 17.2852 14.9935 17.2852 14.0195ZM13.6504 13.8477C13.6504 13.76 13.6326 13.7263 13.5859 13.6797C13.5724 13.6662 13.5587 13.6529 13.5459 13.6387C13.5147 13.604 13.4944 13.5932 13.4844 13.5889C13.4733 13.5841 13.4422 13.5723 13.375 13.5723H11.252V14.123H13.375V15.2227H10.1523V12.4727H13.375C13.776 12.4727 14.1055 12.6159 14.3633 12.9023C14.6211 13.1602 14.75 13.4753 14.75 13.8477C14.75 14.2201 14.6211 14.5495 14.3633 14.8359C14.1055 15.0938 13.776 15.2227 13.375 15.2227V14.123C13.4833 14.123 13.5314 14.1021 13.5615 14.0791C13.6303 13.9964 13.6504 13.9315 13.6504 13.8477ZM13.1777 8.34766C13.1777 8.30663 13.1708 8.2912 13.1689 8.28711C13.1667 8.28222 13.1549 8.2589 13.1113 8.21973C13.0829 8.19414 13.0559 8.16708 13.0303 8.13867C12.9911 8.09515 12.9678 8.08328 12.9629 8.08105C12.9588 8.07919 12.9434 8.07227 12.9023 8.07227H11.252V8.62305H12.9023V9.72266H10.1523V6.97266H12.9023C13.2747 6.97266 13.5898 7.11589 13.8477 7.40234C14.1341 7.66016 14.2773 7.97526 14.2773 8.34766C14.2773 8.72005 14.1341 9.04948 13.8477 9.33594C13.5898 9.59375 13.2747 9.72266 12.9023 9.72266V8.62305C12.99 8.62305 13.0237 8.60523 13.0703 8.55859C13.1705 8.45845 13.1777 8.40123 13.1777 8.34766Z" fill="currentColor"/> </svg>