<svg width="24" height="24" viewBox="0 0 24 24" fill="none" xmlns="http://www.w3.org/2000/svg"> <path d="M12.4849 2.57808C12.6633 2.35999 12.9597 2.27729 13.2251 2.37203C13.4903 2.46687 13.6675 2.71832 13.6675 2.99996V9.33296H20.0005C20.2581 9.33296 20.4927 9.48202 20.603 9.7148C20.7132 9.94751 20.6792 10.2226 20.5161 10.4218L11.5161 21.4218C11.3377 21.6399 11.0413 21.7226 10.7759 21.6279C10.5107 21.533 10.3335 21.2816 10.3335 21V14.6669H4.00051C3.74291 14.6669 3.50828 14.5179 3.39797 14.2851C3.28783 14.0524 3.32184 13.7774 3.48488 13.5781L12.4849 2.57808ZM5.40676 13.333H11.0005C11.3687 13.333 11.6675 13.6318 11.6675 14V19.1318L18.5943 10.6669H13.0005C12.6323 10.6669 12.3335 10.3681 12.3335 9.99996V4.86714L5.40676 13.333Z" fill="currentColor"/> </svg>