<svg width="24" height="24" viewBox="0 0 24 24" fill="none" xmlns="http://www.w3.org/2000/svg"> <path d="M12 2.29785C14.6661 2.29785 16.9533 3.25791 18.8311 5.16309L19.1777 5.51953C20.8567 7.32906 21.7021 9.49773 21.7021 12C21.7021 14.6687 20.7404 16.9706 18.834 18.877C16.9544 20.7566 14.6661 21.7021 12 21.7021C9.3341 21.7021 7.03303 20.7567 5.12598 18.8799L5.12012 18.874C3.24333 16.967 2.29785 14.6659 2.29785 12C2.29785 9.33389 3.24344 7.04562 5.12305 5.16602C7.02944 3.25963 9.33127 2.29785 12 2.29785ZM12.3887 11.0996C12.1739 11.3144 11.8261 11.3144 11.6113 11.0996L8.69141 8.17969L8.17969 8.69141L11.0996 11.6113C11.3144 11.8261 11.3144 12.1739 11.0996 12.3887L8.17969 15.3086L8.69141 15.8203L11.6113 12.9004L11.6973 12.8301C11.9108 12.6889 12.2007 12.7124 12.3887 12.9004L15.3086 15.8203L15.8203 15.3086L12.9004 12.3887C12.6856 12.1739 12.6856 11.8261 12.9004 11.6113L15.8203 8.69141L15.3086 8.17969L12.3887 11.0996Z" stroke="currentColor" stroke-width="1.1" stroke-linecap="round" stroke-linejoin="round"/> </svg>