<svg width="24" height="24" viewBox="0 0 24 24" fill="none" xmlns="http://www.w3.org/2000/svg"> <path d="M21.1523 12C21.1523 9.47917 20.25 7.33073 18.4453 5.55469C16.6693 3.75 14.5208 2.84766 12 2.84766C9.47917 2.84766 7.31641 3.75 5.51172 5.55469C3.73568 7.33073 2.84766 9.47917 2.84766 12C2.84766 14.5208 3.73568 16.6836 5.51172 18.4883C7.31641 20.2643 9.47917 21.1523 12 21.1523C14.5208 21.1523 16.6693 20.2643 18.4453 18.4883C20.25 16.6836 21.1523 14.5208 21.1523 12ZM16.5977 8.69141L13.2891 12L16.5977 15.3086L15.3086 16.5977L12 13.2891L8.69141 16.5977L7.40234 15.3086L10.7109 12L7.40234 8.69141L8.69141 7.40234L12 10.7109L15.3086 7.40234L16.5977 8.69141ZM12.208 11.791C12.0703 11.8174 11.9287 11.8175 11.791 11.791C11.8175 11.9287 11.8174 12.0703 11.791 12.208C11.9285 12.1816 12.0705 12.1817 12.208 12.208C12.1817 12.0705 12.1816 11.9285 12.208 11.791ZM22.252 12C22.252 14.8166 21.2307 17.2575 19.2227 19.2656C17.2395 21.2488 14.8114 22.252 12 22.252C9.1891 22.252 6.74963 21.2499 4.74023 19.2725C4.73605 19.2683 4.73165 19.2639 4.72754 19.2598C2.7501 17.2504 1.74805 14.8109 1.74805 12C1.74805 9.18862 2.7512 6.76052 4.73438 4.77734C6.74247 2.76925 9.18337 1.74805 12 1.74805C14.8112 1.74805 17.2373 2.76515 19.2168 4.77051C21.2305 6.75229 22.252 9.1829 22.252 12Z" fill="currentColor"/> </svg>