<svg width="24" height="24" viewBox="0 0 24 24" fill="none" xmlns="http://www.w3.org/2000/svg"> <path d="M18 2.75C18.4142 2.75 18.75 3.08579 18.75 3.5V14.5C18.75 14.9142 18.4142 15.25 18 15.25H12.75V15.75H19C19.4142 15.75 19.75 16.0858 19.75 16.5C19.75 16.9142 19.4142 17.25 19 17.25H13.6533L16.0645 20.0059C16.3372 20.3175 16.3057 20.7917 15.9941 21.0645C15.6825 21.3372 15.2083 21.3057 14.9355 20.9941L12 17.6387L9.06445 20.9941C8.79167 21.3057 8.31754 21.3372 8.00586 21.0645C7.69426 20.7917 7.66283 20.3175 7.93555 20.0059L10.3467 17.25H5C4.58579 17.25 4.25 16.9142 4.25 16.5C4.25 16.0858 4.58579 15.75 5 15.75H11.25V15.25H6C5.58579 15.25 5.25 14.9142 5.25 14.5V3.5C5.25 3.08579 5.58579 2.75 6 2.75H18ZM6.75 13.75H17.25V4.25H6.75V13.75ZM15.4307 7.01172C15.7003 6.69737 16.1738 6.66114 16.4883 6.93066C16.8026 7.20025 16.8389 7.67384 16.5693 7.98828L13.5693 11.4883C13.4334 11.6468 13.237 11.741 13.0283 11.749C12.8197 11.7569 12.6173 11.6779 12.4697 11.5303L11 10.0605L9.03027 12.0303C8.73738 12.3232 8.26262 12.3232 7.96973 12.0303C7.67683 11.7374 7.67683 11.2626 7.96973 10.9697L10.4697 8.46973L10.5264 8.41797C10.8209 8.17766 11.2557 8.19512 11.5303 8.46973L12.957 9.89648L15.4307 7.01172Z" fill="currentColor"/> </svg>