<svg width="24" height="24" viewBox="0 0 24 24" fill="none" xmlns="http://www.w3.org/2000/svg"> <path d="M12.5 4.75C12.6989 4.75 12.8896 4.82907 13.0303 4.96973L19.5303 11.4697C19.8232 11.7626 19.8232 12.2374 19.5303 12.5303L13.0303 19.0303C12.7374 19.3232 12.2626 19.3232 11.9697 19.0303L4.46973 11.5303C4.32907 11.3896 4.25 11.1989 4.25 11V5.5C4.25 5.08579 4.58579 4.75 5 4.75H12.5ZM5.75 10.6895L12.5 17.4395L17.9395 12L12.1895 6.25H5.75V10.6895ZM8.50977 7.25C8.92398 7.25 9.25977 7.58579 9.25977 8C9.25977 8.41421 8.92398 8.75 8.50977 8.75H8.5C8.08579 8.75 7.75 8.41421 7.75 8C7.75 7.58579 8.08579 7.25 8.5 7.25H8.50977Z" fill="currentColor"/> </svg>