<svg width="15" height="15" viewBox="0 0 15 15" fill="none" xmlns="http://www.w3.org/2000/svg">
<path d="M14.625 7.3125C14.625 5.86623 14.1961 4.45243 13.3926 3.2499C12.5891 2.04736 11.4471 1.1101 10.1109 0.556634C8.77469 0.00316814 7.30439 -0.141644 5.8859 0.140511C4.46742 0.422665 3.16445 1.11911 2.14178 2.14178C1.11911 3.16446 0.422663 4.46742 0.140507 5.8859C-0.141647 7.30439 0.00316486 8.77469 0.556631 10.1109C1.1101 11.4471 2.04736 12.5891 3.24989 13.3926C4.45243 14.1961 5.86622 14.625 7.3125 14.625C9.25127 14.623 11.11 13.8519 12.481 12.481C13.8519 11.11 14.623 9.25127 14.625 7.3125ZM8.03953 10.523L5.22703 7.71047C5.17473 7.65823 5.13324 7.59619 5.10493 7.52791C5.07663 7.45962 5.06206 7.38642 5.06206 7.3125C5.06206 7.23858 5.07663 7.16539 5.10493 7.0971C5.13324 7.02881 5.17473 6.96678 5.22703 6.91453L8.03953 4.10203C8.14508 3.99649 8.28823 3.93719 8.4375 3.93719C8.58677 3.93719 8.72992 3.99649 8.83547 4.10203C8.94102 4.20758 9.00031 4.35074 9.00031 4.5C9.00031 4.64927 8.94102 4.79242 8.83547 4.89797L6.42023 7.3125L8.83547 9.72703C8.88773 9.7793 8.92919 9.84134 8.95747 9.90962C8.98576 9.97791 9.00031 10.0511 9.00031 10.125C9.00031 10.1989 8.98575 10.2721 8.95747 10.3404C8.92919 10.4087 8.88773 10.4707 8.83547 10.523C8.78321 10.5752 8.72116 10.6167 8.65288 10.645C8.5846 10.6733 8.51141 10.6878 8.4375 10.6878C8.36359 10.6878 8.2904 10.6733 8.22212 10.645C8.15384 10.6167 8.09179 10.5752 8.03953 10.523Z" fill="currentColor"/>
</svg>
