<svg width="24" height="24" viewBox="0 0 24 24" fill="none" xmlns="http://www.w3.org/2000/svg"> <path d="M17.5 15.6523V19.3477H21.1523V15.6523H17.5ZM16.752 14.8477C16.7896 14.8127 16.8289 14.7795 16.8711 14.75C16.8287 14.7204 16.7897 14.6865 16.752 14.6514V14.8477ZM16.752 9.34766C16.7896 9.31267 16.8289 9.27949 16.8711 9.25C16.8287 9.22038 16.7897 9.18653 16.752 9.15137V9.34766ZM17.5 10.1523V13.8477H21.1523V10.1523H17.5ZM17.5 4.65234V8.34766H21.1523V4.65234H17.5ZM2.84766 19.3477H15.6523V4.65234H2.84766V19.3477ZM22.252 8.34766C22.252 8.72155 22.0654 9.05124 21.7803 9.25C22.0654 9.44876 22.252 9.77845 22.252 10.1523V13.8477C22.252 14.2215 22.0654 14.5512 21.7803 14.75C22.0654 14.9488 22.252 15.2785 22.252 15.6523V19.3477C22.252 19.9552 21.7599 20.4473 21.1523 20.4473H17.5C17.1122 20.4473 16.7721 20.2465 16.5762 19.9434C16.3803 20.2465 16.0401 20.4473 15.6523 20.4473H2.84766C2.24014 20.4473 1.74805 19.9552 1.74805 19.3477V4.65234C1.74805 4.04483 2.24014 3.55273 2.84766 3.55273H15.6523C16.0401 3.55273 16.3803 3.75349 16.5762 4.05664C16.7721 3.75349 17.1122 3.55273 17.5 3.55273H21.1523C21.7599 3.55273 22.252 4.04483 22.252 4.65234V8.34766Z" fill="currentColor"/> </svg>