<svg width="24" height="24" viewBox="0 0 24 24" fill="none" xmlns="http://www.w3.org/2000/svg"> <path d="M15.6523 4.10254C15.9561 4.10254 16.2021 4.34859 16.2021 4.65234V19.3477C16.2021 19.6514 15.9561 19.8975 15.6523 19.8975H2.84766C2.5439 19.8975 2.29785 19.6514 2.29785 19.3477V4.65234C2.29785 4.34859 2.5439 4.10254 2.84766 4.10254H15.6523ZM21.1523 15.1025C21.4561 15.1025 21.7021 15.3486 21.7021 15.6523V19.3477C21.7021 19.6514 21.4561 19.8975 21.1523 19.8975H17.5C17.1962 19.8975 16.9502 19.6514 16.9502 19.3477V15.6523C16.9502 15.3486 17.1962 15.1025 17.5 15.1025H21.1523ZM21.1523 9.60254C21.4561 9.60254 21.7021 9.84859 21.7021 10.1523V13.8477C21.7021 14.1514 21.4561 14.3975 21.1523 14.3975H17.5C17.1962 14.3975 16.9502 14.1514 16.9502 13.8477V10.1523C16.9502 9.84859 17.1962 9.60254 17.5 9.60254H21.1523ZM21.1523 4.10254C21.4561 4.10254 21.7021 4.34859 21.7021 4.65234V8.34766C21.7021 8.65141 21.4561 8.89746 21.1523 8.89746H17.5C17.1962 8.89746 16.9502 8.65141 16.9502 8.34766V4.65234C16.9502 4.34859 17.1962 4.10254 17.5 4.10254H21.1523Z" stroke="currentColor" stroke-width="1.1" stroke-linecap="round" stroke-linejoin="round"/> </svg>