<svg width="24" height="24" viewBox="0 0 24 24" fill="none" xmlns="http://www.w3.org/2000/svg"> <path d="M13.75 11.25C13.75 8.62664 11.6234 6.5 9 6.5C6.37664 6.5 4.25 8.62664 4.25 11.25C4.25 13.8734 6.37664 16 9 16C11.6234 16 13.75 13.8734 13.75 11.25ZM18.5 3C18.7759 3 19.0293 3.1516 19.1602 3.39453L19.7529 4.49609L20.8555 5.08984C21.0984 5.22065 21.25 5.47409 21.25 5.75C21.25 6.02591 21.0984 6.27935 20.8555 6.41016L19.7529 7.00293L19.1602 8.10547C19.0293 8.3484 18.7759 8.5 18.5 8.5C18.2241 8.5 17.9707 8.3484 17.8398 8.10547L17.2461 7.00293L16.1445 6.41016C15.9016 6.27935 15.75 6.02591 15.75 5.75C15.75 5.47409 15.9016 5.22065 16.1445 5.08984L17.2461 4.49609L17.8398 3.39453L17.8945 3.30762C18.0345 3.116 18.2587 3 18.5 3ZM18.46 5.40527C18.3904 5.5345 18.2845 5.64038 18.1553 5.70996L18.0801 5.75L18.1553 5.79004L18.248 5.84863C18.3356 5.91383 18.4078 5.99787 18.46 6.09473L18.5 6.16895L18.54 6.09473L18.5986 6.00195C18.6638 5.91444 18.7479 5.84219 18.8447 5.79004L18.9189 5.75L18.8447 5.70996C18.7155 5.64038 18.6096 5.5345 18.54 5.40527L18.5 5.33008L18.46 5.40527ZM15.25 11.25C15.25 12.7055 14.7503 14.0432 13.916 15.1055L18.5303 19.7197C18.8232 20.0126 18.8232 20.4874 18.5303 20.7803C18.2374 21.0732 17.7626 21.0732 17.4697 20.7803L12.8555 16.166C11.7932 17.0003 10.4555 17.5 9 17.5C5.54822 17.5 2.75 14.7018 2.75 11.25C2.75 7.79822 5.54822 5 9 5C12.4518 5 15.25 7.79822 15.25 11.25Z" fill="currentColor"/> </svg>