<svg width="24" height="24" viewBox="0 0 24 24" fill="none" xmlns="http://www.w3.org/2000/svg"> <path d="M19.3477 2.29785C19.9802 2.29785 20.5277 2.543 20.9658 3.00195H20.9668C20.972 3.00677 20.9763 3.01274 20.9814 3.01758C20.9866 3.02307 20.9929 3.02765 20.998 3.0332H20.9971C21.4567 3.4715 21.7021 4.01931 21.7021 4.65234V21.1523C21.7021 21.3746 21.5685 21.5749 21.3633 21.6602C21.1578 21.7453 20.921 21.6983 20.7637 21.541L17.2725 18.0498H4.65234C4.00688 18.0498 3.44088 17.7963 2.97461 17.3301C2.96943 17.3249 2.96396 17.3198 2.95898 17.3145C2.52571 16.845 2.29785 16.2836 2.29785 15.6523V4.65234C2.29785 4.01978 2.52751 3.46467 2.97461 3.01758C3.44088 2.55131 4.00688 2.29785 4.65234 2.29785H19.3477ZM7.0498 13.2979H16.9502V12.5498H7.0498V13.2979ZM7.0498 10.5479H16.9502V9.7998H7.0498V10.5479ZM7.0498 7.79785H16.9502V7.0498H7.0498V7.79785Z" stroke="currentColor" stroke-width="1.1" stroke-linecap="round" stroke-linejoin="round"/> </svg>