<svg width="24" height="24" viewBox="0 0 24 24" fill="none" xmlns="http://www.w3.org/2000/svg"> <path d="M21.1523 4.65234C21.1523 4.16536 20.9661 3.75 20.5938 3.40625C20.25 3.03385 19.8346 2.84766 19.3477 2.84766V1.74805C20.1257 1.74805 20.805 2.05144 21.3389 2.59863L21.3398 2.59766L21.4023 2.66016L21.4014 2.66113C21.9486 3.19495 22.252 3.87431 22.252 4.65234V21.1523C22.252 21.5973 21.9843 21.9987 21.5732 22.1689C21.1622 22.3391 20.6896 22.2442 20.375 21.9297L17.0449 18.5996H4.65234C3.8484 18.5996 3.14607 18.2789 2.58594 17.7188C2.57557 17.7084 2.56463 17.6983 2.55469 17.6875C2.03188 17.1211 1.74805 16.4279 1.74805 15.6523V4.65234C1.74805 3.8742 2.03549 3.17935 2.58594 2.62891C3.14607 2.06877 3.8484 1.74805 4.65234 1.74805V2.84766C4.16536 2.84766 3.73568 3.03385 3.36328 3.40625C3.01953 3.75 2.84766 4.16536 2.84766 4.65234V15.6523C2.84766 16.1393 3.01953 16.569 3.36328 16.9414C3.73568 17.3138 4.16536 17.5 4.65234 17.5H17.5L21.1523 21.1523V4.65234ZM17.5 12V13.8477H6.5V12H17.5ZM17.5 9.25V11.0977H6.5V9.25H17.5ZM17.5 6.5V8.34766H6.5V6.5H17.5ZM19.3477 1.74805V2.84766H4.65234V1.74805H19.3477Z" fill="currentColor"/> </svg>