<svg width="24" height="24" viewBox="0 0 24 24" fill="none" xmlns="http://www.w3.org/2000/svg">
<path d="M14.3975 6.5C14.3975 7.14546 14.144 7.71147 13.6777 8.17773C13.2115 8.644 12.6455 8.89746 12 8.89746C11.3545 8.89746 10.7885 8.644 10.3223 8.17773C9.856 7.71147 9.60254 7.14546 9.60254 6.5C9.60254 5.85454 9.856 5.28853 10.3223 4.82227C10.7885 4.356 11.3545 4.10254 12 4.10254C12.6455 4.10254 13.2115 4.356 13.6777 4.82227C14.144 5.28853 14.3975 5.85454 14.3975 6.5ZM14.3975 12C14.3975 12.6455 14.144 13.2115 13.6777 13.6777C13.2115 14.144 12.6455 14.3975 12 14.3975C11.3545 14.3975 10.7885 14.144 10.3223 13.6777C9.856 13.2115 9.60254 12.6455 9.60254 12C9.60254 11.3545 9.856 10.7885 10.3223 10.3223C10.7885 9.856 11.3545 9.60254 12 9.60254C12.6455 9.60254 13.2115 9.856 13.6777 10.3223C14.144 10.7885 14.3975 11.3545 14.3975 12ZM14.3975 17.5C14.3975 18.1455 14.144 18.7115 13.6777 19.1777C13.2115 19.644 12.6455 19.8975 12 19.8975C11.3545 19.8975 10.7885 19.644 10.3223 19.1777C9.856 18.7115 9.60254 18.1455 9.60254 17.5C9.60254 16.8545 9.856 16.2885 10.3223 15.8223C10.7885 15.356 11.3545 15.1025 12 15.1025C12.6455 15.1025 13.2115 15.356 13.6777 15.8223C14.144 16.2885 14.3975 16.8545 14.3975 17.5Z" stroke="currentColor" stroke-width="1.1" stroke-linecap="round" stroke-linejoin="round"/>
</svg>
