<svg width="24" height="24" viewBox="0 0 24 24" fill="none" xmlns="http://www.w3.org/2000/svg"> <path d="M12 8.34766C12.487 8.34766 12.9167 8.16146 13.2891 7.78906C13.6615 7.41667 13.8477 6.98698 13.8477 6.5C13.8477 6.01302 13.6615 5.58333 13.2891 5.21094C12.9167 4.83854 12.487 4.65234 12 4.65234C11.513 4.65234 11.0833 4.83854 10.7109 5.21094C10.3385 5.58333 10.1523 6.01302 10.1523 6.5C10.1523 6.98698 10.3385 7.41667 10.7109 7.78906C11.0833 8.16146 11.513 8.34766 12 8.34766ZM12 10.1523C11.513 10.1523 11.0833 10.3385 10.7109 10.7109C10.3385 11.0833 10.1523 11.513 10.1523 12C10.1523 12.487 10.3385 12.9167 10.7109 13.2891C11.0833 13.6615 11.513 13.8477 12 13.8477C12.487 13.8477 12.9167 13.6615 13.2891 13.2891C13.6615 12.9167 13.8477 12.487 13.8477 12C13.8477 11.513 13.6615 11.0833 13.2891 10.7109C12.9167 10.3385 12.487 10.1523 12 10.1523ZM12 15.6523C11.513 15.6523 11.0833 15.8385 10.7109 16.2109C10.3385 16.5833 10.1523 17.013 10.1523 17.5C10.1523 17.987 10.3385 18.4167 10.7109 18.7891C11.0833 19.1615 11.513 19.3477 12 19.3477C12.487 19.3477 12.9167 19.1615 13.2891 18.7891C13.6615 18.4167 13.8477 17.987 13.8477 17.5C13.8477 17.013 13.6615 16.5833 13.2891 16.2109C12.9167 15.8385 12.487 15.6523 12 15.6523ZM12 20.4473C11.1961 20.4473 10.4937 20.1265 9.93359 19.5664C9.37346 19.0063 9.05273 18.3039 9.05273 17.5C9.05273 16.6961 9.37346 15.9937 9.93359 15.4336C10.2366 15.1306 10.582 14.9 10.9619 14.75C10.582 14.6 10.2366 14.3694 9.93359 14.0664C9.37346 13.5063 9.05273 12.8039 9.05273 12C9.05273 11.1961 9.37346 10.4937 9.93359 9.93359C10.2366 9.63059 10.582 9.39999 10.9619 9.25C10.582 9.10001 10.2366 8.86941 9.93359 8.56641C9.37346 8.00627 9.05273 7.30394 9.05273 6.5C9.05273 5.69606 9.37346 4.99373 9.93359 4.43359C10.4937 3.87346 11.1961 3.55273 12 3.55273C12.8039 3.55273 13.5063 3.87346 14.0664 4.43359C14.6265 4.99373 14.9473 5.69606 14.9473 6.5C14.9473 7.30394 14.6265 8.00627 14.0664 8.56641C13.7636 8.86919 13.4187 9.09999 13.0391 9.25C13.4187 9.40001 13.7636 9.63081 14.0664 9.93359C14.6265 10.4937 14.9473 11.1961 14.9473 12C14.9473 12.8039 14.6265 13.5063 14.0664 14.0664C13.7636 14.3692 13.4187 14.6 13.0391 14.75C13.4187 14.9 13.7636 15.1308 14.0664 15.4336C14.6265 15.9937 14.9473 16.6961 14.9473 17.5C14.9473 18.3039 14.6265 19.0063 14.0664 19.5664C13.5063 20.1265 12.8039 20.4473 12 20.4473Z" fill="currentColor"/> </svg>