<svg width="24" height="24" viewBox="0 0 24 24" fill="none" xmlns="http://www.w3.org/2000/svg"> <path d="M6.5 9.60254C7.14546 9.60254 7.71147 9.856 8.17773 10.3223C8.644 10.7885 8.89746 11.3545 8.89746 12C8.89746 12.6455 8.644 13.2115 8.17773 13.6777C7.71147 14.144 7.14546 14.3975 6.5 14.3975C5.85454 14.3975 5.28853 14.144 4.82227 13.6777C4.356 13.2115 4.10254 12.6455 4.10254 12C4.10254 11.3545 4.356 10.7885 4.82227 10.3223C5.28853 9.856 5.85454 9.60254 6.5 9.60254ZM12 9.60254C12.6455 9.60254 13.2115 9.856 13.6777 10.3223C14.144 10.7885 14.3975 11.3545 14.3975 12C14.3975 12.6455 14.144 13.2115 13.6777 13.6777C13.2115 14.144 12.6455 14.3975 12 14.3975C11.3545 14.3975 10.7885 14.144 10.3223 13.6777C9.856 13.2115 9.60254 12.6455 9.60254 12C9.60254 11.3545 9.856 10.7885 10.3223 10.3223C10.7885 9.856 11.3545 9.60254 12 9.60254ZM17.5 9.60254C18.1455 9.60254 18.7115 9.856 19.1777 10.3223C19.644 10.7885 19.8975 11.3545 19.8975 12C19.8975 12.6455 19.644 13.2115 19.1777 13.6777C18.7115 14.144 18.1455 14.3975 17.5 14.3975C16.8545 14.3975 16.2885 14.144 15.8223 13.6777C15.356 13.2115 15.1025 12.6455 15.1025 12C15.1025 11.3545 15.356 10.7885 15.8223 10.3223C16.2885 9.856 16.8545 9.60254 17.5 9.60254Z" stroke="currentColor" stroke-width="1.1" stroke-linecap="round" stroke-linejoin="round"/> </svg>