<svg width="24" height="24" viewBox="0 0 24 24" fill="none" xmlns="http://www.w3.org/2000/svg"> <path d="M18.4023 5.04785C19.0404 5.04785 19.6003 5.29593 20.0635 5.75195H20.0645C20.5445 6.19503 20.7998 6.75494 20.7998 7.40234V20.25C20.7998 20.8955 20.5463 21.4615 20.0801 21.9277C19.6138 22.394 19.0478 22.6475 18.4023 22.6475H8.34766C7.70219 22.6475 7.13619 22.394 6.66992 21.9277C6.20366 21.4615 5.9502 20.8955 5.9502 20.25V7.40234C5.9502 6.8358 6.14604 6.33668 6.5166 5.92383L6.68555 5.75195C7.14881 5.29562 7.70941 5.04785 8.34766 5.04785H18.4023ZM8.89746 19.7002H17.8525V7.95215H8.89746V19.7002ZM15.6523 1.35254C15.9561 1.35254 16.2021 1.59859 16.2021 1.90234V3.75L16.1914 3.86133C16.14 4.11175 15.918 4.2998 15.6523 4.2998H5.20215V16.5977C5.20215 16.9014 4.9561 17.1475 4.65234 17.1475H2.84766C2.5439 17.1475 2.29785 16.9014 2.29785 16.5977V3.75C2.29785 3.11871 2.52571 2.55731 2.95898 2.08789L2.97461 2.07227C3.44088 1.606 4.00688 1.35254 4.65234 1.35254H15.6523Z" stroke="currentColor" stroke-width="1.1" stroke-linecap="round" stroke-linejoin="round"/> </svg>