<svg width="24" height="24" viewBox="0 0 24 24" fill="none" xmlns="http://www.w3.org/2000/svg"> <path d="M5.40039 20.25V17.4014C5.20396 17.5843 4.94192 17.6973 4.65234 17.6973H2.84766C2.24014 17.6973 1.74805 17.2052 1.74805 16.5977V3.75C1.74805 2.97441 2.03188 2.28129 2.55469 1.71484L2.58594 1.68359C3.14607 1.12346 3.8484 0.802734 4.65234 0.802734V1.90234C4.16536 1.90234 3.73568 2.08854 3.36328 2.46094C3.01953 2.83333 2.84766 3.26302 2.84766 3.75V16.5977H4.65234V3.75H15.6523V1.90234H4.65234V0.802734H15.6523C16.2599 0.802734 16.752 1.29483 16.752 1.90234V3.75C16.752 4.03957 16.639 4.30162 16.4561 4.49805H18.4023V5.59766H8.34766C7.86068 5.59766 7.43099 5.78385 7.05859 6.15625C6.6862 6.5 6.5 6.91536 6.5 7.40234V20.25C6.5 20.737 6.6862 21.1667 7.05859 21.5391C7.43099 21.9115 7.86068 22.0977 8.34766 22.0977H18.4023C18.8893 22.0977 19.319 21.9115 19.6914 21.5391C20.0638 21.1667 20.25 20.737 20.25 20.25V7.40234C20.25 6.91536 20.0638 6.5 19.6914 6.15625C19.319 5.78385 18.8893 5.59766 18.4023 5.59766V4.49805C19.1911 4.49805 19.8807 4.80803 20.4355 5.34863L20.4375 5.34766C21.0251 5.89007 21.3496 6.59452 21.3496 7.40234V20.25C21.3496 21.0539 21.0289 21.7563 20.4688 22.3164C19.9086 22.8765 19.2063 23.1973 18.4023 23.1973H8.34766C7.54371 23.1973 6.84139 22.8765 6.28125 22.3164C5.72111 21.7563 5.40039 21.0539 5.40039 20.25ZM18.4023 7.40234V20.25H8.34766V7.40234H18.4023ZM9.44727 19.1504H17.3027V8.50195H9.44727V19.1504ZM5.75195 6.04785C5.89711 5.79262 6.08491 5.55774 6.3125 5.34766L6.31348 5.34863C6.51712 5.15012 6.73805 4.98181 6.97656 4.84961H5.75195V6.04785Z" fill="currentColor"/> </svg>