<svg width="24" height="24" viewBox="0 0 24 24" fill="none" xmlns="http://www.w3.org/2000/svg"> <path d="M1.74805 17.5V6.5C1.74805 5.72689 2.01409 5.02538 2.55664 4.4668L2.55469 4.46484C3.11076 3.86243 3.83579 3.55273 4.65234 3.55273V4.65234C4.13672 4.65234 3.70703 4.83854 3.36328 5.21094C3.01953 5.55469 2.84766 5.98438 2.84766 6.5V17.5C2.84766 18.0156 3.01953 18.4596 3.36328 18.832C3.70703 19.1758 4.13672 19.3477 4.65234 19.3477H19.3477C19.8633 19.3477 20.293 19.1758 20.6367 18.832C20.9805 18.4596 21.1523 18.0156 21.1523 17.5V8.34766C21.1523 7.83203 20.9805 7.40234 20.6367 7.05859C20.293 6.6862 19.8633 6.5 19.3477 6.5V5.40039C20.1642 5.40039 20.8892 5.71009 21.4453 6.3125L21.4434 6.31348C21.9862 6.87214 22.252 7.57431 22.252 8.34766V17.5C22.252 18.2867 21.9801 18.9987 21.4453 19.5781C21.4354 19.5889 21.4244 19.599 21.4141 19.6094C20.8505 20.1729 20.1354 20.4473 19.3477 20.4473H4.65234C3.86462 20.4473 3.14946 20.1729 2.58594 19.6094C2.57557 19.599 2.56463 19.5889 2.55469 19.5781C2.01988 18.9987 1.74805 18.2867 1.74805 17.5ZM13.8477 13.8477H11.0977V12H13.8477V9.25H15.6523V12H18.4023V13.8477H15.6523V16.5977H13.8477V13.8477ZM14.75 12.6279C14.668 12.7455 14.5639 12.846 14.4434 12.9238C14.5637 13.0016 14.6681 13.1015 14.75 13.2188C14.8317 13.1017 14.9357 13.0015 15.0557 12.9238C14.9354 12.846 14.8318 12.7453 14.75 12.6279ZM10.1523 3.55273C10.4441 3.55273 10.7234 3.66871 10.9297 3.875L12.4551 5.40039H19.3477V6.5H12L10.1523 4.65234H4.65234V3.55273H10.1523Z" fill="currentColor"/> </svg>