<svg width="24" height="24" viewBox="0 0 24 24" fill="none" xmlns="http://www.w3.org/2000/svg"> <path d="M10.1523 4.10254C10.2982 4.10254 10.4379 4.16053 10.541 4.26367L12.2275 5.9502H19.3477C20.0137 5.9502 20.5911 6.19814 21.041 6.68555H21.04C21.4835 7.13675 21.7021 7.70324 21.7021 8.34766V17.5C21.7021 18.1512 21.4803 18.7292 21.041 19.2051C21.036 19.2105 21.0306 19.2155 21.0254 19.2207C20.5718 19.6743 19.9993 19.8975 19.3477 19.8975H4.65234C4.00067 19.8975 3.42825 19.6743 2.97461 19.2207C2.96943 19.2155 2.96396 19.2105 2.95898 19.2051C2.51971 18.7292 2.29785 18.1512 2.29785 17.5V6.5C2.29785 5.85582 2.5158 5.28901 2.95898 4.83789L3.13379 4.66602C3.55475 4.29211 4.0696 4.10254 4.65234 4.10254H10.1523ZM14.3975 12C14.3975 12.3038 14.1514 12.5498 13.8477 12.5498H11.6475V13.2979H13.8477C14.1514 13.2979 14.3975 13.5439 14.3975 13.8477V16.0479H15.1025V13.8477C15.1025 13.5439 15.3486 13.2979 15.6523 13.2979H17.8525V12.5498H15.6523C15.3486 12.5498 15.1025 12.3038 15.1025 12V9.7998H14.3975V12Z" stroke="currentColor" stroke-width="1.1" stroke-linecap="round" stroke-linejoin="round"/> </svg>