<svg width="24" height="24" viewBox="0 0 24 24" fill="none" xmlns="http://www.w3.org/2000/svg"> <path d="M6.75 16V13C6.75 12.0335 7.53352 11.25 8.5 11.25H9.5C9.91421 11.25 10.25 11.5858 10.25 12C10.25 12.4142 9.91421 12.75 9.5 12.75H8.5C8.36192 12.75 8.25 12.8619 8.25 13V16C8.25 16.1381 8.36192 16.25 8.5 16.25H9.5C9.91421 16.25 10.25 16.5858 10.25 17C10.25 17.4142 9.91421 17.75 9.5 17.75H8.5C7.53352 17.75 6.75 16.9665 6.75 16ZM13.5 11.25C13.9142 11.25 14.25 11.5858 14.25 12C14.25 12.4142 13.9142 12.75 13.5 12.75H12.25V13.75H13.5C13.9142 13.75 14.25 14.0858 14.25 14.5V17C14.25 17.4142 13.9142 17.75 13.5 17.75H11.5C11.0858 17.75 10.75 17.4142 10.75 17C10.75 16.5858 11.0858 16.25 11.5 16.25H12.75V15.25H11.5C11.0858 15.25 10.75 14.9142 10.75 14.5V12C10.75 11.5858 11.0858 11.25 11.5 11.25H13.5ZM14.25 7.25H16.6895L14.25 4.81055V7.25ZM19.25 20C19.25 20.9665 18.4665 21.75 17.5 21.75H6.5C5.53352 21.75 4.75 20.9665 4.75 20V4C4.75 3.78464 4.79115 3.57921 4.8623 3.38867C4.79284 3.27495 4.75 3.14301 4.75 3C4.75 2.58579 5.08579 2.25 5.5 2.25H13.5C13.6989 2.25 13.8896 2.32907 14.0303 2.46973L19.0303 7.46973C19.1709 7.61038 19.25 7.80109 19.25 8V20ZM6.25 20C6.25 20.1381 6.36192 20.25 6.5 20.25H17.5C17.6381 20.25 17.75 20.1381 17.75 20V15.4443L17.2188 17.2158C17.1235 17.533 16.8311 17.75 16.5 17.75C16.1689 17.75 15.8765 17.533 15.7812 17.2158L14.2812 12.2158C14.1622 11.8191 14.3875 11.4003 14.7842 11.2812C15.1809 11.1622 15.5997 11.3875 15.7188 11.7842L16.5 14.3877L17.2812 11.7842C17.3527 11.5463 17.5327 11.3722 17.75 11.2949V8.75H13.5C13.0858 8.75 12.75 8.41421 12.75 8V3.75H6.5C6.36193 3.75 6.25 3.86193 6.25 4V20Z" fill="currentColor"/> </svg>