<svg width="24" height="24" viewBox="0 0 24 24" fill="none" xmlns="http://www.w3.org/2000/svg"> <path d="M10.1523 6.5C10.1523 5.4974 9.79427 4.63802 9.07812 3.92188C8.36198 3.20573 7.5026 2.84766 6.5 2.84766C5.4974 2.84766 4.63802 3.20573 3.92188 3.92188C3.20573 4.63802 2.84766 5.4974 2.84766 6.5C2.84766 7.5026 3.20573 8.36198 3.92188 9.07812C4.63802 9.79427 5.4974 10.1523 6.5 10.1523C7.07292 10.1523 7.57422 10.0521 8.00391 9.85156L10.1523 12L8.00391 14.1484C7.57422 13.9479 7.07292 13.8477 6.5 13.8477C5.4974 13.8477 4.63802 14.2057 3.92188 14.9219C3.20573 15.638 2.84766 16.4974 2.84766 17.5C2.84766 18.5026 3.20573 19.362 3.92188 20.0781C4.63802 20.7943 5.4974 21.1523 6.5 21.1523C7.5026 21.1523 8.36198 20.7943 9.07812 20.0781C9.79427 19.362 10.1523 18.5026 10.1523 17.5C10.1523 16.9271 10.0521 16.4258 9.85156 15.9961L12 13.8477L18.4023 20.25H21.1523V19.3477L9.85156 8.00391C10.0521 7.57422 10.1523 7.07292 10.1523 6.5ZM7.24805 17.5C7.24805 17.2854 7.18523 17.1509 7.04297 17.0195C7.0322 17.0096 7.02208 16.9986 7.01172 16.9883C6.82706 16.8036 6.67001 16.752 6.5 16.752C6.32999 16.752 6.17294 16.8036 5.98828 16.9883C5.97792 16.9986 5.9678 17.0096 5.95703 17.0195C5.81477 17.1509 5.75195 17.2854 5.75195 17.5C5.75195 17.7092 5.81394 17.8705 5.97168 18.0352C6.14485 18.1903 6.30679 18.248 6.5 18.248V19.3477C6.01302 19.3477 5.58333 19.1758 5.21094 18.832C4.83854 18.4596 4.65234 18.0156 4.65234 17.5C4.65234 16.9844 4.83854 16.5547 5.21094 16.2109C5.58333 15.8385 6.01302 15.6523 6.5 15.6523C6.98698 15.6523 7.41667 15.8385 7.78906 16.2109C8.16146 16.5547 8.34766 16.9844 8.34766 17.5C8.34766 18.0156 8.16146 18.4596 7.78906 18.832C7.41667 19.1758 6.98698 19.3477 6.5 19.3477V18.248C6.69301 18.248 6.85438 18.1899 7.02734 18.0352C7.18543 17.8703 7.24805 17.7094 7.24805 17.5ZM12.4502 12.1719L11.8291 11.5479C11.8798 11.5351 11.9365 11.5273 12 11.5273C12.3151 11.5273 12.4727 11.6849 12.4727 12C12.4727 12.0641 12.4632 12.1208 12.4502 12.1719ZM18.4023 3.75L12.9023 9.25L14.75 11.0977L21.1523 4.65234V3.75H18.4023ZM7.24805 6.5C7.24805 6.28539 7.18523 6.15091 7.04297 6.01953C7.0322 6.00959 7.02208 5.99865 7.01172 5.98828C6.82706 5.80363 6.67001 5.75195 6.5 5.75195C6.32999 5.75195 6.17294 5.80363 5.98828 5.98828C5.97792 5.99865 5.9678 6.00959 5.95703 6.01953C5.81477 6.15091 5.75195 6.28539 5.75195 6.5C5.75195 6.70924 5.81395 6.87047 5.97168 7.03516C6.14485 7.1903 6.30679 7.24805 6.5 7.24805V8.34766C6.01302 8.34766 5.58333 8.17578 5.21094 7.83203C4.83854 7.45964 4.65234 7.01562 4.65234 6.5C4.65234 5.98438 4.83854 5.55469 5.21094 5.21094C5.58333 4.83854 6.01302 4.65234 6.5 4.65234C6.98698 4.65234 7.41667 4.83854 7.78906 5.21094C8.16146 5.55469 8.34766 5.98438 8.34766 6.5C8.34766 7.01562 8.16146 7.45964 7.78906 7.83203C7.41667 8.17578 6.98698 8.34766 6.5 8.34766V7.24805C6.69301 7.24805 6.85438 7.18993 7.02734 7.03516C7.18543 6.8703 7.24805 6.70944 7.24805 6.5ZM11.252 6.5C11.252 6.91786 11.2072 7.32295 11.1123 7.70996L12.0078 8.61035C12.0425 8.56203 12.0816 8.51608 12.125 8.47266L17.625 2.97266L17.7051 2.89941C17.9009 2.73892 18.147 2.65039 18.4023 2.65039H21.1523C21.7599 2.65039 22.252 3.14249 22.252 3.75V4.65234C22.252 4.94281 22.1373 5.22166 21.9326 5.42773L15.5303 11.873C15.4845 11.9191 15.4342 11.9593 15.3818 11.9961L21.9316 18.5713C22.137 18.7775 22.252 19.0566 22.252 19.3477V20.25C22.252 20.8575 21.7599 21.3496 21.1523 21.3496H18.4023C18.1106 21.3496 17.8313 21.2336 17.625 21.0273L12 15.4023L11.1123 16.2891C11.2073 16.6763 11.252 17.0818 11.252 17.5C11.252 18.7977 10.7756 19.9354 9.85547 20.8555C8.93539 21.7756 7.79766 22.252 6.5 22.252C5.20234 22.252 4.06461 21.7756 3.14453 20.8555C2.22445 19.9354 1.74805 18.7977 1.74805 17.5C1.74805 16.2023 2.22445 15.0646 3.14453 14.1445C4.06461 13.2245 5.20234 12.748 6.5 12.748C6.91778 12.748 7.32302 12.7919 7.70996 12.8867L8.59766 12L7.70996 11.1123C7.32295 11.2072 6.91786 11.252 6.5 11.252C5.20234 11.252 4.06461 10.7755 3.14453 9.85547C2.22445 8.93539 1.74805 7.79766 1.74805 6.5C1.74805 5.20234 2.22445 4.06461 3.14453 3.14453C4.06461 2.22445 5.20234 1.74805 6.5 1.74805C7.79766 1.74805 8.93539 2.22445 9.85547 3.14453C10.7755 4.06461 11.252 5.20234 11.252 6.5Z" fill="currentColor"/> </svg>