<svg width="24" height="24" viewBox="0 0 24 24" fill="none" xmlns="http://www.w3.org/2000/svg"> <path d="M12 11.9385C12.0105 11.9453 12.0224 11.954 12.0342 11.9658C12.046 11.9776 12.0547 11.9895 12.0615 12C12.0547 12.0105 12.046 12.0224 12.0342 12.0342C12.0224 12.046 12.0105 12.0547 12 12.0615C11.9895 12.0547 11.9776 12.046 11.9658 12.0342C11.954 12.0224 11.9453 12.0105 11.9385 12C11.9453 11.9895 11.954 11.9776 11.9658 11.9658C11.9776 11.954 11.9895 11.9453 12 11.9385ZM12 12.0615V11.9385M12 12.0615V11.9385M6.5 16.2021C6.1715 16.2021 5.87814 16.3211 5.59961 16.5996C5.59443 16.6048 5.58937 16.6103 5.58398 16.6152C5.32665 16.8528 5.20215 17.1349 5.20215 17.5C5.20215 17.8617 5.32518 18.1635 5.58984 18.4326C5.86366 18.6833 6.15965 18.7979 6.5 18.7979C6.84012 18.7979 7.13551 18.6829 7.40918 18.4326C7.67417 18.1634 7.79785 17.8619 7.79785 17.5C7.79785 17.1349 7.67335 16.8528 7.41602 16.6152C7.41063 16.6103 7.40557 16.6048 7.40039 16.5996C7.12186 16.3211 6.8285 16.2021 6.5 16.2021ZM21.1523 3.2002C21.4561 3.2002 21.7021 3.44624 21.7021 3.75V4.65234C21.7021 4.7975 21.6452 4.93702 21.543 5.04004L15.1406 11.4854C15.0376 11.5891 14.8971 11.6472 14.751 11.6475C14.6048 11.6477 14.4647 11.5897 14.3613 11.4863L12.5137 9.63867C12.2989 9.42388 12.2989 9.07612 12.5137 8.86133L18.0137 3.36133L18.0977 3.29199C18.1872 3.23239 18.2931 3.2002 18.4023 3.2002H21.1523ZM6.5 5.20215C6.1715 5.20215 5.87814 5.32108 5.59961 5.59961C5.59443 5.60479 5.58937 5.61026 5.58398 5.61523C5.32665 5.85281 5.20215 6.13488 5.20215 6.5C5.20215 6.86168 5.32518 7.16349 5.58984 7.43262C5.86366 7.68325 6.15965 7.79785 6.5 7.79785C6.84012 7.79785 7.13551 7.68291 7.40918 7.43262C7.67417 7.16336 7.79785 6.8619 7.79785 6.5C7.79785 6.13488 7.67335 5.85281 7.41602 5.61523C7.41063 5.61026 7.40557 5.60479 7.40039 5.59961C7.12186 5.32108 6.8285 5.20215 6.5 5.20215ZM21.7021 20.25C21.7021 20.5538 21.4561 20.7998 21.1523 20.7998H18.4023C18.2565 20.7998 18.1168 20.7418 18.0137 20.6387L12 14.625L10.4941 16.1299C10.6347 16.5508 10.7021 17.0094 10.7021 17.5C10.7021 18.6501 10.2849 19.6487 9.4668 20.4668C8.64868 21.2849 7.65013 21.7021 6.5 21.7021C5.34987 21.7021 4.35132 21.2849 3.5332 20.4668C2.71509 19.6487 2.29785 18.6501 2.29785 17.5C2.29785 16.3499 2.71509 15.3513 3.5332 14.5332C4.35132 13.7151 5.34987 13.2979 6.5 13.2979C6.99019 13.2979 7.44855 13.3646 7.86914 13.5049L9.375 12L7.86914 10.4941C7.44847 10.6345 6.99031 10.7021 6.5 10.7021C5.34987 10.7021 4.35132 10.2849 3.5332 9.4668C2.71509 8.64868 2.29785 7.65013 2.29785 6.5C2.29785 5.34987 2.71509 4.35132 3.5332 3.5332C4.35132 2.71509 5.34987 2.29785 6.5 2.29785C7.65013 2.29785 8.64868 2.71509 9.4668 3.5332C10.2849 4.35132 10.7021 5.34987 10.7021 6.5C10.7021 6.99065 10.6347 7.4492 10.4941 7.87012L21.542 18.96C21.6445 19.063 21.7021 19.2023 21.7021 19.3477V20.25Z" stroke="currentColor" stroke-width="1.1" stroke-linecap="round" stroke-linejoin="round"/> </svg>