<svg width="24" height="24" viewBox="0 0 24 24" fill="none" xmlns="http://www.w3.org/2000/svg"> <path d="M21.1523 15.1025C21.4561 15.1025 21.7021 15.3486 21.7021 15.6523V19.3477C21.7021 19.6514 21.4561 19.8975 21.1523 19.8975H2.84766C2.5439 19.8975 2.29785 19.6514 2.29785 19.3477V15.6523C2.29785 15.3486 2.5439 15.1025 2.84766 15.1025H21.1523ZM5.20215 17.8525H5.9502V17.1475H5.20215V17.8525ZM21.1523 9.60254C21.4561 9.60254 21.7021 9.84859 21.7021 10.1523V13.8477C21.7021 14.1514 21.4561 14.3975 21.1523 14.3975H2.84766C2.5439 14.3975 2.29785 14.1514 2.29785 13.8477V10.1523C2.29785 9.84859 2.5439 9.60254 2.84766 9.60254H21.1523ZM5.20215 12.3525H5.9502V11.6475H5.20215V12.3525ZM21.1523 4.10254C21.4561 4.10254 21.7021 4.34859 21.7021 4.65234V8.34766C21.7021 8.65141 21.4561 8.89746 21.1523 8.89746H2.84766C2.5439 8.89746 2.29785 8.65141 2.29785 8.34766V4.65234C2.29785 4.34859 2.5439 4.10254 2.84766 4.10254H21.1523ZM5.20215 6.85254H5.9502V6.14746H5.20215V6.85254Z" stroke="currentColor" stroke-width="1.1" stroke-linecap="round" stroke-linejoin="round"/> </svg>