<svg width="24" height="24" viewBox="0 0 24 24" fill="none" xmlns="http://www.w3.org/2000/svg"> <path d="M21.1523 15.6523H2.84766V19.3477H21.1523V15.6523ZM6.5 16.5977V18.4023H4.65234V16.5977H6.5ZM6.5 11.0977V12.9023H4.65234V11.0977H6.5ZM6.5 5.59766V7.40234H4.65234V5.59766H6.5ZM2.84766 10.1523V13.8477H21.1523V10.1523H2.84766ZM2.84766 4.65234V8.34766H21.1523V4.65234H2.84766ZM22.252 8.34766C22.252 8.72155 22.0654 9.05124 21.7803 9.25C22.0654 9.44876 22.252 9.77845 22.252 10.1523V13.8477C22.252 14.2215 22.0654 14.5512 21.7803 14.75C22.0654 14.9488 22.252 15.2785 22.252 15.6523V19.3477C22.252 19.9552 21.7599 20.4473 21.1523 20.4473H2.84766C2.24014 20.4473 1.74805 19.9552 1.74805 19.3477V15.6523C1.74805 15.2785 1.93464 14.9488 2.21973 14.75C1.93464 14.5512 1.74805 14.2215 1.74805 13.8477V10.1523C1.74805 9.77845 1.93464 9.44876 2.21973 9.25C1.93464 9.05124 1.74805 8.72155 1.74805 8.34766V4.65234C1.74805 4.04483 2.24014 3.55273 2.84766 3.55273H21.1523C21.7599 3.55273 22.252 4.04483 22.252 4.65234V8.34766Z" fill="currentColor"/> </svg>