<svg width="24" height="24" viewBox="0 0 24 24" fill="none" xmlns="http://www.w3.org/2000/svg"> <path d="M8.34766 1.35254C8.65141 1.35254 8.89746 1.59859 8.89746 1.90234V3.2002H15.1025V1.90234C15.1025 1.59859 15.3486 1.35254 15.6523 1.35254H17.5C17.8038 1.35254 18.0498 1.59859 18.0498 1.90234V3.2002H18.4023C19.0478 3.2002 19.6138 3.45366 20.0801 3.91992C20.5463 4.38619 20.7998 4.95219 20.7998 5.59766V18.4023C20.7998 19.0478 20.5463 19.6138 20.0801 20.0801C19.6138 20.5463 19.0478 20.7998 18.4023 20.7998H5.59766C4.94647 20.7998 4.3685 20.5779 3.89258 20.1387C3.88181 20.1287 3.87127 20.1182 3.86133 20.1074C3.42205 19.6315 3.2002 19.0535 3.2002 18.4023V5.59766C3.2002 4.96637 3.42805 4.40497 3.86133 3.93555L3.87695 3.91992C4.35002 3.44685 4.9327 3.2002 5.59766 3.2002H5.9502V1.90234C5.9502 1.59859 6.19624 1.35254 6.5 1.35254H8.34766ZM6.14746 17.8525H17.8525V8.89746H6.14746V17.8525ZM16.5977 11.4502C16.9014 11.4502 17.1475 11.6962 17.1475 12V16.5977C17.1475 16.9014 16.9014 17.1475 16.5977 17.1475H12C11.6962 17.1475 11.4502 16.9014 11.4502 16.5977V12C11.4502 11.6962 11.6962 11.4502 12 11.4502H16.5977Z" stroke="currentColor" stroke-width="1.1" stroke-linecap="round" stroke-linejoin="round"/> </svg>