<svg width="24" height="24" viewBox="0 0 24 24" fill="none" xmlns="http://www.w3.org/2000/svg"> <path d="M18.4023 8.34766V18.4023H5.59766V8.34766H18.4023ZM6.69727 17.3027H11.1562C10.9965 17.1118 10.9004 16.8661 10.9004 16.5977V12C10.9004 11.3925 11.3925 10.9004 12 10.9004H16.5977C16.8661 10.9004 17.1118 10.9965 17.3027 11.1562V9.44727H6.69727V17.3027ZM8.34766 1.90234H6.5V3.75H5.59766C5.08203 3.75 4.63802 3.9362 4.26562 4.30859C3.92188 4.68099 3.75 5.11068 3.75 5.59766V18.4023C3.75 18.918 3.92188 19.362 4.26562 19.7344C4.63802 20.0781 5.08203 20.25 5.59766 20.25H18.4023C18.8893 20.25 19.319 20.0638 19.6914 19.6914C20.0638 19.319 20.25 18.8893 20.25 18.4023V5.59766C20.25 5.11068 20.0638 4.68099 19.6914 4.30859C19.319 3.9362 18.8893 3.75 18.4023 3.75H17.5V1.90234H15.6523V3.75H8.34766V1.90234ZM12 16.5977H16.5977V12H12V16.5977ZM18.5996 2.65625C19.3215 2.70436 19.9549 3.01741 20.4688 3.53125C21.0289 4.09139 21.3496 4.79371 21.3496 5.59766V18.4023C21.3496 19.2063 21.0289 19.9086 20.4688 20.4688C19.9086 21.0289 19.2063 21.3496 18.4023 21.3496H5.59766C4.81091 21.3496 4.09898 21.0778 3.51953 20.543C3.49799 20.5231 3.47692 20.502 3.45703 20.4805C2.92223 19.901 2.65039 19.1891 2.65039 18.4023V5.59766C2.65039 4.82207 2.93422 4.12895 3.45703 3.5625L3.48828 3.53125C4.01521 3.00432 4.66675 2.70495 5.40039 2.65918V1.90234C5.40039 1.29483 5.89249 0.802734 6.5 0.802734H8.34766C8.95517 0.802734 9.44727 1.29483 9.44727 1.90234V2.65039H14.5527V1.90234C14.5527 1.29483 15.0448 0.802734 15.6523 0.802734H17.5C18.1075 0.802734 18.5996 1.29483 18.5996 1.90234V2.65625Z" fill="currentColor"/> </svg>