<svg width="24" height="24" viewBox="0 0 24 24" fill="none" xmlns="http://www.w3.org/2000/svg"> <path d="M15 4.25C15.4142 4.25 15.75 4.58579 15.75 5V19C15.75 19.4142 15.4142 19.75 15 19.75H3C2.58579 19.75 2.25 19.4142 2.25 19V5C2.25 4.58579 2.58579 4.25 3 4.25H15ZM3.75 18.25H14.25V15.083H3.75V18.25ZM3.75 13.583H14.25V10.417H3.75V13.583ZM21 11.25C21.4142 11.25 21.75 11.5858 21.75 12C21.75 12.4142 21.4142 12.75 21 12.75H17C16.5858 12.75 16.25 12.4142 16.25 12C16.25 11.5858 16.5858 11.25 17 11.25H21ZM3.75 8.91699H14.25V5.75H3.75V8.91699Z" fill="currentColor"/> </svg>