<svg width="24" height="24" viewBox="0 0 24 24" fill="none" xmlns="http://www.w3.org/2000/svg"> <path d="M14.2773 3.2002C14.4188 3.2002 14.5549 3.25488 14.6572 3.35254L15.4434 4.10254H18.4023C18.7061 4.10254 18.9521 4.34859 18.9521 4.65234V6.5C18.9521 6.80376 18.7061 7.0498 18.4023 7.0498H17.9189C17.9995 7.14549 18.0498 7.26745 18.0498 7.40234V18.4023C18.0498 19.0478 17.7963 19.6138 17.3301 20.0801C16.8638 20.5463 16.2978 20.7998 15.6523 20.7998H8.34766C7.70219 20.7998 7.13619 20.5463 6.66992 20.0801C6.20366 19.6138 5.9502 19.0478 5.9502 18.4023V7.40234C5.9502 7.26745 6.00046 7.14549 6.08105 7.0498H5.59766C5.2939 7.0498 5.04785 6.80376 5.04785 6.5V4.65234C5.04785 4.34859 5.2939 4.10254 5.59766 4.10254H8.55664L9.34277 3.35254C9.44509 3.25488 9.58121 3.2002 9.72266 3.2002H14.2773ZM9.51855 11.8779L11.0996 13.459C11.3144 13.6738 11.3144 14.0215 11.0996 14.2363L9.55469 15.7812L10.0664 16.293L11.6113 14.748L11.6973 14.6777C11.9108 14.5366 12.2007 14.56 12.3887 14.748L13.9336 16.293L14.4453 15.7812L12.9004 14.2363C12.6873 14.0232 12.6849 13.6783 12.8955 13.4629L14.4482 11.874L13.9375 11.3633L12.3936 12.9434C12.2901 13.0491 12.148 13.1084 12 13.1084C11.852 13.1084 11.7099 13.0491 11.6064 12.9434L10.0557 11.3574L9.51855 11.8779Z" stroke="currentColor" stroke-width="1.1" stroke-linecap="round" stroke-linejoin="round"/> </svg>