<svg width="24" height="24" viewBox="0 0 24 24" fill="none" xmlns="http://www.w3.org/2000/svg"> <path d="M17.5 7.40234H6.5V18.4023C6.5 18.8893 6.6862 19.319 7.05859 19.6914C7.43099 20.0638 7.86068 20.25 8.34766 20.25H15.6523C16.1393 20.25 16.569 20.0638 16.9414 19.6914C17.3138 19.319 17.5 18.8893 17.5 18.4023V7.40234ZM15.2227 11.8711L13.2891 13.8477L15.2227 15.7812L13.9336 17.0703L12 15.1367L10.0664 17.0703L8.77734 15.7812L10.7109 13.8477L8.73438 11.8711L10.0664 10.582L12 12.5586L13.9336 10.582L15.2227 11.8711ZM12.209 13.6377C12.1406 13.6509 12.0707 13.6582 12 13.6582C11.9293 13.6582 11.8594 13.6509 11.791 13.6377C11.8177 13.7756 11.8175 13.9177 11.791 14.0557C11.9289 14.0291 12.0711 14.0291 12.209 14.0557C12.1825 13.9177 12.1823 13.7757 12.209 13.6377ZM15.2227 4.65234L14.2773 3.75H9.72266L8.77734 4.65234H5.59766V6.5H18.4023V4.65234H15.2227ZM19.502 6.5C19.502 7.04009 19.1129 7.48801 18.5996 7.58105V18.4023C18.5996 19.2063 18.2789 19.9086 17.7188 20.4688C17.1586 21.0289 16.4563 21.3496 15.6523 21.3496H8.34766C7.54371 21.3496 6.84139 21.0289 6.28125 20.4688C5.72111 19.9086 5.40039 19.2063 5.40039 18.4023V7.58105C4.88713 7.48801 4.49805 7.04009 4.49805 6.5V4.65234C4.49805 4.04483 4.99014 3.55273 5.59766 3.55273H8.33594L8.96289 2.9541L9.04297 2.88477C9.23595 2.73316 9.47523 2.65039 9.72266 2.65039H14.2773C14.5602 2.65039 14.8325 2.75878 15.0371 2.9541L15.6641 3.55273H18.4023C19.0099 3.55273 19.502 4.04483 19.502 4.65234V6.5Z" fill="currentColor"/> </svg>