<svg width="24" height="24" viewBox="0 0 24 24" fill="none" xmlns="http://www.w3.org/2000/svg"> <path d="M14.2773 3.2002C14.4188 3.2002 14.5549 3.25488 14.6572 3.35254L15.4434 4.10254H18.4023C18.7061 4.10254 18.9521 4.34859 18.9521 4.65234V6.5C18.9521 6.80376 18.7061 7.0498 18.4023 7.0498H17.9189C17.9995 7.14549 18.0498 7.26745 18.0498 7.40234V18.4023C18.0498 19.0478 17.7963 19.6138 17.3301 20.0801C16.8638 20.5463 16.2978 20.7998 15.6523 20.7998H8.34766C7.70219 20.7998 7.13619 20.5463 6.66992 20.0801C6.20366 19.6138 5.9502 19.0478 5.9502 18.4023V7.40234C5.9502 7.26745 6.00046 7.14549 6.08105 7.0498H5.59766C5.2939 7.0498 5.04785 6.80376 5.04785 6.5V4.65234C5.04785 4.34859 5.2939 4.10254 5.59766 4.10254H8.55664L9.34277 3.35254C9.44509 3.25488 9.58121 3.2002 9.72266 3.2002H14.2773Z" stroke="currentColor" stroke-width="1.1" stroke-linecap="round" stroke-linejoin="round"/> </svg>