<svg width="24" height="24" viewBox="0 0 24 24" fill="none" xmlns="http://www.w3.org/2000/svg"> <path d="M19.3477 4.10254C19.9802 4.10254 20.5277 4.34769 20.9658 4.80664H20.9668L20.998 4.83789H20.9971C21.4636 5.28339 21.7021 5.84847 21.7021 6.5V17.5C21.7021 18.165 21.4555 18.7476 20.9824 19.2207C20.5353 19.6678 19.9802 19.8975 19.3477 19.8975H4.65234C4.02106 19.8975 3.45966 19.6696 2.99023 19.2363C2.97946 19.2264 2.96893 19.2159 2.95898 19.2051C2.51971 18.7292 2.29785 18.1512 2.29785 17.5V6.5C2.29785 5.84833 2.52097 5.2759 2.97461 4.82227C3.44088 4.356 4.00688 4.10254 4.65234 4.10254H19.3477Z" stroke="currentColor" stroke-width="1.1" stroke-linecap="round" stroke-linejoin="round"/> </svg>