<svg width="24" height="24" viewBox="0 0 24 24" fill="none" xmlns="http://www.w3.org/2000/svg"> <path d="M1.74805 17.5V6.5C1.74805 5.71228 2.02241 4.99712 2.58594 4.43359C3.14607 3.87346 3.8484 3.55273 4.65234 3.55273V4.65234C4.16536 4.65234 3.73568 4.83854 3.36328 5.21094C3.01953 5.55469 2.84766 5.98438 2.84766 6.5V17.5C2.84766 18.0156 3.01953 18.4596 3.36328 18.832C3.73568 19.1758 4.16536 19.3477 4.65234 19.3477H19.3477C19.8346 19.3477 20.25 19.1758 20.5938 18.832C20.9661 18.4596 21.1523 18.0156 21.1523 17.5V6.5C21.1523 5.98438 20.9661 5.55469 20.5938 5.21094C20.25 4.83854 19.8346 4.65234 19.3477 4.65234V3.55273C20.1257 3.55273 20.805 3.85613 21.3389 4.40332L21.3398 4.40234C21.9423 4.95842 22.252 5.68345 22.252 6.5V17.5C22.252 18.3143 21.9448 19.0356 21.3711 19.6094C20.8207 20.1598 20.1258 20.4473 19.3477 20.4473H4.65234C3.87675 20.4473 3.18364 20.1634 2.61719 19.6406C2.59564 19.6207 2.57458 19.5997 2.55469 19.5781C2.01988 18.9987 1.74805 18.2867 1.74805 17.5ZM5.59766 6.5V17.5H4.65234V6.5H5.59766ZM19.3477 6.5V17.5H18.4023V6.5H19.3477ZM19.3477 3.55273V4.65234H4.65234V3.55273H19.3477Z" fill="currentColor"/> </svg>