<svg width="24" height="24" viewBox="0 0 24 24" fill="none" xmlns="http://www.w3.org/2000/svg"> <path d="M2.5 18.75V16.5C2.5 16.2239 2.72386 16 3 16C3.27614 16 3.5 16.2239 3.5 16.5V18.75C3.5 19.2141 3.68451 19.6591 4.0127 19.9873C4.34088 20.3155 4.78587 20.5 5.25 20.5H18.75C19.2141 20.5 19.6591 20.3155 19.9873 19.9873C20.3155 19.6591 20.5 19.2141 20.5 18.75V16.5C20.5 16.2239 20.7239 16 21 16C21.2761 16 21.5 16.2239 21.5 16.5V18.75C21.5 19.4793 21.2101 20.1786 20.6943 20.6943C20.1786 21.2101 19.4793 21.5 18.75 21.5H5.25C4.52065 21.5 3.82139 21.2101 3.30566 20.6943C2.78994 20.1786 2.5 19.4793 2.5 18.75ZM11.5 3C11.5 2.72386 11.7239 2.5 12 2.5C12.2761 2.5 12.5 2.72386 12.5 3V15.293L16.1465 11.6465C16.3417 11.4512 16.6583 11.4512 16.8535 11.6465C17.0488 11.8417 17.0488 12.1583 16.8535 12.3535L12.3535 16.8535C12.1583 17.0488 11.8417 17.0488 11.6465 16.8535L7.14648 12.3535C6.95122 12.1583 6.95122 11.8417 7.14648 11.6465C7.34175 11.4512 7.65825 11.4512 7.85352 11.6465L11.5 15.293V3Z" fill="currentColor"/> </svg>