<svg width="24" height="24" viewBox="0 0 24 24" fill="none" xmlns="http://www.w3.org/2000/svg"> <path d="M7.80047 6.9124C8.80563 6.9124 9.62047 6.11211 9.62047 5.1249C9.62047 4.13769 8.80563 3.3374 7.80047 3.3374C6.79531 3.3374 5.98047 4.13769 5.98047 5.1249C5.98047 6.11211 6.79531 6.9124 7.80047 6.9124Z" fill="currentColor"/> <path d="M7.80047 13.7874C8.80563 13.7874 9.62047 12.9871 9.62047 11.9999C9.62047 11.0127 8.80563 10.2124 7.80047 10.2124C6.79531 10.2124 5.98047 11.0127 5.98047 11.9999C5.98047 12.9871 6.79531 13.7874 7.80047 13.7874Z" fill="currentColor"/> <path d="M7.80047 20.6624C8.80563 20.6624 9.62047 19.8621 9.62047 18.8749C9.62047 17.8877 8.80563 17.0874 7.80047 17.0874C6.79531 17.0874 5.98047 17.8877 5.98047 18.8749C5.98047 19.8621 6.79531 20.6624 7.80047 20.6624Z" fill="currentColor"/> <path d="M16.2005 6.9124C17.2056 6.9124 18.0205 6.11211 18.0205 5.1249C18.0205 4.13769 17.2056 3.3374 16.2005 3.3374C15.1953 3.3374 14.3805 4.13769 14.3805 5.1249C14.3805 6.11211 15.1953 6.9124 16.2005 6.9124Z" fill="currentColor"/> <path d="M16.2005 13.7874C17.2056 13.7874 18.0205 12.9871 18.0205 11.9999C18.0205 11.0127 17.2056 10.2124 16.2005 10.2124C15.1953 10.2124 14.3805 11.0127 14.3805 11.9999C14.3805 12.9871 15.1953 13.7874 16.2005 13.7874Z" fill="currentColor"/> <path d="M16.2005 20.6624C17.2056 20.6624 18.0205 19.8621 18.0205 18.8749C18.0205 17.8877 17.2056 17.0874 16.2005 17.0874C15.1953 17.0874 14.3805 17.8877 14.3805 18.8749C14.3805 19.8621 15.1953 20.6624 16.2005 20.6624Z" fill="currentColor"/> </svg>