<svg width="24" height="24" viewBox="0 0 24 24" fill="none" xmlns="http://www.w3.org/2000/svg"> <path d="M17.5264 10.918C17.8209 10.6777 18.2557 10.6951 18.5303 10.9697L21.0303 13.4697C21.3232 13.7626 21.3232 14.2374 21.0303 14.5303L15.5303 20.0303C15.4197 20.1408 15.2772 20.2145 15.123 20.2402L12.123 20.7402C11.8842 20.7799 11.6409 20.7015 11.4697 20.5303C11.2985 20.3591 11.2201 20.1158 11.2598 19.877L11.7598 16.877L11.7881 16.7637C11.8247 16.6534 11.8868 16.5527 11.9697 16.4697L17.4697 10.9697L17.5264 10.918ZM13.2002 17.3594L12.9121 19.0869L14.6396 18.7988L17.9395 15.5L16.5 14.0605L13.2002 17.3594ZM11 3.25C11.1989 3.25 11.3896 3.32907 11.5303 3.46973L17.0303 8.96973C17.3232 9.26262 17.3232 9.73738 17.0303 10.0303L10.5303 16.5303C10.2374 16.8232 9.76262 16.8232 9.46973 16.5303L2.96973 10.0303C2.82907 9.88962 2.75 9.69891 2.75 9.5V4C2.75 3.58579 3.08579 3.25 3.5 3.25H11ZM4.25 9.18945L10 14.9395L15.4395 9.5L10.6895 4.75H4.25V9.18945ZM17.5605 13L19 14.4395L19.4395 14L18 12.5605L17.5605 13ZM7.00977 5.75C7.42398 5.75 7.75977 6.08579 7.75977 6.5C7.75977 6.91421 7.42398 7.25 7.00977 7.25H7C6.58579 7.25 6.25 6.91421 6.25 6.5C6.25 6.08579 6.58579 5.75 7 5.75H7.00977Z" fill="currentColor"/> </svg>