<svg width="24" height="24" viewBox="0 0 24 24" fill="none" xmlns="http://www.w3.org/2000/svg"> <path d="M20.3789 13.4609C20.3789 13.2031 20.293 12.9883 20.1211 12.8164L19.4336 12.1289C19.2617 11.957 19.0469 11.8711 18.7891 11.8711C18.5599 11.8711 18.3451 11.957 18.1445 12.1289L17.5 12.8164L19.4336 14.75L20.1211 14.1055C20.293 13.9049 20.3789 13.6901 20.3789 13.4609ZM10.1523 13.8477H3.75V15.6523H10.1523V13.8477ZM12 20.25H13.9336L18.7891 15.3945L16.8555 13.4609L12 18.3164V20.25ZM3.75 10.1523V12H13.8477V10.1523H3.75ZM21.4785 13.4609C21.4785 13.9922 21.2712 14.4536 20.9561 14.8213C20.9301 14.8516 20.9022 14.8809 20.873 14.9082L20.1855 15.5527C20.0758 15.6555 19.9502 15.7308 19.8174 15.7803C19.7639 15.923 19.6812 16.0571 19.5664 16.1719L14.7109 21.0273C14.5046 21.2336 14.2253 21.3496 13.9336 21.3496H12C11.3925 21.3496 10.9004 20.8575 10.9004 20.25V18.3164C10.9004 18.0247 11.0164 17.7454 11.2227 17.5391L16.0781 12.6836L16.1611 12.6074C16.2553 12.5306 16.3596 12.4726 16.4688 12.4316C16.5182 12.299 16.5946 12.174 16.6973 12.0645L17.3418 11.377L17.4287 11.2939C17.7964 10.9788 18.2578 10.7715 18.7891 10.7715L18.9863 10.7803C19.3774 10.8158 19.7463 10.9581 20.0596 11.2139L20.2109 11.3516L20.8984 12.0391C21.2901 12.4307 21.4785 12.931 21.4785 13.4609ZM3.75 6.5V8.34766H13.8477V6.5H3.75ZM14.9473 8.34766C14.9473 8.72155 14.7607 9.05124 14.4756 9.25C14.7607 9.44876 14.9473 9.77845 14.9473 10.1523V12C14.9473 12.6075 14.4552 13.0996 13.8477 13.0996H10.9561C11.139 13.296 11.252 13.5581 11.252 13.8477V15.6523C11.252 16.2599 10.7599 16.752 10.1523 16.752H3.75C3.14249 16.752 2.65039 16.2599 2.65039 15.6523V13.8477C2.65039 13.4599 2.85115 13.1197 3.1543 12.9238C2.85115 12.7279 2.65039 12.3878 2.65039 12V10.1523C2.65039 9.77845 2.83698 9.44876 3.12207 9.25C2.83698 9.05124 2.65039 8.72155 2.65039 8.34766V6.5C2.65039 5.89249 3.14249 5.40039 3.75 5.40039H13.8477C14.4552 5.40039 14.9473 5.89249 14.9473 6.5V8.34766Z" fill="currentColor"/> </svg>