<svg width="24" height="24" viewBox="0 0 24 24" fill="none" xmlns="http://www.w3.org/2000/svg"> <path d="M18.7891 11.3213C19.1829 11.3213 19.5405 11.4585 19.8223 11.7402L20.5098 12.4277C20.7915 12.7095 20.9287 13.0671 20.9287 13.4609C20.9287 13.8411 20.7826 14.1798 20.5391 14.4639C20.5261 14.479 20.5116 14.4932 20.4971 14.5068L19.8096 15.1514C19.6761 15.2764 19.4965 15.3214 19.3291 15.2891C19.3628 15.4625 19.3121 15.6489 19.1777 15.7832L14.3223 20.6387C14.2191 20.7418 14.0795 20.7998 13.9336 20.7998H12C11.6962 20.7998 11.4502 20.5538 11.4502 20.25V18.3164C11.4502 18.1705 11.5082 18.0309 11.6113 17.9277L16.4668 13.0723L16.5527 13.002C16.6746 12.9214 16.8214 12.8933 16.96 12.9199C16.9281 12.7528 16.9739 12.5736 17.0986 12.4404L17.7432 11.7529L17.7861 11.7109C18.0702 11.4674 18.4089 11.3213 18.7891 11.3213ZM10.1523 13.2979C10.4561 13.2979 10.7021 13.5439 10.7021 13.8477V15.6523C10.7021 15.9561 10.4561 16.2021 10.1523 16.2021H3.75C3.44624 16.2021 3.2002 15.9561 3.2002 15.6523V13.8477C3.2002 13.5439 3.44624 13.2979 3.75 13.2979H10.1523ZM13.8477 9.60254C14.1514 9.60254 14.3975 9.84859 14.3975 10.1523V12C14.3975 12.3038 14.1514 12.5498 13.8477 12.5498H3.75C3.44624 12.5498 3.2002 12.3038 3.2002 12V10.1523C3.2002 9.84859 3.44624 9.60254 3.75 9.60254H13.8477ZM13.8477 5.9502C14.1514 5.9502 14.3975 6.19624 14.3975 6.5V8.34766L14.3867 8.45898C14.3353 8.7094 14.1133 8.89746 13.8477 8.89746H3.75C3.44624 8.89746 3.2002 8.65141 3.2002 8.34766V6.5C3.2002 6.19624 3.44624 5.9502 3.75 5.9502H13.8477Z" stroke="currentColor" stroke-width="1.1" stroke-linecap="round" stroke-linejoin="round"/> </svg>