<svg width="24" height="24" viewBox="0 0 24 24" fill="none" xmlns="http://www.w3.org/2000/svg"> <path d="M10.1523 19.3477C10.1523 19.8346 10.3242 20.2643 10.668 20.6367C11.0404 20.9805 11.4844 21.1523 12 21.1523C12.5156 21.1523 12.9453 20.9805 13.2891 20.6367C13.6328 20.293 13.8047 19.8633 13.8047 19.3477H10.1523ZM6.62891 3.44922C4.2513 5.28255 2.99089 7.67448 2.84766 10.625H4.69531C4.7526 9.59375 5.09635 8.50521 5.72656 7.35938C6.38542 6.21354 7.13021 5.33984 7.96094 4.73828L6.62891 3.44922ZM16.082 4.73828C16.9128 5.33984 17.6432 6.21354 18.2734 7.35938C18.9036 8.50521 19.2474 9.59375 19.3047 10.625H21.1523C21.0091 7.67448 19.7487 5.28255 17.3711 3.44922L16.082 4.73828ZM19.3477 18.4023V17.5L17.5 15.6523V11.0977C17.5 9.66536 17.1276 8.41927 16.3828 7.35938C15.6667 6.29948 14.6641 5.61198 13.375 5.29688V4.65234C13.375 4.27995 13.2461 3.96484 12.9883 3.70703C12.7305 3.42057 12.401 3.27734 12 3.27734C11.599 3.27734 11.2695 3.42057 11.0117 3.70703C10.7539 3.96484 10.625 4.27995 10.625 4.65234V5.29688C9.33594 5.61198 8.31901 6.29948 7.57422 7.35938C6.85807 8.41927 6.5 9.66536 6.5 11.0977V15.6523L4.65234 17.5V18.4023H19.3477ZM20.4476 18.4023C20.4476 19.0099 19.9555 19.502 19.348 19.502H14.8978C14.864 20.2287 14.5932 20.8876 14.0667 21.4141C13.5032 21.9776 12.788 22.252 12.0003 22.252C11.2136 22.252 10.5016 21.9801 9.9222 21.4453C9.90065 21.4254 9.87959 21.4044 9.8597 21.3828C9.37185 20.8542 9.09519 20.2152 9.05989 19.502H4.65267C4.04515 19.502 3.55306 19.0099 3.55306 18.4023V17.5C3.55306 17.2083 3.66903 16.9289 3.87532 16.7227L5.40071 15.1973V11.4668C5.2092 11.6273 4.96377 11.7246 4.69563 11.7246H2.84798C2.54698 11.7246 2.25871 11.6017 2.0511 11.3838C1.8436 11.1659 1.73476 10.8718 1.74935 10.5713C1.90859 7.29297 3.32945 4.60451 5.95735 2.57812C6.38986 2.24463 7.00141 2.27938 7.39388 2.65918L8.72591 3.94824C8.92921 4.14501 9.04773 4.41091 9.05989 4.69043C9.21349 4.61682 9.37113 4.54924 9.53255 4.4873C9.56839 3.91433 9.79188 3.3949 10.1956 2.97266L10.1947 2.9707C10.2039 2.96042 10.2146 2.95149 10.224 2.94141C10.2277 2.93764 10.2309 2.93344 10.2347 2.92969C10.7058 2.42895 11.3206 2.17773 12.0003 2.17773C12.6799 2.17773 13.2939 2.43025 13.765 2.93066L13.7659 2.92969C13.7695 2.93327 13.7722 2.9378 13.7757 2.94141C13.7852 2.95165 13.7966 2.96026 13.806 2.9707L13.804 2.97266C14.2081 3.39497 14.4312 3.91414 14.4671 4.4873C14.6439 4.5554 14.8158 4.63064 14.9827 4.71289C14.9892 4.43147 15.1039 4.162 15.305 3.96094L16.5941 2.67188L16.6693 2.60254C17.0613 2.27694 17.6326 2.26147 18.0433 2.57812C20.6712 4.60451 22.0921 7.29297 22.2513 10.5713C22.2659 10.8718 22.157 11.1659 21.9495 11.3838C21.7419 11.6017 21.4537 11.7246 21.1527 11.7246H19.305C19.0369 11.7246 18.7914 11.6273 18.5999 11.4668V15.1973L20.1253 16.7227C20.3316 16.9289 20.4476 17.2083 20.4476 17.5V18.4023Z" fill="currentColor"/> </svg>