<svg width="24" height="24" viewBox="0 0 24 24" fill="none" xmlns="http://www.w3.org/2000/svg"> <path d="M6.29297 3.01367C6.50922 2.84692 6.81549 2.86381 7.01172 3.05371L8.34375 4.34277C8.46058 4.45585 8.52131 4.61516 8.50977 4.77734C8.49821 4.93956 8.41492 5.08821 8.2832 5.18359C7.53083 5.72845 6.83395 6.5367 6.20312 7.63379C5.6058 8.72237 5.2957 9.72787 5.24414 10.6553C5.22795 10.9467 4.98722 11.1748 4.69531 11.1748H2.84766C2.69716 11.1748 2.55302 11.1129 2.44922 11.0039C2.3457 10.8951 2.29066 10.7487 2.29785 10.5986C2.44904 7.48413 3.79017 4.94357 6.29297 3.01367ZM17.0605 2.99512C17.2539 2.8627 17.5155 2.86596 17.707 3.01367C20.2098 4.94357 21.551 7.48413 21.7021 10.5986C21.7093 10.7487 21.6543 10.8951 21.5508 11.0039C21.447 11.1129 21.3028 11.1748 21.1523 11.1748H19.3047C19.0128 11.1748 18.7721 10.9467 18.7559 10.6553C18.7041 9.72519 18.3927 8.71624 17.792 7.62402C17.1906 6.53055 16.5091 5.72628 15.7598 5.18359C15.6294 5.08921 15.547 4.94262 15.5342 4.78223C15.5214 4.62168 15.5795 4.46349 15.6934 4.34961L16.9824 3.06055L17.0605 2.99512ZM19.8975 18.4023C19.8975 18.7061 19.6514 18.9521 19.3477 18.9521H14.1855C14.2894 19.0522 14.3545 19.192 14.3545 19.3477C14.3545 19.9993 14.1314 20.5718 13.6777 21.0254C13.2241 21.479 12.6517 21.7021 12 21.7021C11.3488 21.7021 10.7708 21.4803 10.2949 21.041C10.2841 21.0311 10.2736 21.0205 10.2637 21.0098C9.83039 20.5403 9.60254 19.9789 9.60254 19.3477C9.60254 19.192 9.66761 19.0522 9.77148 18.9521H4.65234C4.34859 18.9521 4.10254 18.7061 4.10254 18.4023V17.5C4.10254 17.3541 4.16053 17.2145 4.26367 17.1113L5.9502 15.4248V11.0977C5.9502 9.56941 6.33353 8.21319 7.11816 7.05176L7.12402 7.04297C7.86435 5.98944 8.85455 5.26742 10.0752 4.88086V4.65234C10.0752 4.14705 10.2533 3.69892 10.6035 3.33887H10.6025C10.9694 2.93128 11.4502 2.72754 12 2.72754C12.5498 2.72754 13.0306 2.93128 13.3975 3.33887H13.3955C13.7461 3.699 13.9248 4.14682 13.9248 4.65234V4.88086C15.1412 5.26702 16.118 5.9886 16.833 7.04297L16.9814 7.26367C17.6982 8.37619 18.0498 9.66066 18.0498 11.0977V15.4248L19.7363 17.1113C19.8395 17.2145 19.8975 17.3541 19.8975 17.5V18.4023Z" stroke="currentColor" stroke-width="1.1" stroke-linecap="round" stroke-linejoin="round"/> </svg>