<svg width="24" height="24" viewBox="0 0 24 24" fill="none" xmlns="http://www.w3.org/2000/svg"> <path d="M10.625 1.35254C11.4067 1.35254 12.0822 1.64423 12.6162 2.21387H12.6152C13.1655 2.76979 13.4521 3.44769 13.4521 4.22266V5.04785H16.5977C17.2302 5.04785 17.7777 5.293 18.2158 5.75195H18.2168C18.222 5.75677 18.2263 5.76274 18.2314 5.76758C18.2366 5.77307 18.2429 5.77765 18.248 5.7832H18.2471C18.7067 6.2215 18.9521 6.76931 18.9521 7.40234V10.5479H19.7773C20.5519 10.5479 21.2294 10.8342 21.7852 11.3838H21.7861C22.3558 11.9178 22.6475 12.5933 22.6475 13.375C22.6475 14.1557 22.357 14.8383 21.7988 15.3965C21.7946 15.4007 21.7904 15.4051 21.7861 15.4092C21.2255 15.9347 20.5467 16.2021 19.7773 16.2021H18.9521V19.3477C18.9521 19.9931 18.6987 20.5591 18.2324 21.0254C17.7853 21.4725 17.2302 21.7021 16.5977 21.7021H13.1172C12.8134 21.7021 12.5674 21.4561 12.5674 21.1523V19.7773C12.5674 19.2367 12.3829 18.8101 12.0098 18.459C12.0057 18.4552 12.002 18.4512 11.998 18.4473C11.614 18.0632 11.1663 17.8779 10.625 17.8779C10.0837 17.8779 9.63599 18.0632 9.25195 18.4473C9.24805 18.4512 9.24426 18.4552 9.24023 18.459C8.86714 18.8101 8.68262 19.2367 8.68262 19.7773V21.1523C8.68262 21.4561 8.43657 21.7021 8.13281 21.7021H4.65234C4.02106 21.7021 3.45966 21.4743 2.99023 21.041C2.97946 21.0311 2.96893 21.0205 2.95898 21.0098C2.52571 20.5403 2.29785 19.9789 2.29785 19.3477V15.8672C2.29785 15.5634 2.5439 15.3174 2.84766 15.3174H4.22266C4.76331 15.3174 5.18987 15.1329 5.54102 14.7598L5.55273 14.748C5.93677 14.364 6.12207 13.9163 6.12207 13.375C6.12207 12.8337 5.93677 12.386 5.55273 12.002C5.54883 11.998 5.5448 11.9943 5.54102 11.9902C5.18987 11.6171 4.76331 11.4326 4.22266 11.4326H2.84766C2.5439 11.4326 2.29785 11.1866 2.29785 10.8828V7.40234C2.29785 6.76978 2.52751 6.21467 2.97461 5.76758C3.44088 5.30131 4.00688 5.04785 4.65234 5.04785H7.79785V4.22266C7.79785 3.45327 8.06533 2.77446 8.59082 2.21387L8.60352 2.20117C9.1617 1.64298 9.84433 1.35254 10.625 1.35254Z" stroke="currentColor" stroke-width="1.1" stroke-linecap="round" stroke-linejoin="round"/> </svg>