<svg width="24" height="24" viewBox="0 0 24 24" fill="none" xmlns="http://www.w3.org/2000/svg"> <path d="M18.4023 19.3477V15.6523H19.7773C20.4076 15.6523 20.9518 15.4375 21.4102 15.0078C21.8685 14.5495 22.0977 14.0052 22.0977 13.375C22.0977 12.7448 21.8685 12.2148 21.4102 11.7852C20.9518 11.3268 20.4076 11.0977 19.7773 11.0977V9.99805C20.6962 9.99805 21.5075 10.341 22.1611 10.9824C22.8421 11.6208 23.1973 12.4418 23.1973 13.375C23.1973 14.3061 22.8455 15.1271 22.1875 15.7852C22.1791 15.7935 22.1707 15.8025 22.1621 15.8105C21.4992 16.4318 20.6859 16.752 19.7773 16.752H19.502V19.3477C19.502 20.1516 19.1812 20.8539 18.6211 21.4141C18.0707 21.9645 17.3758 22.252 16.5977 22.252H13.1172C12.5097 22.252 12.0176 21.7599 12.0176 21.1523V19.7773C12.0176 19.3835 11.892 19.1033 11.6328 18.8594C11.6248 18.8518 11.6172 18.8438 11.6094 18.8359C11.3283 18.5548 11.0202 18.4277 10.625 18.4277C10.2298 18.4277 9.92172 18.5548 9.64062 18.8359C9.63281 18.8438 9.62523 18.8518 9.61719 18.8594C9.35798 19.1033 9.23242 19.3835 9.23242 19.7773V21.1523C9.23242 21.7599 8.74033 22.252 8.13281 22.252H4.65234C3.87675 22.252 3.18364 21.9681 2.61719 21.4453C2.59564 21.4254 2.57458 21.4044 2.55469 21.3828C2.03188 20.8164 1.74805 20.1232 1.74805 19.3477V15.8672C1.74805 15.2597 2.24014 14.7676 2.84766 14.7676H4.22266V15.8672H2.84766V19.3477C2.84766 19.8346 3.01953 20.2643 3.36328 20.6367C3.73568 20.9805 4.16536 21.1523 4.65234 21.1523H8.13281V19.7773C8.13281 19.0898 8.3763 18.5169 8.86328 18.0586C9.35026 17.5716 9.9375 17.3281 10.625 17.3281C11.3125 17.3281 11.8997 17.5716 12.3867 18.0586C12.8737 18.5169 13.1172 19.0898 13.1172 19.7773V21.1523H16.5977C17.0846 21.1523 17.5 20.9805 17.8438 20.6367C18.2161 20.2643 18.4023 19.8346 18.4023 19.3477ZM5.57227 13.375C5.57227 12.9798 5.44515 12.6717 5.16406 12.3906C5.15625 12.3828 5.1482 12.3752 5.14062 12.3672C4.89666 12.108 4.61647 11.9824 4.22266 11.9824H2.84766C2.24014 11.9824 1.74805 11.4903 1.74805 10.8828V7.40234C1.74805 6.6242 2.03549 5.92935 2.58594 5.37891C3.14607 4.81877 3.8484 4.49805 4.65234 4.49805V5.59766C4.16536 5.59766 3.73568 5.78385 3.36328 6.15625C3.01953 6.5 2.84766 6.91536 2.84766 7.40234V10.8828H4.22266C4.91016 10.8828 5.48307 11.1263 5.94141 11.6133C6.42839 12.1003 6.67188 12.6875 6.67188 13.375C6.67188 14.0625 6.42839 14.6497 5.94141 15.1367C5.48307 15.6237 4.91016 15.8672 4.22266 15.8672V14.7676C4.61647 14.7676 4.89666 14.642 5.14062 14.3828L5.16406 14.3594C5.44515 14.0783 5.57227 13.7702 5.57227 13.375ZM18.4023 7.40234C18.4023 6.91536 18.2161 6.5 17.8438 6.15625C17.5 5.78385 17.0846 5.59766 16.5977 5.59766V4.49805C17.3755 4.49805 18.0551 4.80078 18.5889 5.34766C18.5995 5.35745 18.6097 5.369 18.6201 5.37891C18.6303 5.38968 18.6422 5.3992 18.6523 5.41016C19.1998 5.94405 19.502 6.62408 19.502 7.40234V9.99805H19.7773V11.0977H18.4023V7.40234ZM12.9023 4.22266C12.9023 3.59245 12.6732 3.04818 12.2148 2.58984C11.7852 2.13151 11.2552 1.90234 10.625 1.90234C9.99479 1.90234 9.45052 2.13151 8.99219 2.58984C8.5625 3.04818 8.34766 3.59245 8.34766 4.22266V5.59766H4.65234V4.49805H7.24805V4.22266C7.24805 3.3141 7.56816 2.50075 8.18945 1.83789C8.19754 1.82926 8.20648 1.82086 8.21484 1.8125C8.87288 1.15446 9.69387 0.802734 10.625 0.802734C11.5582 0.802734 12.3792 1.15696 13.0176 1.83789L13.0166 1.83887C13.6584 2.49258 14.002 3.30353 14.002 4.22266V4.49805H16.5977V5.59766H12.9023V4.22266Z" fill="currentColor"/> </svg>