<svg width="24" height="24" viewBox="0 0 24 24" fill="none" xmlns="http://www.w3.org/2000/svg"> <path d="M14.332 12C14.332 11.3812 14.087 10.7872 13.6494 10.3496C13.2118 9.91202 12.6179 9.66699 11.999 9.66699C11.3802 9.66699 10.7862 9.91202 10.3486 10.3496C9.91105 10.7872 9.66602 11.3812 9.66602 12C9.66602 12.6188 9.91105 13.2128 10.3486 13.6504C10.7862 14.088 11.3802 14.333 11.999 14.333C12.6179 14.333 13.2118 14.088 13.6494 13.6504C14.087 13.2128 14.332 12.6188 14.332 12ZM15.666 12C15.666 12.9725 15.2794 13.9051 14.5918 14.5928C13.9042 15.2804 12.9715 15.667 11.999 15.667C11.0266 15.667 10.0939 15.2804 9.40625 14.5928C8.71862 13.9051 8.33203 12.9725 8.33203 12C8.33203 11.0275 8.71862 10.0949 9.40625 9.40723C10.0939 8.71959 11.0266 8.33301 11.999 8.33301C12.9715 8.33301 13.9042 8.71959 14.5918 9.40723C15.2794 10.0949 15.666 11.0275 15.666 12Z" fill="currentColor"/> <path d="M11.9994 4.33301C16.7767 4.33301 20.8182 7.47318 22.1771 11.7998C22.2179 11.9298 22.2179 12.0702 22.1771 12.2002C20.8182 16.5268 16.7767 19.667 11.9994 19.667C7.22308 19.667 3.18056 16.5269 1.82164 12.2002C1.78081 12.0702 1.78081 11.9298 1.82164 11.7998C3.18056 7.47314 7.22308 4.33301 11.9994 4.33301ZM11.9994 5.66699C7.89577 5.667 4.40887 8.31663 3.15953 12C4.40887 15.6834 7.89577 18.333 11.9994 18.333C16.1038 18.333 19.5888 15.6832 20.8382 12C19.5888 8.31675 16.1038 5.66699 11.9994 5.66699Z" fill="currentColor"/> </svg>