<svg width="24" height="24" viewBox="0 0 24 24" fill="none" xmlns="http://www.w3.org/2000/svg"> <path d="M6.30273 17.0273V5.59766C6.30273 4.3 6.77914 3.16227 7.69922 2.24219C8.6387 1.30271 9.7873 0.802734 11.0977 0.802734C12.4096 0.802734 13.5524 1.30385 14.4688 2.25684C15.3412 3.13594 15.808 4.21251 15.8457 5.43652C15.9349 5.41315 16.0284 5.40039 16.125 5.40039H17.5C18.1075 5.40039 18.5996 5.89249 18.5996 6.5V17.0273C18.5996 18.7159 18.0025 20.1945 16.8281 21.4033C16.8244 21.4071 16.8201 21.4103 16.8164 21.4141C15.6318 22.5987 14.1618 23.1973 12.4727 23.1973C10.7841 23.1973 9.30554 22.6001 8.09668 21.4258C8.08909 21.4184 8.0816 21.4109 8.07422 21.4033C6.89989 20.1945 6.30273 18.7159 6.30273 17.0273ZM12.2754 5.59766C12.2754 5.26837 12.1688 5.00081 11.9102 4.74219C11.9018 4.73383 11.8929 4.72542 11.8848 4.7168C11.6639 4.48129 11.4247 4.37695 11.0977 4.37695C10.7684 4.37695 10.5008 4.48356 10.2422 4.74219C10.0282 4.95617 9.92026 5.17661 9.88867 5.43262C9.9732 5.41181 10.0614 5.40039 10.1523 5.40039H11.5273C11.8167 5.40039 12.079 5.51268 12.2754 5.69531V5.59766ZM13.375 15.2227C13.375 15.4805 13.2891 15.6953 13.1172 15.8672C12.9453 16.0391 12.7305 16.125 12.4727 16.125C12.2148 16.125 11.9857 16.0391 11.7852 15.8672C11.6133 15.6953 11.5273 15.4805 11.5273 15.2227V6.5H10.1523V15.2227C10.1523 15.8529 10.3815 16.3971 10.8398 16.8555C11.2982 17.2852 11.8424 17.5 12.4727 17.5C13.1029 17.5 13.6328 17.2852 14.0625 16.8555C14.5208 16.3971 14.75 15.8529 14.75 15.2227V5.59766C14.75 4.59505 14.3919 3.73568 13.6758 3.01953C12.9596 2.27474 12.1003 1.90234 11.0977 1.90234C10.0951 1.90234 9.22135 2.27474 8.47656 3.01953C7.76042 3.73568 7.40234 4.59505 7.40234 5.59766V17.0273C7.40234 18.431 7.88932 19.6341 8.86328 20.6367C9.86589 21.6107 11.069 22.0977 12.4727 22.0977C13.8763 22.0977 15.0651 21.6107 16.0391 20.6367C17.013 19.6341 17.5 18.431 17.5 17.0273V6.5H16.125V17.0273C16.125 18.0299 15.7669 18.9036 15.0508 19.6484C14.3346 20.3646 13.4753 20.7227 12.4727 20.7227V19.623C13.1741 19.623 13.7498 19.386 14.2588 18.8828C14.669 18.4554 14.9037 17.9943 14.9873 17.4746C14.9397 17.528 14.8913 17.5814 14.8398 17.6328C14.1955 18.2772 13.3825 18.5996 12.4727 18.5996C11.5641 18.5996 10.7508 18.2795 10.0879 17.6582C10.0793 17.6501 10.0709 17.6412 10.0625 17.6328C10.0109 17.5812 9.96185 17.5282 9.91406 17.4746C9.9967 17.9887 10.2278 18.4456 10.6299 18.8691C11.1727 19.3849 11.7704 19.623 12.4727 19.623V20.7227C11.4701 20.7227 10.5964 20.3646 9.85156 19.6484C9.13542 18.9036 8.77734 18.0299 8.77734 17.0273V5.59766C8.77734 4.96745 9.00651 4.42318 9.46484 3.96484C9.92318 3.50651 10.4674 3.27734 11.0977 3.27734C11.7279 3.27734 12.2578 3.50651 12.6875 3.96484C13.1458 4.42318 13.375 4.96745 13.375 5.59766V15.2227Z" fill="currentColor"/> </svg>