<svg width="24" height="24" viewBox="0 0 24 24" fill="none" xmlns="http://www.w3.org/2000/svg"> <path d="M3.55273 19.3477V19.3447L3.5957 4.64941C3.59642 3.87245 3.88384 3.17866 4.43359 2.62891C4.99373 2.06877 5.69606 1.74805 6.5 1.74805V2.84766C6.01302 2.84766 5.58333 3.03385 5.21094 3.40625C4.86719 3.75 4.69531 4.16536 4.69531 4.65234L4.65234 19.3477C4.65234 19.8346 4.83854 20.2643 5.21094 20.6367C5.58333 20.9805 6.01302 21.1523 6.5 21.1523H17.5C17.987 21.1523 18.4167 20.9805 18.7891 20.6367C19.1615 20.2643 19.3477 19.8346 19.3477 19.3477V8.34766L13.8477 2.84766H6.5V1.74805H13.8477C14.1394 1.74805 14.4187 1.86402 14.625 2.07031L20.125 7.57031C20.3313 7.7766 20.4473 8.05592 20.4473 8.34766V19.3477C20.4473 20.1516 20.1265 20.8539 19.5664 21.4141C19.556 21.4244 19.5459 21.4354 19.5352 21.4453C18.9687 21.9681 18.2756 22.252 17.5 22.252H6.5C5.72441 22.252 5.03129 21.9681 4.46484 21.4453C4.45407 21.4354 4.44396 21.4244 4.43359 21.4141C3.87346 20.8539 3.55273 20.1516 3.55273 19.3477ZM17.9727 9.25H12.9023V4.22266L17.9727 9.25ZM14.002 8.15039H15.3018L14.002 6.86133V8.15039Z" fill="currentColor"/> </svg>