<svg width="24" height="24" viewBox="0 0 24 24" fill="none" xmlns="http://www.w3.org/2000/svg"> <path d="M11.0977 1.35254C12.2514 1.35254 13.2495 1.78703 14.0645 2.63086L14.2139 2.78613C14.9337 3.57413 15.2998 4.51952 15.2998 5.59766V15.2227C15.2998 16.0033 15.0094 16.686 14.4512 17.2441C13.9141 17.7812 13.2427 18.0498 12.4727 18.0498C11.7033 18.0498 11.0245 17.7823 10.4639 17.2568C10.4596 17.2528 10.4554 17.2483 10.4512 17.2441C9.89298 16.686 9.60254 16.0033 9.60254 15.2227V6.5C9.60254 6.19624 9.84859 5.9502 10.1523 5.9502H11.5273C11.8311 5.9502 12.0771 6.19624 12.0771 6.5V15.2227C12.0771 15.3331 12.1067 15.4018 12.1582 15.46C12.257 15.5402 12.3552 15.5752 12.4727 15.5752C12.5944 15.5752 12.6665 15.5405 12.7285 15.4785C12.7905 15.4165 12.8252 15.3444 12.8252 15.2227V5.59766C12.8252 5.11791 12.6573 4.712 12.2988 4.35352C12.2946 4.34934 12.2902 4.34513 12.2861 4.34082C11.9608 3.9939 11.5763 3.82715 11.0977 3.82715C10.6179 3.82715 10.212 3.99504 9.85352 4.35352C9.49504 4.712 9.32715 5.11791 9.32715 5.59766V17.0273C9.32715 17.8794 9.62465 18.6149 10.2402 19.2588C10.8843 19.875 11.6202 20.1729 12.4727 20.1729C13.3257 20.1729 14.044 19.8749 14.6572 19.2637C15.2761 18.6186 15.5752 17.8816 15.5752 17.0273V6.5C15.5752 6.19624 15.8212 5.9502 16.125 5.9502H17.5C17.8038 5.9502 18.0498 6.19624 18.0498 6.5V17.0273C18.0498 18.5733 17.5076 19.9138 16.4336 21.0195L16.4277 21.0254C15.3484 22.1047 14.0191 22.6475 12.4727 22.6475C10.9267 22.6475 9.58616 22.1052 8.48047 21.0312C8.47666 21.0275 8.47245 21.0233 8.46875 21.0195C7.39476 19.9138 6.85254 18.5733 6.85254 17.0273V5.59766C6.85254 4.44753 7.26978 3.44897 8.08789 2.63086C8.93002 1.78873 9.94118 1.35254 11.0977 1.35254Z" stroke="currentColor" stroke-width="1.1" stroke-linecap="round" stroke-linejoin="round"/> </svg>