<svg width="24" height="24" viewBox="0 0 24 24" fill="none" xmlns="http://www.w3.org/2000/svg"> <path d="M2.84766 15.6523V17.5C2.84766 17.987 3.01953 18.4167 3.36328 18.7891C3.73568 19.1615 4.16536 19.3477 4.65234 19.3477H7.40234V17.5H4.65234V15.6523H2.84766ZM19.3477 15.6523V17.5H16.5977V19.3477H19.3477C19.8346 19.3477 20.25 19.1615 20.5938 18.7891C20.9661 18.4167 21.1523 17.987 21.1523 17.5V15.6523H19.3477ZM6.5 8.34766V15.6523H17.5V8.34766H6.5ZM21.1523 8.34766V6.5C21.1523 6.01302 20.9661 5.58333 20.5938 5.21094C20.25 4.83854 19.8346 4.65234 19.3477 4.65234V3.55273C20.1555 3.55273 20.8599 3.87723 21.4023 4.46484L21.4004 4.4668C21.9413 5.0217 22.252 5.71104 22.252 6.5V8.34766C22.252 8.95517 21.7599 9.44727 21.1523 9.44727H19.3477C19.0581 9.44727 18.796 9.33427 18.5996 9.15137V14.8477C18.796 14.665 19.0583 14.5527 19.3477 14.5527H21.1523C21.7599 14.5527 22.252 15.0448 22.252 15.6523V17.5C22.252 18.289 21.9413 18.9783 21.4004 19.5332L21.4023 19.5352C20.8599 20.1228 20.1555 20.4473 19.3477 20.4473H16.5977C15.9901 20.4473 15.498 19.9552 15.498 19.3477V17.5C15.498 17.2104 15.611 16.9484 15.7939 16.752H8.20605C8.38896 16.9484 8.50195 17.2104 8.50195 17.5V19.3477C8.50195 19.9552 8.00986 20.4473 7.40234 20.4473H4.65234C3.8484 20.4473 3.14607 20.1265 2.58594 19.5664C2.57557 19.556 2.56463 19.5459 2.55469 19.5352C2.03188 18.9687 1.74805 18.2756 1.74805 17.5V15.6523C1.74805 15.0448 2.24014 14.5527 2.84766 14.5527H4.65234C4.94168 14.5527 5.20401 14.665 5.40039 14.8477V9.15137C5.20396 9.33427 4.94192 9.44727 4.65234 9.44727H2.84766C2.24014 9.44727 1.74805 8.95517 1.74805 8.34766V6.5C1.74805 5.72441 2.03188 5.03129 2.55469 4.46484L2.58594 4.43359C3.14607 3.87346 3.8484 3.55273 4.65234 3.55273V4.65234C4.16536 4.65234 3.73568 4.83854 3.36328 5.21094C3.01953 5.58333 2.84766 6.01302 2.84766 6.5V8.34766H4.65234V6.5H7.40234V4.65234H4.65234V3.55273H7.40234C8.00986 3.55273 8.50195 4.04483 8.50195 4.65234V6.5C8.50195 6.78957 8.38896 7.05162 8.20605 7.24805H15.7939C15.611 7.05162 15.498 6.78957 15.498 6.5V4.65234C15.498 4.04483 15.9901 3.55273 16.5977 3.55273H19.3477V4.65234H16.5977V6.5H19.3477V8.34766H21.1523Z" fill="currentColor"/> </svg>