<svg width="24" height="24" viewBox="0 0 24 24" fill="none" xmlns="http://www.w3.org/2000/svg"> <path d="M4.65234 15.1025L4.76367 15.1133C5.01409 15.1647 5.20215 15.3867 5.20215 15.6523V16.9502H7.40234C7.7061 16.9502 7.95215 17.1962 7.95215 17.5V19.3477C7.95215 19.6514 7.7061 19.8975 7.40234 19.8975H4.65234C4.00688 19.8975 3.44088 19.644 2.97461 19.1777C2.96943 19.1726 2.96396 19.1675 2.95898 19.1621C2.52571 18.6927 2.29785 18.1313 2.29785 17.5V15.6523C2.29785 15.3486 2.5439 15.1025 2.84766 15.1025H4.65234ZM21.1523 15.1025C21.4561 15.1025 21.7021 15.3486 21.7021 15.6523V17.5C21.7021 18.1382 21.4534 18.6979 20.9971 19.1611L20.998 19.1621C20.555 19.6421 19.9951 19.8975 19.3477 19.8975H16.5977C16.2939 19.8975 16.0479 19.6514 16.0479 19.3477V17.5C16.0479 17.1962 16.2939 16.9502 16.5977 16.9502H18.7979V15.6523C18.7979 15.3486 19.0439 15.1025 19.3477 15.1025H21.1523ZM17.5 7.79785C17.8038 7.79785 18.0498 8.0439 18.0498 8.34766V15.6523C18.0498 15.9561 17.8038 16.2021 17.5 16.2021H6.5C6.19624 16.2021 5.9502 15.9561 5.9502 15.6523V8.34766C5.9502 8.0439 6.19624 7.79785 6.5 7.79785H17.5ZM7.40234 4.10254C7.7061 4.10254 7.95215 4.34859 7.95215 4.65234V6.5L7.94141 6.61133C7.88996 6.86175 7.66798 7.0498 7.40234 7.0498H5.20215V8.34766C5.20215 8.65141 4.9561 8.89746 4.65234 8.89746H2.84766C2.5439 8.89746 2.29785 8.65141 2.29785 8.34766V6.5C2.29785 5.86871 2.52571 5.30731 2.95898 4.83789L2.97461 4.82227C3.44088 4.356 4.00688 4.10254 4.65234 4.10254H7.40234ZM19.3477 4.10254C19.9951 4.10254 20.555 4.35789 20.998 4.83789H20.9971C21.4537 5.30124 21.7021 5.86153 21.7021 6.5V8.34766C21.7021 8.65141 21.4561 8.89746 21.1523 8.89746H19.3477C19.0439 8.89746 18.7979 8.65141 18.7979 8.34766V7.0498H16.5977C16.2939 7.0498 16.0479 6.80376 16.0479 6.5V4.65234C16.0479 4.34859 16.2939 4.10254 16.5977 4.10254H19.3477Z" stroke="currentColor" stroke-width="1.1" stroke-linecap="round" stroke-linejoin="round"/> </svg>