<svg width="24" height="24" viewBox="0 0 24 24" fill="none" xmlns="http://www.w3.org/2000/svg"> <path d="M5.59766 14.2002L5.70898 14.2109C5.9594 14.2624 6.14746 14.4844 6.14746 14.75V17.8525H9.25C9.55376 17.8525 9.7998 18.0986 9.7998 18.4023V20.25C9.7998 20.5538 9.55376 20.7998 9.25 20.7998H5.59766C4.95219 20.7998 4.38619 20.5463 3.91992 20.0801C3.45366 19.6138 3.2002 19.0478 3.2002 18.4023V14.75C3.2002 14.4462 3.44624 14.2002 3.75 14.2002H5.59766ZM20.25 14.2002C20.5538 14.2002 20.7998 14.4462 20.7998 14.75V18.4023C20.7998 19.0478 20.5463 19.6138 20.0801 20.0801C19.6138 20.5463 19.0478 20.7998 18.4023 20.7998H14.75C14.4462 20.7998 14.2002 20.5538 14.2002 20.25V18.4023C14.2002 18.0986 14.4462 17.8525 14.75 17.8525H17.8525V14.75C17.8525 14.4462 18.0986 14.2002 18.4023 14.2002H20.25ZM9.25 3.2002C9.55376 3.2002 9.7998 3.44624 9.7998 3.75V5.59766L9.78906 5.70898C9.73762 5.9594 9.51564 6.14746 9.25 6.14746H6.14746V9.25C6.14746 9.55376 5.90141 9.7998 5.59766 9.7998H3.75C3.44624 9.7998 3.2002 9.55376 3.2002 9.25V5.59766C3.2002 4.95219 3.45366 4.38619 3.91992 3.91992C4.38619 3.45366 4.95219 3.2002 5.59766 3.2002H9.25ZM18.4023 3.2002C19.0478 3.2002 19.6138 3.45366 20.0801 3.91992C20.5463 4.38619 20.7998 4.95219 20.7998 5.59766V9.25C20.7998 9.55376 20.5538 9.7998 20.25 9.7998H18.4023C18.0986 9.7998 17.8525 9.55376 17.8525 9.25V6.14746H14.75C14.4462 6.14746 14.2002 5.90141 14.2002 5.59766V3.75C14.2002 3.44624 14.4462 3.2002 14.75 3.2002H18.4023Z" stroke="currentColor" stroke-width="1.1" stroke-linecap="round" stroke-linejoin="round"/> </svg>