<svg width="24" height="24" viewBox="0 0 24 24" fill="none" xmlns="http://www.w3.org/2000/svg"> <path d="M3.75 14.75V18.4023C3.75 18.8893 3.9362 19.319 4.30859 19.6914C4.68099 20.0638 5.11068 20.25 5.59766 20.25H9.25V18.4023H5.59766V14.75H3.75ZM20.25 18.4023V14.75H18.4023V18.4023H14.75V20.25H18.4023C18.8893 20.25 19.319 20.0638 19.6914 19.6914C20.0638 19.319 20.25 18.8893 20.25 18.4023ZM9.25 5.59766V3.75H5.59766V2.65039H9.25C9.85751 2.65039 10.3496 3.14249 10.3496 3.75V5.59766C10.3496 6.20517 9.85751 6.69727 9.25 6.69727H6.69727V9.25C6.69727 9.85751 6.20517 10.3496 5.59766 10.3496H3.75C3.14249 10.3496 2.65039 9.85751 2.65039 9.25V5.59766C2.65039 4.79371 2.97111 4.09139 3.53125 3.53125C4.09139 2.97111 4.79371 2.65039 5.59766 2.65039V3.75C5.11068 3.75 4.68099 3.9362 4.30859 4.30859C3.9362 4.68099 3.75 5.11068 3.75 5.59766V9.25H5.59766V5.59766H9.25ZM20.25 5.59766C20.25 5.11068 20.0638 4.68099 19.6914 4.30859C19.319 3.9362 18.8893 3.75 18.4023 3.75V2.65039C19.2063 2.65039 19.9086 2.97111 20.4688 3.53125C21.0289 4.09139 21.3496 4.79371 21.3496 5.59766V9.25C21.3496 9.85751 20.8575 10.3496 20.25 10.3496H18.4023C17.7948 10.3496 17.3027 9.85751 17.3027 9.25V6.69727H14.75C14.1425 6.69727 13.6504 6.20517 13.6504 5.59766V3.75C13.6504 3.14249 14.1425 2.65039 14.75 2.65039H18.4023V3.75H14.75V5.59766H18.4023V9.25H20.25V5.59766ZM6.69727 17.3027H9.25C9.85751 17.3027 10.3496 17.7948 10.3496 18.4023V20.25C10.3496 20.8575 9.85751 21.3496 9.25 21.3496H5.59766C4.79371 21.3496 4.09139 21.0289 3.53125 20.4688C2.97111 19.9086 2.65039 19.2063 2.65039 18.4023V14.75C2.65039 14.1425 3.14249 13.6504 3.75 13.6504H5.59766C6.20517 13.6504 6.69727 14.1425 6.69727 14.75V17.3027ZM21.3496 18.4023C21.3496 19.2063 21.0289 19.9086 20.4688 20.4688C19.9086 21.0289 19.2063 21.3496 18.4023 21.3496H14.75C14.1425 21.3496 13.6504 20.8575 13.6504 20.25V18.4023C13.6504 17.7948 14.1425 17.3027 14.75 17.3027H17.3027V14.75C17.3027 14.1425 17.7948 13.6504 18.4023 13.6504H20.25C20.8575 13.6504 21.3496 14.1425 21.3496 14.75V18.4023Z" fill="currentColor"/> </svg>