<svg width="24" height="24" viewBox="0 0 24 24" fill="none" xmlns="http://www.w3.org/2000/svg"> <path d="M6.52631 7.91809C6.82089 7.67778 7.25561 7.69524 7.53022 7.96984L11.0302 11.4698C11.3231 11.7627 11.3231 12.2375 11.0302 12.5304L7.53022 16.0304C7.23732 16.3233 6.76256 16.3233 6.46967 16.0304L2.96967 12.5304C2.67678 12.2375 2.67678 11.7627 2.96967 11.4698L6.46967 7.96984L6.52631 7.91809ZM17.9999 13.7501C18.4142 13.7501 18.7499 14.0859 18.7499 14.5001C18.7499 14.9143 18.4142 15.2501 17.9999 15.2501H12.9999C12.5857 15.2501 12.2499 14.9143 12.2499 14.5001C12.2499 14.0859 12.5857 13.7501 12.9999 13.7501H17.9999ZM4.56049 12.0001L6.99994 14.4396L9.4394 12.0001L6.99994 9.56066L4.56049 12.0001ZM20.4999 8.75012C20.9142 8.75012 21.2499 9.0859 21.2499 9.50012C21.2499 9.91433 20.9142 10.2501 20.4999 10.2501H12.9999C12.5857 10.2501 12.2499 9.91433 12.2499 9.50012C12.2499 9.0859 12.5857 8.75012 12.9999 8.75012H20.4999Z" fill="currentColor"/> </svg>