<svg width="24" height="24" viewBox="0 0 24 24" fill="none" xmlns="http://www.w3.org/2000/svg"> <path d="M16.5977 2.84766V5.59766H13.8477V7.40234H16.5977V10.1523H18.4023V7.40234H21.1523V5.59766H18.4023V2.84766H16.5977ZM16.5977 18.4023H5.59766L8.34766 14.75L10.1523 17.5L12.9023 13.8477L16.5977 18.4023ZM11.6787 17.3027H14.2881L12.9346 15.6338L11.6787 17.3027ZM7.80273 17.3027H8.70703L8.28516 16.6611L7.80273 17.3027ZM19.502 4.49805H21.1523C21.7599 4.49805 22.252 4.99014 22.252 5.59766V7.40234C22.252 8.00986 21.7599 8.50195 21.1523 8.50195H19.502V10.1523C19.502 10.3219 19.4621 10.4816 19.3936 10.625C19.4621 10.7684 19.502 10.9281 19.502 11.0977V18.4023C19.502 19.1913 19.1913 19.8806 18.6504 20.4355L18.6523 20.4375C18.1099 21.0251 17.4055 21.3496 16.5977 21.3496H5.59766C4.79371 21.3496 4.09139 21.0289 3.53125 20.4688C2.97111 19.9086 2.65039 19.2063 2.65039 18.4023V7.40234C2.65039 6.59452 2.97489 5.89007 3.5625 5.34766L3.56445 5.34863C4.11927 4.80803 4.80893 4.49805 5.59766 4.49805V5.59766C5.11068 5.59766 4.68099 5.78385 4.30859 6.15625C3.9362 6.5 3.75 6.91536 3.75 7.40234V18.4023C3.75 18.8893 3.9362 19.319 4.30859 19.6914C4.68099 20.0638 5.11068 20.25 5.59766 20.25H16.5977C17.0846 20.25 17.5 20.0638 17.8438 19.6914C18.2161 19.319 18.4023 18.8893 18.4023 18.4023V11.0977H15.6523V8.34766H12.9023V5.59766H5.59766V4.49805H12.9023C13.0717 4.49805 13.2317 4.53707 13.375 4.60547C13.5183 4.53707 13.6783 4.49805 13.8477 4.49805H15.498V2.84766C15.498 2.24014 15.9901 1.74805 16.5977 1.74805H18.4023C19.0099 1.74805 19.502 2.24014 19.502 2.84766V4.49805Z" fill="currentColor"/> </svg>