<svg width="24" height="24" viewBox="0 0 24 24" fill="none" xmlns="http://www.w3.org/2000/svg"> <path d="M10.5918 17.8311C10.5861 17.8386 10.5793 17.8453 10.5732 17.8525H15.4434L12.918 14.7402L10.5918 17.8311ZM6.7002 17.8525H9.73047C9.71699 17.8364 9.70406 17.8196 9.69238 17.8018L8.31641 15.7051L6.7002 17.8525ZM16.2021 10.5479H16.2168C16.2116 10.5429 16.2071 10.5374 16.2021 10.5322V10.5479ZM16.0332 7.95215C16.0382 7.95695 16.0431 7.96181 16.0479 7.9668V7.95215H16.0332ZM13.4521 7.79785H13.4668C13.4616 7.79289 13.4571 7.78738 13.4521 7.78223V7.79785ZM18.9521 10.1523C18.9521 10.3548 18.8416 10.5295 18.6787 10.625C18.8416 10.7205 18.9521 10.8952 18.9521 11.0977V18.4023C18.9521 19.0406 18.7034 19.6002 18.2471 20.0635L18.248 20.0645C17.805 20.5445 17.2451 20.7998 16.5977 20.7998H5.59766C4.95219 20.7998 4.38619 20.5463 3.91992 20.0801C3.45366 19.6138 3.2002 19.0478 3.2002 18.4023V7.40234C3.2002 6.8358 3.39604 6.33668 3.7666 5.92383L3.93555 5.75195C4.39881 5.29562 4.95941 5.04785 5.59766 5.04785H12.9023C13.1045 5.04785 13.2794 5.15779 13.375 5.32031C13.4706 5.15779 13.6455 5.04785 13.8477 5.04785H16.0479V2.84766C16.0479 2.5439 16.2939 2.29785 16.5977 2.29785H18.4023C18.7061 2.29785 18.9521 2.5439 18.9521 2.84766V5.04785H21.1523C21.4561 5.04785 21.7021 5.2939 21.7021 5.59766V7.40234C21.7021 7.7061 21.4561 7.95215 21.1523 7.95215H18.9521V10.1523Z" stroke="currentColor" stroke-width="1.1" stroke-linecap="round" stroke-linejoin="round"/> </svg>