<svg width="24" height="24" viewBox="0 0 24 24" fill="none" xmlns="http://www.w3.org/2000/svg"> <path d="M11.7148 3.2793C11.9187 3.15557 12.1851 3.17677 12.3682 3.3418L21.5205 11.5918C21.6895 11.7442 21.7476 11.9848 21.666 12.1973C21.5844 12.4098 21.38 12.5498 21.1523 12.5498H18.9521V19.3477C18.9521 19.6514 18.7061 19.8975 18.4023 19.8975H13.8477C13.5439 19.8975 13.2979 19.6514 13.2979 19.3477V14.3975H10.7021V19.3477C10.7021 19.6514 10.4561 19.8975 10.1523 19.8975H5.59766C5.2939 19.8975 5.04785 19.6514 5.04785 19.3477V12.5498H2.84766C2.62001 12.5498 2.41563 12.4098 2.33398 12.1973C2.2524 11.9848 2.31051 11.7442 2.47949 11.5918L11.6318 3.3418L11.7148 3.2793Z" stroke="currentColor" stroke-width="1.1" stroke-linecap="round" stroke-linejoin="round"/> </svg>