<svg width="24" height="24" viewBox="0 0 24 24" fill="none" xmlns="http://www.w3.org/2000/svg"> <path d="M12.7481 14.9473H11.252V19.3477C11.252 19.9552 10.7599 20.4473 10.1524 20.4473H5.59769C4.99018 20.4473 4.49809 19.9552 4.49809 19.3477V13.0996H2.84769C2.39246 13.0996 1.98466 12.8195 1.82133 12.3945C1.65804 11.9695 1.77318 11.4875 2.11137 11.1826L11.2637 2.93263L11.3448 2.86623C11.7609 2.55713 12.3441 2.57928 12.7364 2.93263L21.8887 11.1826C22.2269 11.4875 22.342 11.9695 22.1787 12.3945C22.0154 12.8195 21.6076 13.0996 21.1524 13.0996H19.502V19.3477C19.502 19.9552 19.0099 20.4473 18.4024 20.4473H13.8477C13.2402 20.4473 12.7481 19.9552 12.7481 19.3477V14.9473ZM18.4023 19.3477V12H21.1523L12 3.75L2.84766 12H5.59766V19.3477H10.1523V13.8477H13.8477V19.3477H18.4023Z" fill="currentColor"/> </svg>