<svg width="24" height="24" viewBox="0 0 24 24" fill="none" xmlns="http://www.w3.org/2000/svg"> <path d="M7.65324 5.6465C8.08529 5.29416 8.72221 5.31996 9.12492 5.72267L10.414 7.01173C10.621 7.2187 10.737 7.4993 10.7362 7.792C10.7355 8.08466 10.6181 8.36541 10.4101 8.5713L6.94621 12L10.4101 15.4287C10.6181 15.6346 10.7355 15.9154 10.7362 16.208C10.737 16.5007 10.621 16.7813 10.414 16.9883L9.12492 18.2774C8.69534 18.7069 7.99981 18.7069 7.57023 18.2774L2.07023 12.7774C1.64065 12.3478 1.64065 11.6522 2.07023 11.2227L7.57023 5.72267L7.65324 5.6465ZM14.9579 5.6465C15.39 5.29416 16.0269 5.31996 16.4296 5.72267L21.9296 11.2227C22.3592 11.6522 22.3592 12.3478 21.9296 12.7774L16.4296 18.2774C16 18.7069 15.3045 18.7069 14.8749 18.2774L13.5859 16.9883C13.3789 16.7813 13.2628 16.5007 13.2636 16.208C13.2644 15.9154 13.3818 15.6346 13.5898 15.4287L17.0527 12L13.5898 8.5713C13.3818 8.36541 13.2644 8.08466 13.2636 7.792C13.2628 7.4993 13.3789 7.2187 13.5859 7.01173L14.8749 5.72267L14.9579 5.6465ZM2.84766 12L8.34766 17.5L9.63672 16.2109L5.38281 12L9.63672 7.78906L8.34766 6.5L2.84766 12ZM14.3633 7.78906L18.6172 12L14.3633 16.2109L15.6523 17.5L21.1523 12L15.6523 6.5L14.3633 7.78906Z" fill="currentColor"/> </svg>