<svg width="24" height="24" viewBox="0 0 24 24" fill="none" xmlns="http://www.w3.org/2000/svg"> <path d="M18.4023 3.2002C19.0478 3.2002 19.6138 3.45366 20.0801 3.91992C20.5463 4.38619 20.7998 4.95219 20.7998 5.59766V18.4023C20.7998 19.0478 20.5463 19.6138 20.0801 20.0801C19.6138 20.5463 19.0478 20.7998 18.4023 20.7998H5.59766C4.95219 20.7998 4.38619 20.5463 3.91992 20.0801C3.45366 19.6138 3.2002 19.0478 3.2002 18.4023V5.59766C3.2002 4.95219 3.45366 4.38619 3.91992 3.91992C4.38619 3.45366 4.95219 3.2002 5.59766 3.2002H18.4023ZM11.5332 16.4609C11.4317 16.5926 11.2756 16.6711 11.1094 16.6748C10.9433 16.6783 10.7849 16.6064 10.6777 16.4795L8.79688 14.25L6.71582 16.9502H17.3018L14.2705 12.9082L11.5332 16.4609Z" stroke="currentColor" stroke-width="1.1" stroke-linecap="round" stroke-linejoin="round"/> </svg>