<svg width="24" height="24" viewBox="0 0 24 24" fill="none" xmlns="http://www.w3.org/2000/svg"> <path d="M2.65039 18.4023V5.59766C2.65039 4.79371 2.97111 4.09139 3.53125 3.53125C4.09139 2.97111 4.79371 2.65039 5.59766 2.65039V3.75C5.11068 3.75 4.68099 3.9362 4.30859 4.30859C3.9362 4.68099 3.75 5.11068 3.75 5.59766V18.4023C3.75 18.8893 3.9362 19.319 4.30859 19.6914C4.68099 20.0638 5.11068 20.25 5.59766 20.25H18.4023C18.8893 20.25 19.319 20.0638 19.6914 19.6914C20.0638 19.319 20.25 18.8893 20.25 18.4023V5.59766C20.25 5.11068 20.0638 4.68099 19.6914 4.30859C19.319 3.9362 18.8893 3.75 18.4023 3.75V2.65039C19.2063 2.65039 19.9086 2.97111 20.4688 3.53125C21.0289 4.09139 21.3496 4.79371 21.3496 5.59766V18.4023C21.3496 19.2063 21.0289 19.9086 20.4688 20.4688C19.9086 21.0289 19.2063 21.3496 18.4023 21.3496H5.59766C4.79371 21.3496 4.09139 21.0289 3.53125 20.4688C2.97111 19.9086 2.65039 19.2063 2.65039 18.4023ZM18.4023 17.5H5.59766L8.77734 13.375L11.0977 16.125L14.2773 12L18.4023 17.5ZM12.2744 16.4004H16.2021L14.2646 13.8174L12.2744 16.4004ZM7.83398 16.4004H9.89062L8.81543 15.126L7.83398 16.4004ZM18.4023 2.65039V3.75H5.59766V2.65039H18.4023Z" fill="currentColor"/> </svg>