<svg width="24" height="24" viewBox="0 0 24 24" fill="none" xmlns="http://www.w3.org/2000/svg"> <path d="M17.5 4.10254C17.8038 4.10254 18.0498 4.34859 18.0498 4.65234V7.40234C18.0498 7.7061 17.8038 7.95215 17.5 7.95215H15.2871L12.6562 14.2002H13.8477C14.1514 14.2002 14.3975 14.4462 14.3975 14.75V17.5C14.3975 17.8038 14.1514 18.0498 13.8477 18.0498H6.5C6.19624 18.0498 5.9502 17.8038 5.9502 17.5V14.75C5.9502 14.4462 6.19624 14.2002 6.5 14.2002H8.71289L11.3438 7.95215H10.1523C9.84859 7.95215 9.60254 7.7061 9.60254 7.40234V4.65234C9.60254 4.34859 9.84859 4.10254 10.1523 4.10254H17.5Z" stroke="currentColor" stroke-width="1.1" stroke-linecap="round" stroke-linejoin="round"/> </svg>