<svg width="24" height="24" viewBox="0 0 24 24" fill="none" xmlns="http://www.w3.org/2000/svg"> <path d="M13.8477 14.75H11.8281L14.9219 7.40234H17.5V4.65234H10.1523V7.40234H12.1719L9.07812 14.75H6.5V17.5H13.8477V14.75ZM18.5996 7.40234C18.5996 8.00986 18.1075 8.50195 17.5 8.50195H15.6523L13.4844 13.6504H13.8477C14.4552 13.6504 14.9473 14.1425 14.9473 14.75V17.5C14.9473 18.1075 14.4552 18.5996 13.8477 18.5996H6.5C5.89249 18.5996 5.40039 18.1075 5.40039 17.5V14.75C5.40039 14.1425 5.89249 13.6504 6.5 13.6504H8.34766L10.5156 8.50195H10.1523C9.54483 8.50195 9.05273 8.00986 9.05273 7.40234V4.65234C9.05273 4.04483 9.54483 3.55273 10.1523 3.55273H17.5C18.1075 3.55273 18.5996 4.04483 18.5996 4.65234V7.40234Z" fill="currentColor"/> </svg>