<svg width="24" height="24" viewBox="0 0 24 24" fill="none" xmlns="http://www.w3.org/2000/svg"> <path d="M20.25 17.8525C20.5538 17.8525 20.7998 18.0986 20.7998 18.4023V20.25C20.7998 20.5538 20.5538 20.7998 20.25 20.7998H3.75C3.44624 20.7998 3.2002 20.5538 3.2002 20.25V18.4023C3.2002 18.0986 3.44624 17.8525 3.75 17.8525H20.25ZM14.75 14.2002C15.0538 14.2002 15.2998 14.4462 15.2998 14.75V16.5977C15.2998 16.9014 15.0538 17.1475 14.75 17.1475H3.75C3.44624 17.1475 3.2002 16.9014 3.2002 16.5977V14.75C3.2002 14.4462 3.44624 14.2002 3.75 14.2002H14.75ZM20.25 10.5479C20.5538 10.5479 20.7998 10.7939 20.7998 11.0977V12.9023C20.7998 13.2061 20.5538 13.4521 20.25 13.4521H3.75C3.44624 13.4521 3.2002 13.2061 3.2002 12.9023V11.0977C3.2002 10.7939 3.44624 10.5479 3.75 10.5479H20.25ZM14.75 6.85254C15.0538 6.85254 15.2998 7.09859 15.2998 7.40234V9.25C15.2998 9.55376 15.0538 9.7998 14.75 9.7998H3.75C3.44624 9.7998 3.2002 9.55376 3.2002 9.25V7.40234C3.2002 7.09859 3.44624 6.85254 3.75 6.85254H14.75ZM20.25 3.2002C20.5538 3.2002 20.7998 3.44624 20.7998 3.75V5.59766L20.7891 5.70898C20.7376 5.9594 20.5156 6.14746 20.25 6.14746H3.75C3.44624 6.14746 3.2002 5.90141 3.2002 5.59766V3.75C3.2002 3.44624 3.44624 3.2002 3.75 3.2002H20.25Z" stroke="currentColor" stroke-width="1.1" stroke-linecap="round" stroke-linejoin="round"/> </svg>