<svg width="24" height="24" viewBox="0 0 24 24" fill="none" xmlns="http://www.w3.org/2000/svg"> <path d="M20.25 18.4023H3.75V20.25H20.25V18.4023ZM7.40234 14.75V16.5977H16.5977V14.75H7.40234ZM3.75 11.0977V12.9023H20.25V11.0977H3.75ZM7.40234 7.40234V9.25H16.5977V7.40234H7.40234ZM3.75 3.75V5.59766H20.25V3.75H3.75ZM21.3496 5.59766C21.3496 6.20517 20.8575 6.69727 20.25 6.69727H17.4414C17.6012 6.88822 17.6973 7.13391 17.6973 7.40234V9.25C17.6973 9.53957 17.5843 9.80162 17.4014 9.99805H20.25C20.8575 9.99805 21.3496 10.4901 21.3496 11.0977V12.9023C21.3496 13.5099 20.8575 14.002 20.25 14.002H17.4014C17.5843 14.1984 17.6973 14.4604 17.6973 14.75V16.5977C17.6973 16.8661 17.6012 17.1118 17.4414 17.3027H20.25C20.8575 17.3027 21.3496 17.7948 21.3496 18.4023V20.25C21.3496 20.8575 20.8575 21.3496 20.25 21.3496H3.75C3.14249 21.3496 2.65039 20.8575 2.65039 20.25V18.4023C2.65039 17.7948 3.14249 17.3027 3.75 17.3027H6.55859C6.39885 17.1118 6.30273 16.8661 6.30273 16.5977V14.75C6.30273 14.4604 6.41573 14.1984 6.59863 14.002H3.75C3.14249 14.002 2.65039 13.5099 2.65039 12.9023V11.0977C2.65039 10.4901 3.14249 9.99805 3.75 9.99805H6.59863C6.41573 9.80162 6.30273 9.53957 6.30273 9.25V7.40234C6.30273 7.13391 6.39885 6.88822 6.55859 6.69727H3.75C3.14249 6.69727 2.65039 6.20517 2.65039 5.59766V3.75C2.65039 3.14249 3.14249 2.65039 3.75 2.65039H20.25C20.8575 2.65039 21.3496 3.14249 21.3496 3.75V5.59766Z" fill="currentColor"/> </svg>