<svg width="24" height="24" viewBox="0 0 24 24" fill="none" xmlns="http://www.w3.org/2000/svg"> <path d="M20.25 18.4023H3.75V20.25H20.25V18.4023ZM9.25 14.75V16.5977H20.25V14.75H9.25ZM3.75 11.0977V12.9023H20.25V11.0977H3.75ZM9.25 7.40234V9.25H20.25V7.40234H9.25ZM3.75 3.75V5.59766H20.25V3.75H3.75ZM21.3496 5.59766C21.3496 5.97155 21.163 6.30124 20.8779 6.5C21.163 6.69876 21.3496 7.02845 21.3496 7.40234V9.25C21.3496 9.63778 21.1489 9.97795 20.8457 10.1738C21.1489 10.3697 21.3496 10.7099 21.3496 11.0977V12.9023C21.3496 13.2901 21.1489 13.6303 20.8457 13.8262C21.1489 14.0221 21.3496 14.3622 21.3496 14.75V16.5977C21.3496 16.9715 21.163 17.3012 20.8779 17.5C21.163 17.6988 21.3496 18.0285 21.3496 18.4023V20.25C21.3496 20.8575 20.8575 21.3496 20.25 21.3496H3.75C3.14249 21.3496 2.65039 20.8575 2.65039 20.25V18.4023C2.65039 17.7948 3.14249 17.3027 3.75 17.3027H8.40625C8.24651 17.1118 8.15039 16.8661 8.15039 16.5977V14.75C8.15039 14.4604 8.26338 14.1984 8.44629 14.002H3.75C3.14249 14.002 2.65039 13.5099 2.65039 12.9023V11.0977C2.65039 10.4901 3.14249 9.99805 3.75 9.99805H8.44629C8.26338 9.80162 8.15039 9.53957 8.15039 9.25V7.40234C8.15039 7.13391 8.24651 6.88822 8.40625 6.69727H3.75C3.14249 6.69727 2.65039 6.20517 2.65039 5.59766V3.75C2.65039 3.14249 3.14249 2.65039 3.75 2.65039H20.25C20.8575 2.65039 21.3496 3.14249 21.3496 3.75V5.59766Z" fill="currentColor"/> </svg>