<svg width="24" height="24" viewBox="0 0 24 24" fill="none" xmlns="http://www.w3.org/2000/svg"> <path d="M20.25 18.4023H3.75V20.25H20.25V18.4023ZM3.75 14.75V16.5977H14.75V14.75H3.75ZM3.75 11.0977V12.9023H20.25V11.0977H3.75ZM3.75 7.40234V9.25H14.75V7.40234H3.75ZM3.75 3.75V5.59766H20.25V3.75H3.75ZM21.3496 5.59766C21.3496 6.20517 20.8575 6.69727 20.25 6.69727H15.5938C15.7535 6.88822 15.8496 7.13391 15.8496 7.40234V9.25C15.8496 9.53957 15.7366 9.80162 15.5537 9.99805H20.25C20.8575 9.99805 21.3496 10.4901 21.3496 11.0977V12.9023C21.3496 13.5099 20.8575 14.002 20.25 14.002H15.5537C15.7366 14.1984 15.8496 14.4604 15.8496 14.75V16.5977C15.8496 16.8661 15.7535 17.1118 15.5938 17.3027H20.25C20.8575 17.3027 21.3496 17.7948 21.3496 18.4023V20.25C21.3496 20.8575 20.8575 21.3496 20.25 21.3496H3.75C3.14249 21.3496 2.65039 20.8575 2.65039 20.25V18.4023C2.65039 18.0285 2.83698 17.6988 3.12207 17.5C2.83698 17.3012 2.65039 16.9715 2.65039 16.5977V14.75C2.65039 14.3622 2.85115 14.0221 3.1543 13.8262C2.85115 13.6303 2.65039 13.2901 2.65039 12.9023V11.0977C2.65039 10.7099 2.85115 10.3697 3.1543 10.1738C2.85115 9.97795 2.65039 9.63778 2.65039 9.25V7.40234C2.65039 7.02845 2.83698 6.69876 3.12207 6.5C2.83698 6.30124 2.65039 5.97155 2.65039 5.59766V3.75C2.65039 3.14249 3.14249 2.65039 3.75 2.65039H20.25C20.8575 2.65039 21.3496 3.14249 21.3496 3.75V5.59766Z" fill="currentColor"/> </svg>