<svg width="24" height="24" viewBox="0 0 24 24" fill="none" xmlns="http://www.w3.org/2000/svg"> <path d="M20.25 17.8525C20.5538 17.8525 20.7998 18.0986 20.7998 18.4023V20.25C20.7998 20.5538 20.5538 20.7998 20.25 20.7998H3.75C3.44624 20.7998 3.2002 20.5538 3.2002 20.25V18.4023C3.2002 18.0986 3.44624 17.8525 3.75 17.8525H20.25ZM16.5977 14.2002C16.9014 14.2002 17.1475 14.4462 17.1475 14.75V16.5977C17.1475 16.9014 16.9014 17.1475 16.5977 17.1475H7.40234C7.09859 17.1475 6.85254 16.9014 6.85254 16.5977V14.75C6.85254 14.4462 7.09859 14.2002 7.40234 14.2002H16.5977ZM20.25 10.5479C20.5538 10.5479 20.7998 10.7939 20.7998 11.0977V12.9023C20.7998 13.2061 20.5538 13.4521 20.25 13.4521H3.75C3.44624 13.4521 3.2002 13.2061 3.2002 12.9023V11.0977C3.2002 10.7939 3.44624 10.5479 3.75 10.5479H20.25ZM16.5977 6.85254C16.9014 6.85254 17.1475 7.09859 17.1475 7.40234V9.25C17.1475 9.55376 16.9014 9.7998 16.5977 9.7998H7.40234C7.09859 9.7998 6.85254 9.55376 6.85254 9.25V7.40234C6.85254 7.09859 7.09859 6.85254 7.40234 6.85254H16.5977ZM20.25 3.2002C20.5538 3.2002 20.7998 3.44624 20.7998 3.75V5.59766L20.7891 5.70898C20.7376 5.9594 20.5156 6.14746 20.25 6.14746H3.75C3.44624 6.14746 3.2002 5.90141 3.2002 5.59766V3.75C3.2002 3.44624 3.44624 3.2002 3.75 3.2002H20.25Z" stroke="currentColor" stroke-width="1.1" stroke-linecap="round" stroke-linejoin="round"/> </svg>