<svg width="24" height="24" viewBox="0 0 24 24" fill="none" xmlns="http://www.w3.org/2000/svg"> <path d="M11.8125 14.002C11.883 14.0625 11.9467 14.1307 12 14.207C12.0533 14.1307 12.117 14.0625 12.1875 14.002H11.8125ZM12 9.79199C11.9466 9.86862 11.8832 9.93736 11.8125 9.99805H12.1875C12.1168 9.93736 12.0534 9.86862 12 9.79199ZM8.34766 11.0977V12.9023H15.6523V11.0977H8.34766ZM16.752 12.9023C16.752 13.2365 16.6023 13.5346 16.3672 13.7363H16.5977V14.8359H12.9023V16.5977H16.5977C17.8581 16.5977 18.9323 16.1536 19.8203 15.2656C20.7083 14.349 21.1523 13.2604 21.1523 12C21.1523 10.7396 20.7083 9.66536 19.8203 8.77734C18.9323 7.86068 17.8581 7.40234 16.5977 7.40234V6.30273C18.16 6.30273 19.5181 6.8843 20.6104 8.01172C21.6978 9.10481 22.252 10.4546 22.252 12C22.252 13.5501 21.6944 14.9123 20.6104 16.0312C20.6063 16.0354 20.6017 16.0389 20.5977 16.043C19.5025 17.1381 18.1486 17.6973 16.5977 17.6973H12.9023C12.5285 17.6973 12.1988 17.5107 12 17.2256C11.8012 17.5107 11.4715 17.6973 11.0977 17.6973H7.40234C5.85138 17.6973 4.4975 17.1381 3.40234 16.043C3.39828 16.0389 3.39365 16.0354 3.38965 16.0312C2.30564 14.9123 1.74805 13.5501 1.74805 12C1.74805 10.4548 2.30254 9.10472 3.38965 8.01172L3.59766 7.80664C4.65254 6.81378 5.93769 6.30273 7.40234 6.30273V7.40234C6.14193 7.40234 5.06771 7.86068 4.17969 8.77734C3.29167 9.66536 2.84766 10.7396 2.84766 12C2.84766 13.2604 3.29167 14.349 4.17969 15.2656C5.06771 16.1536 6.14193 16.5977 7.40234 16.5977H11.0977V14.8359H7.40234V13.7363H7.63281C7.39767 13.5346 7.24805 13.2365 7.24805 12.9023V11.0977C7.24805 10.7635 7.39767 10.4654 7.63281 10.2637H7.40234C6.93574 10.2637 6.53771 10.4232 6.16016 10.8008C5.8233 11.1376 5.66602 11.5167 5.66602 12C5.66602 12.4756 5.82026 12.8727 6.16113 13.2402C6.52895 13.5818 6.9263 13.7363 7.40234 13.7363V14.8359C6.62891 14.8359 5.95573 14.5638 5.38281 14.0195C4.83854 13.4466 4.56641 12.7734 4.56641 12C4.56641 11.2266 4.83854 10.5677 5.38281 10.0234C5.95573 9.45052 6.62891 9.16406 7.40234 9.16406H11.0977V7.40234H7.40234V6.30273H11.0977C11.4715 6.30273 11.8012 6.48932 12 6.77441C12.1988 6.48932 12.5285 6.30273 12.9023 6.30273H16.5977V7.40234H12.9023V9.16406H16.5977C17.3711 9.16406 18.0299 9.45052 18.5742 10.0234C19.1471 10.5677 19.4336 11.2266 19.4336 12C19.4336 12.7734 19.1471 13.4466 18.5742 14.0195C18.0299 14.5638 17.3711 14.8359 16.5977 14.8359V13.7363C17.0809 13.7363 17.46 13.579 17.7969 13.2422C18.1744 12.8646 18.334 12.4666 18.334 12C18.334 11.5354 18.176 11.163 17.8164 10.8213C17.8028 10.8083 17.7893 10.7949 17.7764 10.7812C17.4347 10.4216 17.0622 10.2637 16.5977 10.2637H16.3672C16.6023 10.4654 16.752 10.7635 16.752 11.0977V12.9023Z" fill="currentColor"/> </svg>