<svg width="24" height="24" viewBox="0 0 24 24" fill="none" xmlns="http://www.w3.org/2000/svg"> <path d="M11.0977 6.85254C11.4014 6.85254 11.6475 7.09859 11.6475 7.40234V9.16406L11.6367 9.27539C11.5853 9.52581 11.3633 9.71387 11.0977 9.71387H7.40234C6.78232 9.71387 6.24672 9.93687 5.77148 10.4121C5.33092 10.8527 5.11621 11.3716 5.11621 12C5.11621 12.6243 5.32889 13.1593 5.77148 13.6299C6.2423 14.0731 6.77758 14.2861 7.40234 14.2861H11.0977C11.4014 14.2861 11.6475 14.5322 11.6475 14.8359V16.5977C11.6475 16.9014 11.4014 17.1475 11.0977 17.1475H7.40234C5.99666 17.1475 4.7826 16.6459 3.79102 15.6543L3.78418 15.6484C2.79828 14.6306 2.29785 13.4052 2.29785 12C2.29785 10.5973 2.7968 9.38495 3.78418 8.39453C4.77433 7.37244 5.99093 6.85254 7.40234 6.85254H11.0977ZM16.5977 6.85254C18.0091 6.85254 19.2257 7.37244 20.2158 8.39453H20.2148C21.2025 9.38504 21.7021 10.5971 21.7021 12C21.7021 13.4052 21.2017 14.6306 20.2158 15.6484L20.209 15.6543C19.2174 16.6459 18.0033 17.1475 16.5977 17.1475H12.9023C12.5986 17.1475 12.3525 16.9014 12.3525 16.5977V14.8359C12.3525 14.5322 12.5986 14.2861 12.9023 14.2861H16.5977C17.226 14.2861 17.745 14.0714 18.1855 13.6309C18.6608 13.1556 18.8838 12.62 18.8838 12C18.8838 11.381 18.6616 10.8649 18.1953 10.4219C18.1886 10.4155 18.1821 10.409 18.1758 10.4023C17.7328 9.93605 17.2167 9.71387 16.5977 9.71387H12.9023C12.5986 9.71387 12.3525 9.46782 12.3525 9.16406V7.40234C12.3525 7.09859 12.5986 6.85254 12.9023 6.85254H16.5977ZM15.6523 10.5479C15.9561 10.5479 16.2021 10.7939 16.2021 11.0977V12.9023C16.2021 13.2061 15.9561 13.4521 15.6523 13.4521H8.34766C8.0439 13.4521 7.79785 13.2061 7.79785 12.9023V11.0977C7.79785 10.7939 8.0439 10.5479 8.34766 10.5479H15.6523Z" stroke="currentColor" stroke-width="1.1" stroke-linecap="round" stroke-linejoin="round"/> </svg>