<svg width="24" height="24" viewBox="0 0 24 24" fill="none" xmlns="http://www.w3.org/2000/svg"> <path d="M7.40234 16.5977V18.4023H20.25V16.5977H7.40234ZM7.40234 11.0977V12.9023H20.25V11.0977H7.40234ZM7.40234 5.59766V7.40234H20.25V5.59766H7.40234ZM3.27734 17.5C3.27734 17.8724 3.40625 18.2018 3.66406 18.4883C3.95052 18.7461 4.27995 18.875 4.65234 18.875C5.02474 18.875 5.33984 18.7461 5.59766 18.4883C5.88411 18.2018 6.02734 17.8724 6.02734 17.5C6.02734 17.1276 5.88411 16.8125 5.59766 16.5547C5.33984 16.2682 5.02474 16.125 4.65234 16.125C4.27995 16.125 3.95052 16.2682 3.66406 16.5547C3.40625 16.8125 3.27734 17.1276 3.27734 17.5ZM21.3496 18.4023C21.3496 19.0099 20.8575 19.502 20.25 19.502H7.40234C7.05301 19.502 6.74252 19.3389 6.54102 19.085C6.48875 19.1471 6.43332 19.2073 6.375 19.2656C5.90601 19.7346 5.30949 19.9746 4.65234 19.9746C3.99795 19.9746 3.40843 19.7383 2.92773 19.3057C2.89933 19.2801 2.87227 19.253 2.84668 19.2246C2.41405 18.7439 2.17773 18.1544 2.17773 17.5C2.17773 16.8429 2.41773 16.2463 2.88672 15.7773C3.35949 15.3046 3.96113 15.0254 4.65234 15.0254C5.30949 15.0254 5.88586 15.281 6.33398 15.7373L6.51367 15.916C6.51851 15.9213 6.52256 15.9273 6.52734 15.9326C6.72827 15.6687 7.04501 15.498 7.40234 15.498H20.25C20.8575 15.498 21.3496 15.9901 21.3496 16.5977V18.4023ZM3.27734 12C3.27734 12.401 3.40625 12.7305 3.66406 12.9883C3.95052 13.2461 4.27995 13.375 4.65234 13.375C5.02474 13.375 5.33984 13.2461 5.59766 12.9883C5.88411 12.7305 6.02734 12.401 6.02734 12C6.02734 11.599 5.88411 11.2695 5.59766 11.0117C5.33984 10.7539 5.02474 10.625 4.65234 10.625C4.27995 10.625 3.95052 10.7539 3.66406 11.0117C3.40625 11.2695 3.27734 11.599 3.27734 12ZM21.3496 12.9023C21.3496 13.5099 20.8575 14.002 20.25 14.002H7.40234C7.05477 14.002 6.74553 13.8406 6.54395 13.5889C6.49095 13.6496 6.43425 13.708 6.37402 13.7646L6.375 13.7656C6.37141 13.7692 6.36688 13.7718 6.36328 13.7754C6.35304 13.7849 6.34443 13.7963 6.33398 13.8057L6.33203 13.8037C5.86947 14.2463 5.29047 14.4746 4.65234 14.4746C3.99795 14.4746 3.40843 14.2383 2.92773 13.8057C2.91353 13.7929 2.90023 13.7791 2.88672 13.7656C2.40102 13.2799 2.17773 12.6607 2.17773 12C2.17773 11.3393 2.40102 10.7201 2.88672 10.2344L2.92773 10.1943C3.40843 9.76171 3.99795 9.52539 4.65234 9.52539C5.29025 9.52539 5.86955 9.75308 6.33203 10.1953L6.33398 10.1943C6.34427 10.2036 6.3532 10.2143 6.36328 10.2236C6.36705 10.2274 6.37125 10.2306 6.375 10.2344C6.43522 10.291 6.49095 10.3494 6.54395 10.4102C6.74554 10.1588 7.05504 9.99805 7.40234 9.99805H20.25C20.8575 9.99805 21.3496 10.4901 21.3496 11.0977V12.9023ZM3.27734 6.5C3.27734 6.90104 3.40625 7.23047 3.66406 7.48828C3.95052 7.74609 4.27995 7.875 4.65234 7.875C5.02474 7.875 5.33984 7.74609 5.59766 7.48828C5.88411 7.23047 6.02734 6.90104 6.02734 6.5C6.02734 6.09896 5.88411 5.76953 5.59766 5.51172C5.33984 5.25391 5.02474 5.125 4.65234 5.125C4.27995 5.125 3.95052 5.25391 3.66406 5.51172C3.40625 5.76953 3.27734 6.09896 3.27734 6.5ZM21.3496 7.40234C21.3496 8.00986 20.8575 8.50195 20.25 8.50195H7.40234C7.05477 8.50195 6.74553 8.34059 6.54395 8.08887C6.49095 8.14962 6.43425 8.20795 6.37402 8.26465L6.375 8.26562C6.37141 8.26921 6.36688 8.27183 6.36328 8.27539C6.35304 8.28492 6.34443 8.29626 6.33398 8.30566L6.33203 8.30371C5.86947 8.74625 5.29047 8.97461 4.65234 8.97461C3.99795 8.97461 3.40843 8.73829 2.92773 8.30566C2.91353 8.29287 2.90023 8.27914 2.88672 8.26562C2.40102 7.77992 2.17773 7.16075 2.17773 6.5C2.17773 5.83925 2.40102 5.22008 2.88672 4.73438C2.90023 4.72086 2.91353 4.70713 2.92773 4.69434C3.40843 4.26171 3.99795 4.02539 4.65234 4.02539C5.29047 4.02539 5.86947 4.25375 6.33203 4.69629L6.33398 4.69434C6.34443 4.70374 6.35304 4.71508 6.36328 4.72461C6.36688 4.72817 6.37141 4.73079 6.375 4.73438L6.37402 4.73535C6.43425 4.79205 6.49095 4.85038 6.54395 4.91113C6.74553 4.65941 7.05477 4.49805 7.40234 4.49805H20.25C20.8575 4.49805 21.3496 4.99014 21.3496 5.59766V7.40234Z" fill="currentColor"/> </svg>