<svg width="24" height="24" viewBox="0 0 24 24" fill="none" xmlns="http://www.w3.org/2000/svg"> <path d="M4.65234 15.5752C5.16737 15.5752 5.6136 15.775 5.96582 16.1455L6.10645 16.2852C6.41369 16.6206 6.57715 17.0326 6.57715 17.5C6.57715 18.0318 6.36594 18.4973 5.98633 18.877C5.62293 19.2404 5.16711 19.4248 4.65234 19.4248C4.13897 19.4248 3.67946 19.2426 3.2959 18.8975C3.28156 18.8846 3.26778 18.8708 3.25488 18.8564C2.90969 18.4729 2.72754 18.0134 2.72754 17.5C2.72754 16.9852 2.91199 16.5294 3.27539 16.166C3.65501 15.7864 4.12054 15.5752 4.65234 15.5752ZM20.25 16.0479C20.5538 16.0479 20.7998 16.2939 20.7998 16.5977V18.4023C20.7998 18.7061 20.5538 18.9521 20.25 18.9521H7.40234C7.09859 18.9521 6.85254 18.7061 6.85254 18.4023V16.5977C6.85254 16.2939 7.09859 16.0479 7.40234 16.0479H20.25ZM4.65234 10.0752C5.1574 10.0752 5.60488 10.2536 5.96484 10.6035L5.96582 10.6025C6.37341 10.9694 6.57715 11.4502 6.57715 12C6.57715 12.5498 6.37341 13.0306 5.96582 13.3975L5.96484 13.3955C5.6048 13.7457 5.15763 13.9248 4.65234 13.9248C4.13897 13.9248 3.67946 13.7426 3.2959 13.3975C3.28873 13.391 3.28221 13.3838 3.27539 13.377C2.90363 13.0052 2.72754 12.5309 2.72754 12C2.72754 11.4691 2.90363 10.9948 3.27539 10.623L3.2959 10.6025C3.67946 10.2574 4.13897 10.0752 4.65234 10.0752ZM20.25 10.5479C20.5538 10.5479 20.7998 10.7939 20.7998 11.0977V12.9023C20.7998 13.2061 20.5538 13.4521 20.25 13.4521H7.40234C7.09859 13.4521 6.85254 13.2061 6.85254 12.9023V11.0977C6.85254 10.7939 7.09859 10.5479 7.40234 10.5479H20.25ZM4.65234 4.5752C5.15763 4.5752 5.6048 4.75426 5.96484 5.10449L5.96582 5.10254C6.37341 5.46937 6.57715 5.95023 6.57715 6.5C6.57715 7.04977 6.37341 7.53063 5.96582 7.89746L5.96484 7.89551C5.6048 8.24574 5.15763 8.4248 4.65234 8.4248C4.13897 8.4248 3.67946 8.24265 3.2959 7.89746C3.28873 7.89101 3.28221 7.88377 3.27539 7.87695C2.90363 7.5052 2.72754 7.03089 2.72754 6.5C2.72754 5.96911 2.90363 5.4948 3.27539 5.12305C3.28221 5.11623 3.28873 5.10899 3.2959 5.10254C3.67946 4.75735 4.13897 4.5752 4.65234 4.5752ZM20.25 5.04785C20.5538 5.04785 20.7998 5.2939 20.7998 5.59766V7.40234C20.7998 7.7061 20.5538 7.95215 20.25 7.95215H7.40234C7.09859 7.95215 6.85254 7.7061 6.85254 7.40234V5.59766C6.85254 5.2939 7.09859 5.04785 7.40234 5.04785H20.25Z" stroke="currentColor" stroke-width="1.1" stroke-linecap="round" stroke-linejoin="round"/> </svg>