<svg width="24" height="24" viewBox="0 0 24 24" fill="none" xmlns="http://www.w3.org/2000/svg"> <path d="M12 1.35254C13.4056 1.35254 14.6176 1.86814 15.6055 2.88184L15.791 3.07031C16.6905 4.02499 17.1475 5.17671 17.1475 6.5V7.79785H17.5C18.138 7.79785 18.698 8.04593 19.1611 8.50195H19.1621C19.6421 8.94503 19.8975 9.50494 19.8975 10.1523V19.3477C19.8975 19.9931 19.644 20.5591 19.1777 21.0254C19.1726 21.0306 19.1675 21.036 19.1621 21.041C18.6927 21.4743 18.1313 21.7021 17.5 21.7021H6.5C5.86871 21.7021 5.30731 21.4743 4.83789 21.041C4.8325 21.036 4.82745 21.0306 4.82227 21.0254C4.356 20.5591 4.10254 19.9931 4.10254 19.3477V10.1523C4.10254 9.5858 4.29838 9.08668 4.66895 8.67383L4.83789 8.50195C5.30115 8.04562 5.86176 7.79785 6.5 7.79785H6.85254V6.5C6.85254 5.09431 7.35412 3.88026 8.3457 2.88867C9.36222 1.87215 10.5891 1.35254 12 1.35254ZM12 13.4521C11.6715 13.4521 11.3781 13.5711 11.0996 13.8496C10.8211 14.1281 10.7021 14.4215 10.7021 14.75C10.7021 15.0785 10.8211 15.3719 11.0996 15.6504C11.3781 15.9289 11.6715 16.0479 12 16.0479C12.3285 16.0479 12.6219 15.9289 12.9004 15.6504C13.1789 15.3719 13.2979 15.0785 13.2979 14.75C13.2979 14.4215 13.1789 14.1281 12.9004 13.8496C12.6219 13.5711 12.3285 13.4521 12 13.4521ZM12 4.21387C11.38 4.21387 10.8444 4.43687 10.3691 4.91211C9.92857 5.35268 9.71387 5.87164 9.71387 6.5V7.79785H14.2861V6.5C14.2861 5.88098 14.064 5.36486 13.5977 4.92188C13.591 4.91553 13.5845 4.90902 13.5781 4.90234C13.1351 4.43605 12.619 4.21387 12 4.21387Z" stroke="currentColor" stroke-width="1.1" stroke-linecap="round" stroke-linejoin="round"/> </svg>