<svg width="24" height="24" viewBox="0 0 24 24" fill="none" xmlns="http://www.w3.org/2000/svg"> <path d="M16.5977 6.5C16.5977 5.23958 16.1393 4.16536 15.2227 3.27734C14.3346 2.36068 13.2604 1.90234 12 1.90234C10.7396 1.90234 9.65104 2.36068 8.73438 3.27734C7.84635 4.16536 7.40234 5.23958 7.40234 6.5V8.34766H6.5C6.01302 8.34766 5.58333 8.53385 5.21094 8.90625C4.83854 9.25 4.65234 9.66536 4.65234 10.1523V19.3477C4.65234 19.8346 4.83854 20.2643 5.21094 20.6367C5.58333 20.9805 6.01302 21.1523 6.5 21.1523H17.5C17.987 21.1523 18.4167 20.9805 18.7891 20.6367C19.1615 20.2643 19.3477 19.8346 19.3477 19.3477V10.1523C19.3477 9.66536 19.1615 9.25 18.7891 8.90625C18.4167 8.53385 17.987 8.34766 17.5 8.34766H16.5977V6.5ZM12.748 14.75C12.748 14.58 12.6964 14.4229 12.5117 14.2383C12.3271 14.0536 12.17 14.002 12 14.002C11.83 14.002 11.6729 14.0536 11.4883 14.2383C11.3036 14.4229 11.252 14.58 11.252 14.75C11.252 14.92 11.3036 15.0771 11.4883 15.2617C11.6729 15.4464 11.83 15.498 12 15.498V16.5977C11.513 16.5977 11.0833 16.4115 10.7109 16.0391C10.3385 15.6667 10.1523 15.237 10.1523 14.75C10.1523 14.263 10.3385 13.8333 10.7109 13.4609C11.0833 13.0885 11.513 12.9023 12 12.9023C12.487 12.9023 12.9167 13.0885 13.2891 13.4609C13.6615 13.8333 13.8477 14.263 13.8477 14.75C13.8477 15.237 13.6615 15.6667 13.2891 16.0391C12.9167 16.4115 12.487 16.5977 12 16.5977V15.498C12.17 15.498 12.3271 15.4464 12.5117 15.2617C12.6964 15.0771 12.748 14.92 12.748 14.75ZM13.7363 6.5C13.7363 6.03544 13.5784 5.66296 13.2188 5.32129C13.2051 5.30834 13.1917 5.29488 13.1787 5.28125C12.837 4.92163 12.4646 4.76367 12 4.76367C11.5334 4.76367 11.1354 4.92323 10.7578 5.30078C10.421 5.63764 10.2637 6.01671 10.2637 6.5V7.24805H13.7363V6.5ZM14.8359 8.34766H9.16406V6.5C9.16406 5.72656 9.4362 5.06771 9.98047 4.52344C10.5534 3.95052 11.2266 3.66406 12 3.66406C12.7734 3.66406 13.4323 3.95052 13.9766 4.52344C14.5495 5.06771 14.8359 5.72656 14.8359 6.5V8.34766ZM17.6973 7.25391C18.4043 7.30103 19.0251 7.60357 19.5332 8.09863L19.5352 8.09766C20.1228 8.64007 20.4473 9.34452 20.4473 10.1523V19.3477C20.4473 20.1516 20.1265 20.8539 19.5664 21.4141C19.556 21.4244 19.5459 21.4354 19.5352 21.4453C18.9687 21.9681 18.2756 22.252 17.5 22.252H6.5C5.72441 22.252 5.03129 21.9681 4.46484 21.4453C4.45407 21.4354 4.44396 21.4244 4.43359 21.4141C3.87346 20.8539 3.55273 20.1516 3.55273 19.3477V10.1523C3.55273 9.34452 3.87723 8.64007 4.46484 8.09766L4.4668 8.09863C4.97487 7.60357 5.59573 7.30103 6.30273 7.25391V6.5C6.30273 4.94904 6.86188 3.59515 7.95703 2.5C9.07341 1.38363 10.4387 0.802734 12 0.802734C13.5509 0.802734 14.9002 1.3761 15.9883 2.4873L16.1934 2.69531C17.1862 3.7502 17.6973 5.03535 17.6973 6.5V7.25391Z" fill="currentColor"/> </svg>