<svg width="24" height="24" viewBox="0 0 24 24" fill="none" xmlns="http://www.w3.org/2000/svg"> <path d="M11.6973 3.76367C11.9108 3.62253 12.2007 3.64597 12.3887 3.83398L16.5137 7.95898C16.671 8.11628 16.7179 8.35307 16.6328 8.55859C16.5476 8.76383 16.3473 8.89746 16.125 8.89746H13.4521V14.1914C13.4521 14.3373 13.3942 14.4769 13.291 14.5801L7.79102 20.0801C7.57623 20.2949 7.22846 20.2949 7.01367 20.0801L5.72461 18.791C5.62122 18.6876 5.56322 18.5476 5.56348 18.4014C5.56379 18.2552 5.62184 18.1147 5.72559 18.0117L10.5479 13.2305V8.89746H7.875C7.65273 8.89746 7.45244 8.76383 7.36719 8.55859C7.28206 8.35307 7.32903 8.11628 7.48633 7.95898L11.6113 3.83398L11.6973 3.76367ZM14.4473 14.8496C14.6595 14.7093 14.9475 14.7315 15.1357 14.917L18.2725 18.0107C18.3768 18.1136 18.436 18.2539 18.4365 18.4004C18.437 18.5469 18.379 18.6874 18.2754 18.791L16.9863 20.0801C16.7727 20.2937 16.4271 20.295 16.2119 20.083L13.0752 16.9893C12.9709 16.8864 12.9117 16.7461 12.9111 16.5996C12.9106 16.4531 12.9687 16.3126 13.0723 16.209L14.3613 14.9199L14.4473 14.8496Z" stroke="currentColor" stroke-width="1.1" stroke-linecap="round" stroke-linejoin="round"/> </svg>