<svg width="24" height="24" viewBox="0 0 24 24" fill="none" xmlns="http://www.w3.org/2000/svg"> <path d="M11.3057 3.36915C11.7377 3.01681 12.3746 3.04261 12.7773 3.44532L16.9023 7.57032C17.2169 7.88488 17.3118 8.35756 17.1416 8.76857C16.9713 9.17961 16.5699 9.44728 16.125 9.44728H14.002V14.1914C14.002 14.3218 13.9776 14.4492 13.9336 14.5693L13.9727 14.5313L14.0557 14.4561C14.4855 14.1051 15.1189 14.1274 15.5225 14.5254L18.6592 17.6192C18.8678 17.8249 18.9853 18.1054 18.9863 18.3984C18.9873 18.6915 18.8713 18.9725 18.6641 19.1797L17.375 20.4688C16.9475 20.8962 16.2556 20.8991 15.8252 20.4746L12.6885 17.3809C12.4799 17.1751 12.3624 16.8946 12.3613 16.6016C12.3609 16.4693 12.3848 16.3396 12.4297 16.2178L8.17969 20.4688C7.75011 20.8983 7.05458 20.8983 6.625 20.4688L5.33594 19.1797C5.12917 18.9729 5.01315 18.6928 5.01367 18.4004C5.01431 18.1078 5.1311 17.8271 5.33887 17.6211L9.99805 13.002V9.44728H7.875C7.43009 9.44728 7.02866 9.17961 6.8584 8.76857C6.68823 8.35756 6.7831 7.88488 7.09766 7.57032L11.2227 3.44532L11.3057 3.36915ZM7.875 8.34766H11.0977V13.4609L6.11328 18.4023L7.40234 19.6914L12.9023 14.1914V8.34766H16.125L12 4.22266L7.875 8.34766ZM13.4609 16.5977L16.5977 19.6914L17.8867 18.4023L14.75 15.3086L13.4609 16.5977Z" fill="currentColor"/> </svg>