<svg width="24" height="24" viewBox="0 0 24 24" fill="none" xmlns="http://www.w3.org/2000/svg"> <path d="M5.8125 3.62988C5.96172 3.62988 6.10436 3.6905 6.20801 3.79785L8.57129 6.24707L8.57227 6.24805C9.25827 6.96264 11.0468 8.80854 13.9395 11.7871L16.0029 13.8955C17.9378 15.8787 19.4868 17.4847 20.6494 18.7119C20.8541 18.9282 20.8493 19.2679 20.6387 19.4785L19.4785 20.6387C19.2637 20.8535 18.916 20.8535 18.7012 20.6387L17.0146 18.9521H14.2285C14.3324 19.0522 14.3975 19.192 14.3975 19.3477C14.3975 20.0137 14.1495 20.5911 13.6621 21.041L13.6611 21.04C13.21 21.4832 12.6442 21.7021 12 21.7021C11.3488 21.7021 10.7708 21.4803 10.2949 21.041C10.2895 21.036 10.2845 21.0306 10.2793 21.0254C9.82566 20.5718 9.60254 19.9993 9.60254 19.3477C9.60254 19.192 9.66761 19.0522 9.77148 18.9521H4.65234C4.34859 18.9521 4.10254 18.7061 4.10254 18.4023V17.5C4.10254 17.3541 4.16053 17.2145 4.26367 17.1113L5.9502 15.4248V11.0547C5.9502 9.95441 6.15036 8.94364 6.56152 8.03223L4.2666 5.77539C4.05151 5.56389 4.04744 5.21812 4.25684 5.00098L5.41699 3.79785L5.50098 3.72656C5.59193 3.66403 5.70042 3.6299 5.8125 3.62988ZM12 2.72754C12.5498 2.72754 13.0306 2.93128 13.3975 3.33887H13.3955C13.7461 3.699 13.9248 4.14682 13.9248 4.65234V4.88086C15.1412 5.26702 16.118 5.9886 16.833 7.04297L16.9814 7.26367C17.6982 8.37619 18.0498 9.66066 18.0498 11.0977V14.4492C18.0498 14.6742 17.913 14.8765 17.7041 14.96C17.4952 15.0434 17.2566 14.9911 17.1016 14.8281L8.89453 6.19141C8.765 6.05509 8.71432 5.86214 8.75977 5.67969C8.80532 5.49716 8.94067 5.35051 9.11914 5.29102C9.18493 5.26908 9.27755 5.23273 9.40137 5.18359C9.52209 5.11172 9.62175 5.05436 9.69141 5.01953C9.73297 4.99875 9.77713 4.98429 9.82227 4.97461L9.99219 4.89062C10.0187 4.87737 10.0471 4.86913 10.0752 4.86035V4.65234C10.0752 4.14705 10.2533 3.69892 10.6035 3.33887H10.6025C10.9694 2.93128 11.4502 2.72754 12 2.72754Z" stroke="currentColor" stroke-width="1.1" stroke-linecap="round" stroke-linejoin="round"/> </svg>