<svg width="24" height="24" viewBox="0 0 24 24" fill="none" xmlns="http://www.w3.org/2000/svg"> <path d="M10.1523 19.3477C10.1523 19.8633 10.3242 20.293 10.668 20.6367C11.0404 20.9805 11.4844 21.1523 12 21.1523C12.5156 21.1523 12.9453 20.9805 13.2891 20.6367C13.6615 20.293 13.8477 19.8633 13.8477 19.3477H10.1523ZM17.5 11.0977C17.5 9.66536 17.1276 8.41927 16.3828 7.35938C15.6667 6.29948 14.6641 5.61198 13.375 5.29688V4.65234C13.375 4.27995 13.2461 3.96484 12.9883 3.70703C12.7305 3.42057 12.401 3.27734 12 3.27734C11.599 3.27734 11.2695 3.42057 11.0117 3.70703C10.7539 3.96484 10.625 4.27995 10.625 4.65234V5.29688C10.5677 5.29688 10.4961 5.3112 10.4102 5.33984C10.3242 5.36849 10.2669 5.38281 10.2383 5.38281L9.98047 5.51172H9.9375C9.88021 5.54036 9.77995 5.59766 9.63672 5.68359C9.49349 5.74089 9.37891 5.78385 9.29297 5.8125L17.5 14.4492V11.0977ZM18.6001 14.4492C18.6001 14.8 18.432 15.1207 18.1606 15.3252C19.2992 16.5 20.2625 17.5025 21.0493 18.333C21.4592 18.7656 21.4492 19.4458 21.0278 19.8672L19.8677 21.0273C19.4381 21.4569 18.7426 21.4569 18.313 21.0273L16.7876 19.502H14.9409C14.9041 20.2554 14.5998 20.9246 14.0356 21.4453L14.0337 21.4434C13.4751 21.9859 12.7736 22.252 12.0005 22.252C11.2137 22.252 10.5018 21.9801 9.92236 21.4453C9.91159 21.4354 9.90148 21.4244 9.89111 21.4141C9.36465 20.8876 9.09382 20.2287 9.06006 19.502H4.65283C4.04532 19.502 3.55322 19.0099 3.55322 18.4023V17.5C3.55322 17.2083 3.6692 16.9289 3.87549 16.7227L5.40088 15.1973V11.0547C5.40088 10.0247 5.56663 9.05693 5.91162 8.16406L3.88135 6.16699C3.45136 5.74397 3.44213 5.05337 3.86084 4.61914L5.02099 3.41602C5.22827 3.20106 5.51437 3.08013 5.81299 3.08008C6.11153 3.08008 6.39767 3.20117 6.60498 3.41602L8.35888 5.23438C8.49253 5.01838 8.69821 4.85108 8.9458 4.76855C8.99338 4.75268 9.06557 4.72406 9.16845 4.68359C9.2729 4.62199 9.36912 4.56668 9.4458 4.52832L9.53271 4.49023C9.56798 3.91611 9.79135 3.39562 10.1958 2.97266L10.1948 2.9707C10.2041 2.96042 10.2147 2.95149 10.2241 2.94141C10.2278 2.93764 10.2311 2.93344 10.2349 2.92969C10.706 2.42895 11.3207 2.17773 12.0005 2.17773C12.68 2.17773 13.2941 2.43025 13.7651 2.93066L13.7661 2.92969C13.7697 2.93327 13.7723 2.9378 13.7759 2.94141C13.7854 2.95165 13.7967 2.96026 13.8061 2.9707L13.8042 2.97266C14.2082 3.39497 14.4314 3.91414 14.4673 4.4873C15.623 4.93255 16.5717 5.6814 17.2827 6.72656C18.1713 7.99114 18.6001 9.46401 18.6001 11.0977V14.4492ZM6.5 15.6523L4.65234 17.5V18.4023H17.2422L19.0898 20.25L20.25 19.0898C18.7031 17.457 16.4688 15.151 13.5469 12.1719C10.6536 9.19271 8.86328 7.34505 8.17578 6.62891L5.8125 4.17969L4.65234 5.38281L7.23047 7.91797C6.74349 8.83464 6.5 9.88021 6.5 11.0547V15.6523Z" fill="currentColor"/> </svg>