<svg width="24" height="24" viewBox="0 0 24 24" fill="none" xmlns="http://www.w3.org/2000/svg"> <path d="M11.6475 13.8477C11.6475 14.1514 11.4014 14.3975 11.0977 14.3975H8.89746V15.1025H11.0977C11.4014 15.1025 11.6475 15.3486 11.6475 15.6523V17.8525H12.3525V15.6523C12.3525 15.3486 12.5986 15.1025 12.9023 15.1025H15.1025V14.3975H12.9023C12.5986 14.3975 12.3525 14.1514 12.3525 13.8477V11.6475H11.6475V13.8477ZM13.4521 8.7002H16.6367L13.4521 5.54199V8.7002ZM19.8975 19.3477C19.8975 19.9931 19.644 20.5591 19.1777 21.0254C19.1726 21.0306 19.1675 21.036 19.1621 21.041C18.6927 21.4743 18.1313 21.7021 17.5 21.7021H6.5C5.86871 21.7021 5.30731 21.4743 4.83789 21.041C4.8325 21.036 4.82745 21.0306 4.82227 21.0254C4.356 20.5591 4.10254 19.9931 4.10254 19.3477V19.3457L4.14551 4.65039C4.14598 4.01864 4.37563 3.46421 4.82227 3.01758C5.28853 2.55131 5.85454 2.29785 6.5 2.29785H13.8477C13.9935 2.29785 14.1332 2.35584 14.2363 2.45898L19.7363 7.95898C19.8395 8.06213 19.8975 8.20179 19.8975 8.34766V19.3477Z" stroke="currentColor" stroke-width="1.1" stroke-linecap="round" stroke-linejoin="round"/> </svg>