<svg width="24" height="24" viewBox="0 0 24 24" fill="none" xmlns="http://www.w3.org/2000/svg"> <path d="M18.4023 3.2002C19.0534 3.2002 19.6181 3.43844 20.0635 3.9043H20.0645C20.0697 3.90911 20.0739 3.91508 20.0791 3.91992C20.0843 3.92541 20.0906 3.92999 20.0957 3.93555H20.0947C20.5612 4.38105 20.7998 4.94613 20.7998 5.59766V14.75C20.7998 14.8959 20.7418 15.0355 20.6387 15.1387L15.1387 20.6387C15.0355 20.7418 14.8959 20.7998 14.75 20.7998H5.59766C4.94647 20.7998 4.3685 20.5779 3.89258 20.1387C3.88181 20.1287 3.87127 20.1182 3.86133 20.1074C3.42205 19.6315 3.2002 19.0535 3.2002 18.4023V5.59766C3.2002 4.94598 3.42332 4.37356 3.87695 3.91992C4.34322 3.45366 4.90923 3.2002 5.55469 3.2002H18.4023ZM14.3975 17.5479L17.5479 14.3975H14.3975V17.5479ZM7.95215 13.2979H11.4502V12.5498H7.95215V13.2979ZM7.95215 9.60254H16.0479V8.89746H7.95215V9.60254Z" stroke="currentColor" stroke-width="1.1" stroke-linecap="round" stroke-linejoin="round"/> </svg>