<svg width="24" height="24" viewBox="0 0 24 24" fill="none" xmlns="http://www.w3.org/2000/svg"> <path d="M20.25 5.59766C20.25 5.08203 20.0638 4.65234 19.6914 4.30859C19.3477 3.9362 18.918 3.75 18.4023 3.75V2.65039C19.2043 2.65039 19.9167 2.94992 20.4688 3.53125C21.0501 4.08327 21.3496 4.79573 21.3496 5.59766V14.75C21.3496 15.0417 21.2336 15.3211 21.0273 15.5273L15.5273 21.0273C15.3211 21.2336 15.0417 21.3496 14.75 21.3496H5.59766C4.81091 21.3496 4.09898 21.0778 3.51953 20.543C3.49799 20.5231 3.47692 20.502 3.45703 20.4805C2.92223 19.901 2.65039 19.1891 2.65039 18.4023V5.59766C2.65039 4.80993 2.92476 4.09477 3.48828 3.53125C4.04842 2.97111 4.75074 2.65039 5.55469 2.65039V3.75C5.06771 3.75 4.63802 3.9362 4.26562 4.30859C3.92188 4.65234 3.75 5.08203 3.75 5.59766V18.4023C3.75 18.918 3.92188 19.362 4.26562 19.7344C4.63802 20.0781 5.08203 20.25 5.59766 20.25H14.75L20.25 14.75V5.59766ZM18.875 13.8477L13.8477 18.875V13.8477H18.875ZM14.9473 16.2207L16.2207 14.9473H14.9473V16.2207ZM12 12V13.8477H7.40234V12H12ZM16.5977 8.34766V10.1523H7.40234V8.34766H16.5977ZM18.4023 2.65039V3.75H5.55469V2.65039H18.4023Z" fill="currentColor"/> </svg>