<svg width="24" height="24" viewBox="0 0 24 24" fill="none" xmlns="http://www.w3.org/2000/svg"> <path d="M7.40234 16.5977V18.4023H20.25V16.5977H7.40234ZM6.2041 11.9844C6.2385 12.0071 6.2712 12.0322 6.30273 12.0586V11.874L6.2041 11.9844ZM20.25 5.59766H7.40234V7.40234H20.25V5.59766ZM2.84766 15.6523V16.5977H4.65234V17.0273H3.75V17.9727H4.65234V18.4023H2.84766V19.3477H5.59766V15.6523H2.84766ZM7.40234 11.0977V12.9023H20.25V11.0977H7.40234ZM5.59766 13.8477V12.9023H3.92188L5.59766 11.0117V10.1523H2.84766V11.0977H4.48047L2.84766 12.9883V13.8477H5.59766ZM2.84766 4.65234V5.59766H3.75V8.34766H4.65234V4.65234H2.84766ZM21.3496 7.40234C21.3496 8.00986 20.8575 8.50195 20.25 8.50195H7.40234C6.79483 8.50195 6.30273 8.00986 6.30273 7.40234V5.59766C6.30273 4.99014 6.79483 4.49805 7.40234 4.49805H20.25C20.8575 4.49805 21.3496 4.99014 21.3496 5.59766V7.40234ZM5.75195 8.34766C5.75195 8.61609 5.65584 8.86178 5.49609 9.05273H5.59766C6.20517 9.05273 6.69727 9.54483 6.69727 10.1523V10.2539C6.88822 10.0942 7.13391 9.99805 7.40234 9.99805H20.25C20.8575 9.99805 21.3496 10.4901 21.3496 11.0977V12.9023C21.3496 13.5099 20.8575 14.002 20.25 14.002H7.40234C7.13368 14.002 6.88829 13.9051 6.69727 13.7451V13.8477C6.69727 14.2215 6.51068 14.5512 6.22559 14.75C6.51068 14.9488 6.69727 15.2785 6.69727 15.6523V15.7539C6.88822 15.5942 7.13391 15.498 7.40234 15.498H20.25C20.8575 15.498 21.3496 15.9901 21.3496 16.5977V18.4023C21.3496 19.0099 20.8575 19.502 20.25 19.502H7.40234C7.13368 19.502 6.88829 19.4051 6.69727 19.2451V19.3477C6.69727 19.9552 6.20517 20.4473 5.59766 20.4473H2.84766C2.24014 20.4473 1.74805 19.9552 1.74805 19.3477V18.4023C1.74805 18.0285 1.93464 17.6988 2.21973 17.5C1.93464 17.3012 1.74805 16.9715 1.74805 16.5977V15.6523C1.74805 15.2785 1.93464 14.9488 2.21973 14.75C1.93464 14.5512 1.74805 14.2215 1.74805 13.8477V12.9883C1.74805 12.7243 1.84307 12.4693 2.01562 12.2695L2.23828 12.0127C1.94274 11.8155 1.74805 11.4796 1.74805 11.0977V10.1523C1.74805 9.54483 2.24014 9.05273 2.84766 9.05273H2.90625C2.74651 8.86178 2.65039 8.61609 2.65039 8.34766V6.67871C2.13713 6.58566 1.74805 6.13775 1.74805 5.59766V4.65234C1.74805 4.04483 2.24014 3.55273 2.84766 3.55273H4.65234C5.25986 3.55273 5.75195 4.04483 5.75195 4.65234V8.34766Z" fill="currentColor"/> </svg>