<svg width="24" height="24" viewBox="0 0 24 24" fill="none" xmlns="http://www.w3.org/2000/svg"> <path d="M5.59766 15.1025C5.90141 15.1025 6.14746 15.3486 6.14746 15.6523V19.3477C6.14746 19.6514 5.90141 19.8975 5.59766 19.8975H2.84766C2.5439 19.8975 2.29785 19.6514 2.29785 19.3477V18.4023C2.29785 18.0986 2.5439 17.8525 2.84766 17.8525H3.2002V17.1475H2.84766C2.5439 17.1475 2.29785 16.9014 2.29785 16.5977V15.6523C2.29785 15.3486 2.5439 15.1025 2.84766 15.1025H5.59766ZM20.25 16.0479C20.5538 16.0479 20.7998 16.2939 20.7998 16.5977V18.4023C20.7998 18.7061 20.5538 18.9521 20.25 18.9521H7.40234C7.09859 18.9521 6.85254 18.7061 6.85254 18.4023V16.5977C6.85254 16.2939 7.09859 16.0479 7.40234 16.0479H20.25ZM5.59766 9.60254C5.90141 9.60254 6.14746 9.84859 6.14746 10.1523V11.0117C6.14746 11.1462 6.09796 11.2763 6.00879 11.377L5.14453 12.3525H5.59766C5.90141 12.3525 6.14746 12.5986 6.14746 12.9023V13.8477C6.14746 14.1514 5.90141 14.3975 5.59766 14.3975H2.84766C2.5439 14.3975 2.29785 14.1514 2.29785 13.8477V12.9883C2.29785 12.8563 2.34536 12.7288 2.43164 12.6289L3.2793 11.6475H2.84766C2.5439 11.6475 2.29785 11.4014 2.29785 11.0977V10.1523C2.29785 9.84859 2.5439 9.60254 2.84766 9.60254H5.59766ZM20.25 10.5479C20.5538 10.5479 20.7998 10.7939 20.7998 11.0977V12.9023C20.7998 13.2061 20.5538 13.4521 20.25 13.4521H7.40234C7.09859 13.4521 6.85254 13.2061 6.85254 12.9023V11.0977C6.85254 10.7939 7.09859 10.5479 7.40234 10.5479H20.25ZM4.65234 4.10254L4.76367 4.11328C5.01409 4.16473 5.20215 4.3867 5.20215 4.65234V8.34766C5.20215 8.65141 4.9561 8.89746 4.65234 8.89746H3.75C3.44624 8.89746 3.2002 8.65141 3.2002 8.34766V6.14746H2.84766C2.5439 6.14746 2.29785 5.90141 2.29785 5.59766V4.65234C2.29785 4.34859 2.5439 4.10254 2.84766 4.10254H4.65234ZM20.25 5.04785C20.5538 5.04785 20.7998 5.2939 20.7998 5.59766V7.40234C20.7998 7.7061 20.5538 7.95215 20.25 7.95215H7.40234C7.09859 7.95215 6.85254 7.7061 6.85254 7.40234V5.59766C6.85254 5.2939 7.09859 5.04785 7.40234 5.04785H20.25Z" stroke="currentColor" stroke-width="1.1" stroke-linecap="round" stroke-linejoin="round"/> </svg>