<svg width="24" height="24" viewBox="0 0 24 24" fill="none" xmlns="http://www.w3.org/2000/svg"> <path d="M20.25 18.4023H3.75V20.25H20.25V18.4023ZM6.625 7.57031C6.93956 7.25576 7.41224 7.16089 7.82324 7.33105C8.23428 7.50131 8.50195 7.90275 8.50195 8.34766V15.6523C8.50195 16.0973 8.23428 16.4987 7.82324 16.6689C7.41224 16.8391 6.93956 16.7442 6.625 16.4297L2.97266 12.7773C2.54308 12.3478 2.54308 11.6522 2.97266 11.2227L6.625 7.57031ZM3.75 12L7.40234 15.6523V8.34766L3.75 12ZM11.0977 14.75V16.5977H20.25V14.75H11.0977ZM11.0977 11.0977V12.9023H20.25V11.0977H11.0977ZM11.0977 7.40234V9.25H20.25V7.40234H11.0977ZM3.75 3.75V5.59766H20.25V3.75H3.75ZM21.3496 5.59766C21.3496 5.97155 21.163 6.30124 20.8779 6.5C21.163 6.69876 21.3496 7.02845 21.3496 7.40234V9.25C21.3496 9.63778 21.1489 9.97795 20.8457 10.1738C21.1489 10.3697 21.3496 10.7099 21.3496 11.0977V12.9023C21.3496 13.2901 21.1489 13.6303 20.8457 13.8262C21.1489 14.0221 21.3496 14.3622 21.3496 14.75V16.5977C21.3496 16.9715 21.163 17.3012 20.8779 17.5C21.163 17.6988 21.3496 18.0285 21.3496 18.4023V20.25C21.3496 20.8575 20.8575 21.3496 20.25 21.3496H3.75C3.14249 21.3496 2.65039 20.8575 2.65039 20.25V18.4023C2.65039 17.7948 3.14249 17.3027 3.75 17.3027H10.2539C10.0942 17.1118 9.99805 16.8661 9.99805 16.5977V14.75C9.99805 14.3625 10.1982 14.0221 10.501 13.8262C10.1982 13.6302 9.99805 13.2898 9.99805 12.9023V11.0977C9.99805 10.7102 10.1982 10.3698 10.501 10.1738C10.1982 9.97788 9.99805 9.63749 9.99805 9.25V7.40234C9.99805 7.13391 10.0942 6.88822 10.2539 6.69727H3.75C3.14249 6.69727 2.65039 6.20517 2.65039 5.59766V3.75C2.65039 3.14249 3.14249 2.65039 3.75 2.65039H20.25C20.8575 2.65039 21.3496 3.14249 21.3496 3.75V5.59766Z" fill="currentColor"/> </svg>