<svg width="24" height="24" viewBox="0 0 24 24" fill="none" xmlns="http://www.w3.org/2000/svg"> <path d="M20.25 17.8525C20.5538 17.8525 20.7998 18.0986 20.7998 18.4023V20.25C20.7998 20.5538 20.5538 20.7998 20.25 20.7998H3.75C3.44624 20.7998 3.2002 20.5538 3.2002 20.25V18.4023C3.2002 18.0986 3.44624 17.8525 3.75 17.8525H20.25ZM20.25 14.2002C20.5538 14.2002 20.7998 14.4462 20.7998 14.75V16.5977C20.7998 16.9014 20.5538 17.1475 20.25 17.1475H11.0977C10.7939 17.1475 10.5479 16.9014 10.5479 16.5977V14.75C10.5479 14.4462 10.7939 14.2002 11.0977 14.2002H20.25ZM7.01367 7.95898C7.17097 7.80169 7.40776 7.75471 7.61328 7.83984C7.81852 7.92509 7.95215 8.12539 7.95215 8.34766V15.6523C7.95215 15.8746 7.81852 16.0749 7.61328 16.1602C7.40776 16.2453 7.17097 16.1983 7.01367 16.041L3.36133 12.3887C3.14654 12.1739 3.14654 11.8261 3.36133 11.6113L7.01367 7.95898ZM20.25 10.5479C20.5538 10.5479 20.7998 10.7939 20.7998 11.0977V12.9023C20.7998 13.2061 20.5538 13.4521 20.25 13.4521H11.0977C10.7939 13.4521 10.5479 13.2061 10.5479 12.9023V11.0977C10.5479 10.7939 10.7939 10.5479 11.0977 10.5479H20.25ZM20.25 6.85254C20.5538 6.85254 20.7998 7.09859 20.7998 7.40234V9.25C20.7998 9.55376 20.5538 9.7998 20.25 9.7998H11.0977C10.7939 9.7998 10.5479 9.55376 10.5479 9.25V7.40234C10.5479 7.09859 10.7939 6.85254 11.0977 6.85254H20.25ZM20.25 3.2002C20.5538 3.2002 20.7998 3.44624 20.7998 3.75V5.59766L20.7891 5.70898C20.7376 5.9594 20.5156 6.14746 20.25 6.14746H3.75C3.44624 6.14746 3.2002 5.90141 3.2002 5.59766V3.75C3.2002 3.44624 3.44624 3.2002 3.75 3.2002H20.25Z" stroke="currentColor" stroke-width="1.1" stroke-linecap="round" stroke-linejoin="round"/> </svg>