<svg width="24" height="25" viewBox="0 0 24 25" fill="none" xmlns="http://www.w3.org/2000/svg"> <path d="M12 0.550293C12.7141 0.550293 13.3615 0.756495 13.9199 1.17529C14.3588 1.50447 14.6979 1.91494 14.9375 2.39795H18.4023C19.0404 2.39795 19.6003 2.64603 20.0635 3.10205H20.0645C20.5445 3.54513 20.7998 4.10504 20.7998 4.75244V19.4478C20.7998 20.0932 20.5463 20.6592 20.0801 21.1255C20.0749 21.1307 20.0698 21.1361 20.0645 21.1411C19.595 21.5744 19.0336 21.8022 18.4023 21.8022H5.59766C4.96637 21.8022 4.40497 21.5744 3.93555 21.1411C3.93016 21.1361 3.9251 21.1307 3.91992 21.1255C3.45366 20.6592 3.2002 20.0932 3.2002 19.4478V4.75244C3.2002 4.18589 3.39604 3.68678 3.7666 3.27393L3.93555 3.10205C4.39881 2.64571 4.95941 2.39795 5.59766 2.39795H9.0625C9.30213 1.91494 9.64117 1.50447 10.0801 1.17529C10.6385 0.756495 11.2859 0.550293 12 0.550293ZM6.14746 18.8979H17.8525V5.30225H17.1475V7.50244C17.1475 7.8062 16.9014 8.05225 16.5977 8.05225H7.40234C7.09859 8.05225 6.85254 7.8062 6.85254 7.50244V5.30225H6.14746V18.8979ZM12 3.49756C11.8782 3.49756 11.8061 3.53225 11.7441 3.59424C11.6822 3.65623 11.6475 3.72833 11.6475 3.8501C11.6475 3.97186 11.6822 4.04397 11.7441 4.10596C11.8061 4.16794 11.8782 4.20264 12 4.20264C12.1218 4.20264 12.1939 4.16794 12.2559 4.10596C12.3178 4.04397 12.3525 3.97186 12.3525 3.8501C12.3525 3.72833 12.3178 3.65623 12.2559 3.59424C12.1939 3.53225 12.1218 3.49756 12 3.49756Z" stroke="currentColor" stroke-width="1.1" stroke-linecap="round" stroke-linejoin="round"/> </svg>