<svg width="24" height="25" viewBox="0 0 24 25" fill="none" xmlns="http://www.w3.org/2000/svg"> <path d="M2.65039 19.4473V4.75195C2.65039 3.94413 2.97489 3.23968 3.5625 2.69727L3.56445 2.69824C4.11927 2.15764 4.80893 1.84766 5.59766 1.84766V2.94727C5.11068 2.94727 4.68099 3.13346 4.30859 3.50586C3.9362 3.84961 3.75 4.26497 3.75 4.75195V19.4473C3.75 19.9342 3.9362 20.3639 4.30859 20.7363C4.68099 21.0801 5.11068 21.252 5.59766 21.252H18.4023C18.8893 21.252 19.319 21.0801 19.6914 20.7363C20.0638 20.3639 20.25 19.9342 20.25 19.4473V4.75195C20.25 4.26497 20.0638 3.84961 19.6914 3.50586C19.319 3.13346 18.8893 2.94727 18.4023 2.94727V1.84766C19.1911 1.84766 19.8807 2.15764 20.4355 2.69824L20.4375 2.69727C21.0251 3.23968 21.3496 3.94413 21.3496 4.75195V19.4473C21.3496 20.2512 21.0289 20.9535 20.4688 21.5137C20.4584 21.524 20.4483 21.535 20.4375 21.5449C19.8711 22.0677 19.1779 22.3516 18.4023 22.3516H5.59766C4.82207 22.3516 4.12895 22.0677 3.5625 21.5449C3.55173 21.535 3.54162 21.524 3.53125 21.5137C2.97111 20.9535 2.65039 20.2512 2.65039 19.4473ZM7.40234 4.75195V7.50195H16.5977V4.75195H18.4023V19.4473H5.59766V4.75195H7.40234ZM17.3027 8.34473C17.1117 8.50471 16.8663 8.60156 16.5977 8.60156H7.40234C7.13368 8.60156 6.88829 8.50471 6.69727 8.34473V18.3477H17.3027V8.34473ZM12.1973 3.84961C12.1969 3.84568 12.1954 3.82541 12.1836 3.7959C12.1761 3.77706 12.1671 3.76037 12.1582 3.74707L12.1328 3.7168C12.1188 3.70281 12.0915 3.68115 12.0537 3.66602L12 3.65234C11.9961 3.65266 11.9758 3.65426 11.9463 3.66602C11.9275 3.67355 11.9108 3.68255 11.8975 3.69141L11.8672 3.7168C11.8532 3.73078 11.8315 3.75807 11.8164 3.7959C11.8046 3.82541 11.8031 3.84568 11.8027 3.84961L11.8164 3.90332C11.8315 3.94115 11.8532 3.96843 11.8672 3.98242C11.8812 3.99641 11.9085 4.01807 11.9463 4.0332C11.9758 4.04496 11.9961 4.04656 12 4.04688V4.75195C11.7422 4.75195 11.5273 4.66602 11.3555 4.49414C11.1836 4.32227 11.0977 4.10742 11.0977 3.84961C11.0977 3.5918 11.1836 3.37695 11.3555 3.20508C11.5273 3.0332 11.7422 2.94727 12 2.94727C12.2578 2.94727 12.4727 3.0332 12.6445 3.20508C12.8164 3.37695 12.9023 3.5918 12.9023 3.84961C12.9023 4.10742 12.8164 4.32227 12.6445 4.49414C12.4727 4.66602 12.2578 4.75195 12 4.75195V4.04688C12.0039 4.04656 12.0242 4.04496 12.0537 4.0332C12.0915 4.01807 12.1188 3.99641 12.1328 3.98242C12.1468 3.96843 12.1685 3.94115 12.1836 3.90332C12.1954 3.87381 12.1969 3.85354 12.1973 3.84961ZM12 0C12.8268 0 13.5913 0.241348 14.25 0.735352C14.6633 1.04539 15.0013 1.4188 15.2627 1.84766H18.4023V2.94727H14.5781C14.3776 2.40299 14.0482 1.95898 13.5898 1.61523C13.1315 1.27148 12.6016 1.09961 12 1.09961C11.3984 1.09961 10.8685 1.27148 10.4102 1.61523C9.95182 1.95898 9.6224 2.40299 9.42188 2.94727H5.59766V1.84766H8.7373C8.99865 1.4188 9.33665 1.04539 9.75 0.735352C10.4087 0.241348 11.1732 0 12 0Z" fill="currentColor"/> </svg>