<svg width="24" height="24" viewBox="0 0 24 24" fill="none" xmlns="http://www.w3.org/2000/svg"> <path d="M13.5879 6.21289C13.8014 6.07175 14.0913 6.09519 14.2793 6.2832L17.7168 9.7207C17.9316 9.93549 17.9316 10.2833 17.7168 10.498L7.57617 20.6387C7.47303 20.7418 7.33337 20.7998 7.1875 20.7998H3.75C3.44624 20.7998 3.2002 20.5538 3.2002 20.25V16.8125C3.2002 16.6666 3.25818 16.527 3.36133 16.4238L13.502 6.2832L13.5879 6.21289ZM17.1992 3.2002C17.5931 3.2002 17.9507 3.33738 18.2324 3.61914L20.3809 5.76758C20.6626 6.04934 20.7998 6.40692 20.7998 6.80078C20.7998 7.19464 20.6626 7.55222 20.3809 7.83398L18.7051 9.50977C18.4903 9.72455 18.1425 9.72455 17.9277 9.50977L14.4902 6.07227C14.2754 5.85748 14.2754 5.50971 14.4902 5.29492L16.166 3.61914C16.4478 3.33738 16.8054 3.2002 17.1992 3.2002Z" stroke="currentColor" stroke-width="1.1" stroke-linecap="round" stroke-linejoin="round"/> </svg>