<svg width="24" height="24" viewBox="0 0 24 24" fill="none" xmlns="http://www.w3.org/2000/svg"> <path d="M20.25 6.80078C20.25 6.54297 20.1641 6.32812 19.9922 6.15625L17.8438 4.00781C17.6719 3.83594 17.457 3.75 17.1992 3.75C16.9414 3.75 16.7266 3.83594 16.5547 4.00781L14.8789 5.68359L18.3164 9.12109L19.9922 7.44531C20.1641 7.27344 20.25 7.05859 20.25 6.80078ZM3.75 20.25H7.1875L17.3281 10.1094L13.8906 6.67188L3.75 16.8125V20.25ZM21.3496 6.80078C21.3496 7.33069 21.1612 7.83101 20.7695 8.22266L19.0938 9.89844C18.9058 10.0863 18.6672 10.1913 18.4219 10.2148C18.3984 10.4602 18.2934 10.6988 18.1055 10.8867L7.96484 21.0273C7.75855 21.2336 7.47924 21.3496 7.1875 21.3496H3.75C3.14249 21.3496 2.65039 20.8575 2.65039 20.25V16.8125C2.65039 16.5208 2.76637 16.2414 2.97266 16.0352L13.1133 5.89453L13.1963 5.81836C13.3688 5.67766 13.5742 5.59745 13.7842 5.57715C13.8079 5.33209 13.9139 5.09393 14.1016 4.90625L15.7773 3.23047L15.9287 3.09277C16.2942 2.79431 16.7355 2.65039 17.1992 2.65039C17.7291 2.65039 18.2294 2.83882 18.6211 3.23047L20.7695 5.37891C21.1612 5.77056 21.3496 6.27087 21.3496 6.80078Z" fill="currentColor"/> </svg>