<svg width="24" height="24" viewBox="0 0 24 24" fill="none" xmlns="http://www.w3.org/2000/svg"> <path d="M18.9521 13.8477C18.9521 14.1514 18.7061 14.3975 18.4023 14.3975H13.4521V20.25C13.4521 20.4002 13.3908 20.5437 13.2822 20.6475L12.3369 21.5498C12.1208 21.7561 11.7796 21.7523 11.5684 21.541L10.666 20.6387C10.5629 20.5355 10.5049 20.3959 10.5049 20.25V14.3975H5.59766C5.2939 14.3975 5.04785 14.1514 5.04785 13.8477V12C5.04785 11.6962 5.2939 11.4502 5.59766 11.4502C5.99063 11.4502 6.33634 11.3584 6.64746 11.1826C7.00592 10.9673 7.28501 10.6986 7.49414 10.375C7.69537 10.0359 7.79785 9.6651 7.79785 9.25V5.20215H7.40234C7.02213 5.20215 6.68352 5.05602 6.39941 4.8125C6.38875 4.80336 6.37907 4.79313 6.36914 4.7832C6.08738 4.50144 5.9502 4.14386 5.9502 3.75C5.9502 3.35614 6.08738 2.99856 6.36914 2.7168L6.39941 2.6875C6.68352 2.44398 7.02213 2.29785 7.40234 2.29785H16.5977C16.9679 2.29785 17.2936 2.43882 17.5566 2.68848C17.8756 2.96191 18.0498 3.32718 18.0498 3.75C18.0498 4.17278 17.8766 4.53907 17.5576 4.8125L17.5566 4.81152C17.2936 5.06118 16.9679 5.20215 16.5977 5.20215H16.2021V9.25C16.2021 9.66492 16.3038 10.036 16.5049 10.375C16.7159 10.7018 16.9824 10.9692 17.3076 11.1816C17.6514 11.3608 18.0136 11.4502 18.4023 11.4502C18.7061 11.4502 18.9521 11.6962 18.9521 12V13.8477Z" stroke="currentColor" stroke-width="1.1" stroke-linecap="round" stroke-linejoin="round"/> </svg>