<svg width="24" height="24" viewBox="0 0 24 24" fill="none" xmlns="http://www.w3.org/2000/svg"> <path d="M4.49805 13.8477V12C4.49805 11.3925 4.99014 10.9004 5.59766 10.9004C5.899 10.9004 6.14912 10.831 6.37207 10.7061C6.65405 10.5352 6.86543 10.3294 7.02441 10.0869C7.17105 9.83719 7.24805 9.56635 7.24805 9.25V5.74414C6.78153 5.70826 6.37357 5.51371 6.04199 5.22949C6.02065 5.21119 6.00035 5.19176 5.98047 5.17188C5.58882 4.78022 5.40039 4.27991 5.40039 3.75C5.40039 3.22009 5.58882 2.71978 5.98047 2.32812L6.04199 2.27051C6.40968 1.95534 6.87109 1.74805 7.40234 1.74805V2.84766C7.17318 2.84766 6.95833 2.93359 6.75781 3.10547C6.58594 3.27734 6.5 3.49219 6.5 3.75C6.5 4.00781 6.58594 4.22266 6.75781 4.39453C6.95833 4.56641 7.17318 4.65234 7.40234 4.65234H8.34766V9.25C8.34766 9.76562 8.21875 10.2383 7.96094 10.668C7.70312 11.069 7.35938 11.3984 6.92969 11.6562C6.52865 11.8854 6.08464 12 5.59766 12V13.8477H11.0547V20.25L11.957 21.1523L12.9023 20.25V13.8477H18.4023V12C17.9154 12 17.457 11.8854 17.0273 11.6562C16.6263 11.3984 16.2969 11.069 16.0391 10.668C15.7812 10.2383 15.6523 9.76562 15.6523 9.25V4.65234H16.5977C16.8268 4.65234 17.0273 4.56641 17.1992 4.39453C17.3997 4.22266 17.5 4.00781 17.5 3.75C17.5 3.49219 17.3997 3.27734 17.1992 3.10547C17.0273 2.93359 16.8268 2.84766 16.5977 2.84766V1.74805C17.1081 1.74805 17.5584 1.94272 17.9141 2.27148L17.915 2.27051C18.3525 2.6455 18.5996 3.16221 18.5996 3.75C18.5996 4.33779 18.3525 4.8545 17.915 5.22949L17.9141 5.22852C17.5947 5.52372 17.1993 5.70933 16.752 5.74414V9.25C16.752 9.56617 16.8281 9.8373 16.9746 10.0869C17.1375 10.3362 17.3395 10.5388 17.5859 10.7041C17.844 10.8343 18.1109 10.9004 18.4023 10.9004C19.0099 10.9004 19.502 11.3925 19.502 12V13.8477C19.502 14.4552 19.0099 14.9473 18.4023 14.9473H14.002V20.25C14.002 20.5506 13.8795 20.8383 13.6621 21.0459L12.7168 21.9482C12.2846 22.3608 11.6022 22.3522 11.1797 21.9297L10.2773 21.0273C10.0711 20.8211 9.95508 20.5417 9.95508 20.25V14.9473H5.59766C4.99014 14.9473 4.49805 14.4552 4.49805 13.8477ZM16.5977 1.74805V2.84766H7.40234V1.74805H16.5977Z" fill="currentColor"/> </svg>