<svg width="24" height="24" viewBox="0 0 24 24" fill="none" xmlns="http://www.w3.org/2000/svg"> <path d="M18.4023 3.2002C19.0534 3.2002 19.6181 3.43844 20.0635 3.9043H20.0645C20.0697 3.90911 20.0739 3.91508 20.0791 3.91992C20.0843 3.92541 20.0906 3.92999 20.0957 3.93555H20.0947C20.5612 4.38105 20.7998 4.94613 20.7998 5.59766V18.4023C20.7998 19.0673 20.5531 19.65 20.0801 20.123C19.6264 20.5767 19.054 20.7998 18.4023 20.7998H5.59766C4.94647 20.7998 4.3685 20.5779 3.89258 20.1387C3.88181 20.1287 3.87127 20.1182 3.86133 20.1074C3.42205 19.6315 3.2002 19.0535 3.2002 18.4023V5.59766C3.2002 4.94598 3.42332 4.37356 3.87695 3.91992C4.35002 3.44685 4.9327 3.2002 5.59766 3.2002H18.4023ZM10.6963 7.65625C10.6681 7.843 10.5461 8.00235 10.373 8.07812C9.9369 8.26894 9.6241 8.44851 9.41602 8.61035C9.26107 8.73082 9.05299 8.75929 8.87109 8.68555L7.49023 8.125L6.37305 10.0244L7.56055 10.915C7.72989 11.042 7.8109 11.2553 7.76953 11.4629C7.75188 11.5512 7.7373 11.7222 7.7373 12C7.7373 12.2778 7.75188 12.4488 7.76953 12.5371C7.8109 12.7447 7.72989 12.958 7.56055 13.085L6.37207 13.9756L7.47168 15.8809L8.87109 15.3145C9.05202 15.2411 9.25833 15.2697 9.41309 15.3887C9.67094 15.587 9.91415 15.7413 10.1416 15.8574L10.3643 15.9609L10.4277 15.9932C10.5707 16.0759 10.6707 16.2191 10.6963 16.3848L10.9219 17.8525H13.0771L13.3037 16.3438C13.3319 16.157 13.4539 15.9977 13.627 15.9219C14.0631 15.7311 14.3759 15.5515 14.584 15.3896C14.7389 15.2692 14.947 15.2407 15.1289 15.3145L16.5088 15.874L17.626 13.9746L16.4395 13.085C16.2701 12.958 16.1891 12.7447 16.2305 12.5371C16.2481 12.4488 16.2627 12.2778 16.2627 12C16.2627 11.7222 16.2481 11.5512 16.2305 11.4629C16.1891 11.2553 16.2701 11.042 16.4395 10.915L17.627 10.0234L16.5273 8.11816L15.1289 8.68555C14.948 8.7589 14.7417 8.73034 14.5869 8.61133C14.2431 8.34684 13.9255 8.1598 13.6357 8.03906C13.4589 7.96527 13.3329 7.8046 13.3037 7.61523L13.0781 6.14746H10.9229L10.6963 7.65625ZM12 9.60254C12.6455 9.60254 13.2115 9.856 13.6777 10.3223C14.144 10.7885 14.3975 11.3545 14.3975 12C14.3975 12.6455 14.144 13.2115 13.6777 13.6777C13.2115 14.144 12.6455 14.3975 12 14.3975C11.3545 14.3975 10.7885 14.144 10.3223 13.6777C9.856 13.2115 9.60254 12.6455 9.60254 12C9.60254 11.3545 9.856 10.7885 10.3223 10.3223C10.7885 9.856 11.3545 9.60254 12 9.60254Z" stroke="currentColor" stroke-width="1.1" stroke-linecap="round" stroke-linejoin="round"/> </svg>