<svg width="24" height="24" viewBox="0 0 24 24" fill="none" xmlns="http://www.w3.org/2000/svg"> <path d="M2.65039 18.4023V5.59766C2.65039 4.80993 2.92476 4.09477 3.48828 3.53125C4.06202 2.95751 4.78338 2.65039 5.59766 2.65039V3.75C5.08203 3.75 4.63802 3.9362 4.26562 4.30859C3.92188 4.65234 3.75 5.08203 3.75 5.59766V18.4023C3.75 18.918 3.92188 19.362 4.26562 19.7344C4.63802 20.0781 5.08203 20.25 5.59766 20.25H18.4023C18.918 20.25 19.3477 20.0781 19.6914 19.7344C20.0638 19.362 20.25 18.918 20.25 18.4023V5.59766C20.25 5.08203 20.0638 4.65234 19.6914 4.30859C19.3477 3.9362 18.918 3.75 18.4023 3.75V2.65039C19.2043 2.65039 19.9167 2.94992 20.4688 3.53125C21.0501 4.08327 21.3496 4.79573 21.3496 5.59766V18.4023C21.3496 19.2166 21.0425 19.938 20.4688 20.5117C19.9052 21.0752 19.1901 21.3496 18.4023 21.3496H5.59766C4.81091 21.3496 4.09898 21.0778 3.51953 20.543C3.49799 20.5231 3.47692 20.502 3.45703 20.4805C2.92223 19.901 2.65039 19.1891 2.65039 18.4023ZM15.7129 12C15.7129 11.731 15.6971 11.6046 15.6904 11.5713C15.6074 11.156 15.7706 10.7298 16.1094 10.4756L16.9062 9.87695L16.29 8.80762L15.335 9.19531C14.9731 9.34192 14.5604 9.2859 14.251 9.04785C13.9358 8.80544 13.6605 8.64513 13.4248 8.54688C13.0707 8.39932 12.8191 8.07742 12.7607 7.69824L12.6064 6.69727H11.3965L11.2402 7.7373C11.1841 8.11133 10.9393 8.43044 10.5928 8.58203C10.1793 8.76294 9.91226 8.92085 9.75391 9.04395C9.44406 9.28493 9.02883 9.34271 8.66504 9.19531L7.72363 8.81348L7.09668 9.87988L7.89062 10.4756C8.22941 10.7298 8.39263 11.156 8.30957 11.5713C8.30291 11.6046 8.28711 11.731 8.28711 12C8.28711 12.269 8.30291 12.3954 8.30957 12.4287C8.39263 12.844 8.22941 13.2702 7.89062 13.5244L7.09277 14.1221L7.70898 15.1914L8.66504 14.8047L8.80273 14.7588C9.12831 14.6746 9.47825 14.7439 9.74902 14.9521C10.0642 15.1946 10.3395 15.3549 10.5752 15.4531C10.9293 15.6007 11.1809 15.9226 11.2393 16.3018L11.3936 17.3027H12.6035L12.7598 16.2627L12.7891 16.125C12.8782 15.8113 13.104 15.5506 13.4072 15.418C13.8207 15.2371 14.0877 15.0791 14.2461 14.9561L14.3672 14.874C14.6591 14.7035 15.0166 14.6757 15.335 14.8047L16.2754 15.1855L16.9023 14.1191L16.1094 13.5244C15.7706 13.2702 15.6074 12.844 15.6904 12.4287C15.6971 12.3954 15.7129 12.269 15.7129 12ZM13.8477 12C13.8477 11.513 13.6615 11.0833 13.2891 10.7109C12.9167 10.3385 12.487 10.1523 12 10.1523C11.513 10.1523 11.0833 10.3385 10.7109 10.7109C10.3385 11.0833 10.1523 11.513 10.1523 12C10.1523 12.487 10.3385 12.9167 10.7109 13.2891C11.0833 13.6615 11.513 13.8477 12 13.8477C12.487 13.8477 12.9167 13.6615 13.2891 13.2891C13.6615 12.9167 13.8477 12.487 13.8477 12ZM18.4023 2.65039V3.75H5.59766V2.65039H18.4023ZM14.9473 12C14.9473 12.8039 14.6265 13.5063 14.0664 14.0664C13.5063 14.6265 12.8039 14.9473 12 14.9473C11.1961 14.9473 10.4937 14.6265 9.93359 14.0664C9.37346 13.5063 9.05273 12.8039 9.05273 12C9.05273 11.1961 9.37346 10.4937 9.93359 9.93359C10.4937 9.37346 11.1961 9.05273 12 9.05273C12.8039 9.05273 13.5063 9.37346 14.0664 9.93359C14.6265 10.4937 14.9473 11.1961 14.9473 12ZM16.8125 12C16.8125 12.2865 16.7982 12.5013 16.7695 12.6445L18.1445 13.6758C18.2878 13.7904 18.3021 13.9336 18.1875 14.1055L16.8984 16.2969C16.7839 16.4688 16.6549 16.526 16.5117 16.4688L14.9219 15.8242C14.6641 16.0247 14.306 16.2253 13.8477 16.4258L13.5898 18.1445C13.5612 18.3164 13.4609 18.4023 13.2891 18.4023H10.7109C10.5677 18.4023 10.4674 18.3164 10.4102 18.1445L10.1523 16.4688C9.80859 16.3255 9.45052 16.1107 9.07812 15.8242L7.48828 16.4688C7.31641 16.526 7.1875 16.4831 7.10156 16.3398L5.8125 14.1055C5.78385 14.0768 5.76953 14.0195 5.76953 13.9336C5.76953 13.7904 5.79818 13.7044 5.85547 13.6758L7.23047 12.6445C7.20182 12.5013 7.1875 12.2865 7.1875 12C7.1875 11.7135 7.20182 11.4987 7.23047 11.3555L5.85547 10.3242C5.79818 10.2956 5.76953 10.2096 5.76953 10.0664C5.76953 9.98047 5.78385 9.92318 5.8125 9.89453L7.10156 7.70312C7.21615 7.53125 7.34505 7.47396 7.48828 7.53125L9.07812 8.17578C9.33594 7.97526 9.69401 7.77474 10.1523 7.57422L10.4102 5.85547C10.4388 5.68359 10.5391 5.59766 10.7109 5.59766H13.2891C13.4323 5.59766 13.5326 5.68359 13.5898 5.85547L13.8477 7.53125C14.1914 7.67448 14.5495 7.88932 14.9219 8.17578L16.5117 7.53125C16.6836 7.47396 16.8125 7.51693 16.8984 7.66016L18.1875 9.89453C18.3021 10.0664 18.2878 10.2096 18.1445 10.3242L16.7695 11.3555C16.7982 11.4987 16.8125 11.7135 16.8125 12Z" fill="currentColor"/> </svg>