<svg width="24" height="24" viewBox="0 0 24 24" fill="none" xmlns="http://www.w3.org/2000/svg"> <path d="M21.1523 16.5977V11.0977C21.1523 10.3529 20.8802 9.70833 20.3359 9.16406C19.7917 8.61979 19.1471 8.34766 18.4023 8.34766H5.59766C4.85286 8.34766 4.20833 8.61979 3.66406 9.16406C3.11979 9.70833 2.84766 10.3529 2.84766 11.0977V16.5977H6.5V20.25H17.5V16.5977H21.1523ZM15.6523 13.8477V18.4023H8.34766V13.8477H15.6523ZM9.44727 17.3027H14.5527V14.9473H9.44727V17.3027ZM18.5996 11.0977C18.5993 11.0937 18.5977 11.0735 18.5859 11.0439C18.5784 11.0251 18.5694 11.0084 18.5605 10.9951L18.5352 10.9648L18.5049 10.9395C18.4916 10.9306 18.4749 10.9216 18.4561 10.9141L18.4023 10.9004C18.3984 10.9007 18.3781 10.9023 18.3486 10.9141C18.3328 10.9204 18.3186 10.9281 18.3066 10.9355C18.2972 10.9484 18.2856 10.9655 18.2754 10.9873C18.2519 11.0378 18.248 11.0801 18.248 11.0977L18.252 11.1338C18.2557 11.154 18.2623 11.1798 18.2754 11.208C18.277 11.2114 18.2796 11.2146 18.2812 11.2178C18.2848 11.2196 18.2882 11.2228 18.292 11.2246C18.3424 11.2481 18.3848 11.252 18.4023 11.252V12C18.1445 12 17.9297 11.9141 17.7578 11.7422C17.5859 11.5703 17.5 11.3555 17.5 11.0977C17.5 10.8398 17.5859 10.625 17.7578 10.4531C17.9297 10.2526 18.1445 10.1523 18.4023 10.1523C18.6602 10.1523 18.875 10.2526 19.0469 10.4531C19.2474 10.625 19.3477 10.8398 19.3477 11.0977C19.3477 11.3555 19.2474 11.5703 19.0469 11.7422C18.875 11.9141 18.6602 12 18.4023 12V11.252C18.4199 11.252 18.4622 11.2481 18.5127 11.2246C18.5344 11.2145 18.5507 11.2018 18.5635 11.1924C18.5709 11.1805 18.5797 11.1671 18.5859 11.1514C18.5977 11.1219 18.5993 11.1016 18.5996 11.0977ZM6.5 3.75V7.40234H17.5V3.75H6.5ZM18.5996 7.25195C19.5655 7.29868 20.4174 7.69087 21.1133 8.38672C21.8561 9.12956 22.252 10.0504 22.252 11.0977V16.5977C22.252 17.2052 21.7599 17.6973 21.1523 17.6973H18.5996V20.25C18.5996 20.8575 18.1075 21.3496 17.5 21.3496H6.5C5.89249 21.3496 5.40039 20.8575 5.40039 20.25V17.6973H2.84766C2.24014 17.6973 1.74805 17.2052 1.74805 16.5977V11.0977C1.74805 10.0504 2.14387 9.12956 2.88672 8.38672C3.58257 7.69087 4.43451 7.29868 5.40039 7.25195V3.75C5.40039 3.14249 5.89249 2.65039 6.5 2.65039H17.5C18.1075 2.65039 18.5996 3.14249 18.5996 3.75V7.25195Z" fill="currentColor"/> </svg>