<svg width="24" height="24" viewBox="0 0 24 24" fill="none" xmlns="http://www.w3.org/2000/svg"> <path d="M8.89746 17.8525H15.1025V14.3975H8.89746V17.8525ZM18.4023 10.7021C18.3095 10.7021 18.2461 10.7295 18.1758 10.8115C18.1666 10.8222 18.1564 10.8319 18.1465 10.8418C18.0845 10.9038 18.0498 10.9759 18.0498 11.0977C18.0498 11.2194 18.0845 11.2915 18.1465 11.3535C18.2085 11.4155 18.2806 11.4502 18.4023 11.4502C18.5241 11.4502 18.5962 11.4155 18.6582 11.3535L18.6885 11.3242C18.7705 11.2539 18.7979 11.1905 18.7979 11.0977C18.7979 11.028 18.7824 10.9748 18.7402 10.9229L18.5771 10.7598C18.5252 10.7176 18.472 10.7021 18.4023 10.7021ZM18.0498 7.40234C18.0498 7.55795 17.9847 7.6978 17.8809 7.79785H18.4023C19.2984 7.79785 20.0811 8.13183 20.7246 8.77539C21.3682 9.41895 21.7021 10.2016 21.7021 11.0977V16.5977C21.7021 16.9014 21.4561 17.1475 21.1523 17.1475H18.0498V20.25C18.0498 20.5538 17.8038 20.7998 17.5 20.7998H6.5C6.19624 20.7998 5.9502 20.5538 5.9502 20.25V17.1475H2.84766C2.5439 17.1475 2.29785 16.9014 2.29785 16.5977V11.0977C2.29785 10.2016 2.63183 9.41895 3.27539 8.77539C3.91895 8.13183 4.70163 7.79785 5.59766 7.79785H6.11914C6.01527 7.6978 5.9502 7.55795 5.9502 7.40234V3.75C5.9502 3.44624 6.19624 3.2002 6.5 3.2002H17.5C17.8038 3.2002 18.0498 3.44624 18.0498 3.75V7.40234Z" stroke="currentColor" stroke-width="1.1" stroke-linecap="round" stroke-linejoin="round"/> </svg>