<svg width="24" height="24" viewBox="0 0 24 24" fill="none" xmlns="http://www.w3.org/2000/svg"> <path d="M3.25 18.0001V14.0001C3.25 13.5859 3.58579 13.2501 4 13.2501C4.41421 13.2501 4.75 13.5859 4.75 14.0001V18.0001C4.75 18.6905 5.30964 19.2501 6 19.2501H18C18.6904 19.2501 19.25 18.6905 19.25 18.0001V14.0001C19.25 13.5859 19.5858 13.2501 20 13.2501C20.4142 13.2501 20.75 13.5859 20.75 14.0001V18.0001C20.75 19.5189 19.5188 20.7501 18 20.7501H6C4.48122 20.7501 3.25 19.5189 3.25 18.0001ZM11.25 15.0001V5.81066L8.53027 8.53039C8.23738 8.82328 7.76262 8.82328 7.46973 8.53039C7.17683 8.2375 7.17683 7.76274 7.46973 7.46984L11.4697 3.46984L11.5264 3.41809C11.8209 3.17778 12.2557 3.19524 12.5303 3.46984L16.5303 7.46984C16.8232 7.76274 16.8232 8.2375 16.5303 8.53039C16.2374 8.82328 15.7626 8.82328 15.4697 8.53039L12.75 5.81066V15.0001C12.75 15.4143 12.4142 15.7501 12 15.7501C11.5858 15.7501 11.25 15.4143 11.25 15.0001Z" fill="currentColor"/> </svg>