<svg width="24" height="24" viewBox="0 0 24 24" fill="none" xmlns="http://www.w3.org/2000/svg"> <path d="M20.25 9C20.25 8.58579 19.9142 8.25 19.5 8.25H15.75V15.75H19.5C19.9142 15.75 20.25 15.4142 20.25 15V9ZM8.75 15.75H14.25V8.25H8.75V15.75ZM4 12C4 11.1716 4.67157 10.5 5.5 10.5C6.32843 10.5 7 11.1716 7 12C7 12.8284 6.32843 13.5 5.5 13.5C4.67157 13.5 4 12.8284 4 12ZM13 11.25C13.4142 11.25 13.75 11.5858 13.75 12C13.75 12.4142 13.4142 12.75 13 12.75H10C9.58579 12.75 9.25 12.4142 9.25 12C9.25 11.5858 9.58579 11.25 10 11.25H13ZM19 11.25C19.4142 11.25 19.75 11.5858 19.75 12C19.75 12.4142 19.4142 12.75 19 12.75H17C16.5858 12.75 16.25 12.4142 16.25 12C16.25 11.5858 16.5858 11.25 17 11.25H19ZM3.75 15C3.75 15.4142 4.08579 15.75 4.5 15.75H7.25V8.25H4.5C4.08578 8.25 3.75 8.58578 3.75 9V15ZM21.75 15C21.75 16.2426 20.7426 17.25 19.5 17.25H4.5C3.25735 17.25 2.25 16.2426 2.25 15V9C2.25 7.75736 3.25736 6.75 4.5 6.75H19.5C20.7426 6.75 21.75 7.75735 21.75 9V15Z" fill="currentColor"/> </svg>