<svg width="24" height="24" viewBox="0 0 24 24" fill="none" xmlns="http://www.w3.org/2000/svg"> <path d="M8 7.5V16.5M15 7.5V16.5M10 12H13M17 12H19M4.5 7.5H19.5C20.3284 7.5 21 8.17157 21 9V15C21 15.8284 20.3284 16.5 19.5 16.5H4.5C3.67157 16.5 3 15.8284 3 15V9C3 8.17157 3.67157 7.5 4.5 7.5ZM5.5 11.25C5.91421 11.25 6.25 11.5858 6.25 12C6.25 12.4142 5.91421 12.75 5.5 12.75C5.08579 12.75 4.75 12.4142 4.75 12C4.75 11.5858 5.08579 11.25 5.5 11.25Z" stroke="currentColor" stroke-width="1.5" stroke-linecap="round" stroke-linejoin="round"/> </svg>