<svg width="24" height="24" viewBox="0 0 24 24" fill="none" xmlns="http://www.w3.org/2000/svg"> <path d="M20.3696 6.62995C20.6831 6.31238 21.158 6.21543 21.5708 6.38484C21.9834 6.55432 22.2525 6.95631 22.2525 7.40242V15.6524C22.2525 16.2599 21.7604 16.752 21.1528 16.752H12.9028C12.4567 16.752 12.0548 16.483 11.8853 16.0704C11.7158 15.6576 11.8128 15.1827 12.1304 14.8692L14.5386 12.4913C13.6235 11.9791 12.6259 11.7247 11.5278 11.7247C10.3311 11.7247 9.13319 12.1176 7.91749 12.9766L7.91847 12.9776C6.73601 13.8331 5.99002 14.839 5.61281 15.9942C5.42496 16.569 4.80796 16.8844 4.23195 16.7003L2.08351 16.0128C1.80507 15.9237 1.57342 15.727 1.43995 15.4669C1.30654 15.2068 1.28162 14.9042 1.3716 14.626C2.07312 12.4578 3.35724 10.6783 5.2007 9.31159L5.20851 9.30671C7.08674 7.93787 9.20388 7.24812 11.5278 7.24812C13.8688 7.24812 15.9696 7.91253 17.7974 9.23542L20.3696 6.62995ZM17.8867 10.7109C16.082 9.13542 13.9622 8.34766 11.5273 8.34766C9.4362 8.34766 7.54557 8.96354 5.85547 10.1953C4.19401 11.4271 3.04818 13.0169 2.41797 14.9648L4.56641 15.6523C5.02474 14.2487 5.92708 13.0599 7.27344 12.0859C8.64844 11.112 10.0664 10.625 11.5273 10.625C13.3034 10.625 14.8789 11.1979 16.2539 12.3438L12.9023 15.6523H21.1523V7.40234L17.8867 10.7109Z" fill="currentColor"/> </svg>