<svg width="24" height="24" viewBox="0 0 24 24" fill="none" xmlns="http://www.w3.org/2000/svg"> <path d="M20.7607 7.01562C20.9175 6.85692 21.155 6.80887 21.3613 6.89355C21.5676 6.9783 21.7021 7.17929 21.7021 7.40234V15.6523C21.7021 15.9561 21.4561 16.2021 21.1523 16.2021H12.9023C12.6793 16.2021 12.4783 16.0676 12.3936 15.8613C12.3089 15.655 12.3569 15.4175 12.5156 15.2607L15.418 12.3945C14.2614 11.5792 12.9692 11.1748 11.5273 11.1748C10.1972 11.1748 8.88856 11.6166 7.5918 12.5352L7.59082 12.5342C6.32888 13.4483 5.50616 14.5453 5.08887 15.8232C4.99487 16.1106 4.68644 16.2679 4.39844 16.1758L2.25 15.4883C2.11097 15.4437 1.99538 15.3457 1.92871 15.2158C1.86206 15.0859 1.84968 14.9349 1.89453 14.7959C2.56039 12.7378 3.77583 11.0532 5.52832 9.75391L5.53125 9.75098C7.31543 8.45064 9.31976 7.79785 11.5273 7.79785C13.916 7.79785 16.0296 8.52165 17.8486 9.96484L20.7607 7.01562Z" stroke="currentColor" stroke-width="1.1" stroke-linecap="round" stroke-linejoin="round"/> </svg>