<svg width="24" height="24" viewBox="0 0 24 24" fill="none" xmlns="http://www.w3.org/2000/svg"> <path d="M19.332 20.0002V16.6193C18.5926 17.7916 17.5802 18.7775 16.3701 19.4836C14.7135 20.4501 12.7827 20.8396 10.8809 20.592C8.97907 20.3442 7.21309 19.473 5.85938 18.1144C4.50568 16.7559 3.64034 14.9868 3.39941 13.0841C3.35317 12.7189 3.61226 12.3853 3.97754 12.339C4.34269 12.2929 4.67635 12.551 4.72266 12.9162C4.92648 14.5262 5.65824 16.0234 6.80371 17.173C7.94916 18.3226 9.44353 19.06 11.0527 19.2697C12.6621 19.4793 14.2964 19.1491 15.6982 18.3312C16.8038 17.686 17.7145 16.7652 18.3496 15.6671H14.999C14.6309 15.6671 14.3321 15.3683 14.332 15.0002C14.332 14.632 14.6308 14.3332 14.999 14.3332H19.999C20.3672 14.3332 20.666 14.632 20.666 15.0002V20.0002C20.666 20.3683 20.3672 20.6671 19.999 20.6671C19.6309 20.6671 19.3321 20.3683 19.332 20.0002ZM7.62793 4.51383C9.28466 3.54646 11.2158 3.15668 13.1182 3.40445C15.0206 3.65226 16.7869 4.52442 18.1406 5.88394C19.4942 7.24348 20.3591 9.01367 20.5986 10.9171C20.6444 11.2822 20.3856 11.6152 20.0205 11.6613C19.6552 11.7073 19.3214 11.4485 19.2754 11.0832C19.0726 9.47261 18.3416 7.97471 17.1963 6.82437C16.0509 5.67407 14.556 4.93646 12.9463 4.72672C11.3365 4.51705 9.70172 4.84656 8.2998 5.66519C7.19345 6.31127 6.28213 7.23365 5.64746 8.33316H8.99902C9.36721 8.33316 9.66602 8.63197 9.66602 9.00016C9.66598 9.36831 9.36719 9.66715 8.99902 9.66715H3.99902C3.63086 9.66715 3.33207 9.36831 3.33203 9.00016V4.00016C3.33203 3.63197 3.63083 3.33316 3.99902 3.33316C4.36721 3.33316 4.66602 3.63197 4.66602 4.00016V7.38004C5.40498 6.207 6.41777 5.22049 7.62793 4.51383Z" fill="currentColor"/> </svg>