<svg width="25" height="25" viewBox="0 0 25 25" fill="none" xmlns="http://www.w3.org/2000/svg"> <path d="M10.7764 0.168086C11.0709 -0.0722233 11.5057 -0.0547602 11.7803 0.219844L14.2803 2.71984C14.5732 3.01274 14.5732 3.4875 14.2803 3.78039C13.9874 4.07328 13.5126 4.07328 13.2197 3.78039L12 2.56066V12.9396L13.2197 11.7198C13.5126 11.427 13.9874 11.427 14.2803 11.7198C14.5732 12.0127 14.5732 12.4875 14.2803 12.7804L11.7803 15.2804C11.4874 15.5733 11.0126 15.5733 10.7197 15.2804L8.21973 12.7804C7.92683 12.4875 7.92683 12.0127 8.21973 11.7198C8.51262 11.427 8.98738 11.427 9.28027 11.7198L10.5 12.9396V2.56066L9.28027 3.78039C8.98738 4.07328 8.51262 4.07328 8.21973 3.78039C7.92683 3.4875 7.92683 3.01274 8.21973 2.71984L10.7197 0.219844L10.7764 0.168086ZM1.75 11.5001C2.16421 11.5001 2.5 11.8359 2.5 12.2501C2.5 12.6643 2.16421 13.0001 1.75 13.0001H0.75C0.335786 13.0001 0 12.6643 0 12.2501C0 11.8359 0.335786 11.5001 0.75 11.5001H1.75ZM5.75 11.5001C6.16421 11.5001 6.5 11.8359 6.5 12.2501C6.5 12.6643 6.16421 13.0001 5.75 13.0001H4.75C4.33579 13.0001 4 12.6643 4 12.2501C4 11.8359 4.33579 11.5001 4.75 11.5001H5.75ZM1.75 6.50012C2.16421 6.50012 2.5 6.8359 2.5 7.25012C2.5 7.66433 2.16421 8.00012 1.75 8.00012H0.75C0.335786 8.00012 0 7.66433 0 7.25012C0 6.8359 0.335786 6.50012 0.75 6.50012H1.75ZM5.75 6.50012C6.16421 6.50012 6.5 6.8359 6.5 7.25012C6.5 7.66433 6.16421 8.00012 5.75 8.00012H4.75C4.33579 8.00012 4 7.66433 4 7.25012C4 6.8359 4.33579 6.50012 4.75 6.50012H5.75ZM1.75 1.50012C2.16421 1.50012 2.5 1.8359 2.5 2.25012C2.5 2.66433 2.16421 3.00012 1.75 3.00012H0.75C0.335786 3.00012 0 2.66433 0 2.25012C0 1.8359 0.335786 1.50012 0.75 1.50012H1.75ZM5.75 1.50012C6.16421 1.50012 6.5 1.8359 6.5 2.25012C6.5 2.66433 6.16421 3.00012 5.75 3.00012H4.75C4.33579 3.00012 4 2.66433 4 2.25012C4 1.8359 4.33579 1.50012 4.75 1.50012H5.75Z" fill="currentColor"/> </svg>