<svg width="24" height="24" viewBox="0 0 24 24" fill="none" xmlns="http://www.w3.org/2000/svg"> <path d="M20.25 15.417H16.25V19.25H19.5C19.9142 19.25 20.25 18.9142 20.25 18.5V15.417ZM10.75 19.25H14.75V15.417H10.75V19.25ZM8 16.583C8.41412 16.583 8.74984 16.9189 8.75 17.333C8.75 17.7472 8.41421 18.083 8 18.083H5C4.58579 18.083 4.25 17.7472 4.25 17.333C4.25016 16.9189 4.58588 16.583 5 16.583H8ZM16.25 13.917H20.25V10.083H16.25V13.917ZM10.75 13.917H14.75V10.083H10.75V13.917ZM3.75 13.917H9.25V10.083H3.75V13.917ZM8 11.25C8.41421 11.25 8.75 11.5858 8.75 12C8.75 12.4142 8.41421 12.75 8 12.75H5C4.58579 12.75 4.25 12.4142 4.25 12C4.25 11.5858 4.58579 11.25 5 11.25H8ZM10.75 8.58301H14.75V4.75H10.75V8.58301ZM8 5.91699C8.41421 5.91699 8.75 6.25278 8.75 6.66699C8.74984 7.08107 8.41412 7.41699 8 7.41699H5C4.58588 7.41699 4.25016 7.08107 4.25 6.66699C4.25 6.25278 4.58579 5.91699 5 5.91699H8ZM3.75 18.5C3.75 18.9142 4.08579 19.25 4.5 19.25H9.25V15.417H3.75V18.5ZM20.25 5.5C20.25 5.08579 19.9142 4.75 19.5 4.75H16.25V8.58301H20.25V5.5ZM3.75 8.58301H9.25V4.75H4.5C4.08578 4.75 3.75 5.08578 3.75 5.5V8.58301ZM21.75 18.5C21.75 19.7426 20.7426 20.75 19.5 20.75H4.5C3.25735 20.75 2.25 19.7426 2.25 18.5V5.5C2.25 4.25736 3.25736 3.25 4.5 3.25H19.5C20.7426 3.25 21.75 4.25735 21.75 5.5V18.5Z" fill="currentColor"/> </svg>