<svg width="24" height="24" viewBox="0 0 24 24" fill="none" xmlns="http://www.w3.org/2000/svg"> <path d="M15.6523 9.72266C15.6523 8.0612 15.0794 6.65755 13.9336 5.51172C12.7878 4.33724 11.3841 3.75 9.72266 3.75C8.0612 3.75 6.64323 4.33724 5.46875 5.51172C4.32292 6.65755 3.75 8.0612 3.75 9.72266C3.75 11.3841 4.32292 12.7878 5.46875 13.9336C6.64323 15.0794 8.0612 15.6523 9.72266 15.6523C11.2122 15.6523 12.5013 15.1797 13.5898 14.2344L13.8477 14.4922V15.2227L18.4023 19.7773L19.7773 18.4023L15.2227 13.8477H14.4922L14.2344 13.5898C14.6068 13.1315 14.9362 12.5299 15.2227 11.7852C15.5091 11.0117 15.6523 10.3242 15.6523 9.72266ZM12.748 9.72266C12.748 8.86523 12.4606 8.17158 11.8672 7.57812C11.2737 6.98467 10.5801 6.69727 9.72266 6.69727C8.86523 6.69727 8.17158 6.98467 7.57812 7.57812C6.98467 8.17158 6.69727 8.86523 6.69727 9.72266C6.69727 10.5801 6.98467 11.2737 7.57812 11.8672C8.17158 12.4606 8.86523 12.748 9.72266 12.748V13.8477C8.57682 13.8477 7.60286 13.4466 6.80078 12.6445C5.9987 11.8424 5.59766 10.8685 5.59766 9.72266C5.59766 8.57682 5.9987 7.60286 6.80078 6.80078C7.60286 5.9987 8.57682 5.59766 9.72266 5.59766C10.8685 5.59766 11.8424 5.9987 12.6445 6.80078C13.4466 7.60286 13.8477 8.57682 13.8477 9.72266C13.8477 10.8685 13.4466 11.8424 12.6445 12.6445C11.8424 13.4466 10.8685 13.8477 9.72266 13.8477V12.748C10.5801 12.748 11.2737 12.4606 11.8672 11.8672C12.4606 11.2737 12.748 10.5801 12.748 9.72266ZM16.752 9.72266C16.752 10.4931 16.57 11.3135 16.2539 12.167L16.249 12.1797C16.1411 12.4603 16.0237 12.7279 15.8994 12.9824C15.9344 13.0098 15.9683 13.0386 16 13.0703L20.5547 17.625C20.9843 18.0546 20.9843 18.7501 20.5547 19.1797L19.1797 20.5547C18.7501 20.9843 18.0546 20.9843 17.625 20.5547L13.0703 16C13.0553 15.985 13.0414 15.9689 13.0273 15.9531C12.0311 16.486 10.9236 16.752 9.72266 16.752C7.7782 16.752 6.083 16.0698 4.7002 14.7207L4.69043 14.7119L4.69141 14.7109C3.33351 13.353 2.65039 11.6676 2.65039 9.72266C2.65039 7.77773 3.33351 6.09227 4.69141 4.73438C6.07224 3.35354 7.76956 2.65039 9.72266 2.65039C11.6762 2.65039 13.365 3.35372 14.7207 4.74316C16.0728 6.09954 16.752 7.78192 16.752 9.72266Z" fill="currentColor"/> </svg>