<svg width="24" height="24" viewBox="0 0 24 24" fill="none" xmlns="http://www.w3.org/2000/svg"> <path d="M9.72266 3.2002C11.528 3.2002 13.0723 3.8442 14.3223 5.12305L14.5498 5.36133C15.6502 6.56912 16.2021 8.03223 16.2021 9.72266C16.2021 10.4087 16.0396 11.1631 15.7383 11.9766L15.7363 11.9824C15.5485 12.4707 15.3393 12.9107 15.1064 13.2979H15.2227L15.3301 13.3086C15.4359 13.3297 15.5339 13.3815 15.6113 13.459L20.166 18.0137C20.3808 18.2285 20.3808 18.5762 20.166 18.791L18.791 20.166C18.5762 20.3808 18.2285 20.3808 18.0137 20.166L13.459 15.6113C13.3558 15.5082 13.2979 15.3685 13.2979 15.2227V15.1484C12.251 15.8506 11.0546 16.2021 9.72266 16.2021C7.91974 16.2021 6.36359 15.5745 5.08496 14.3271L5.08008 14.3223C3.82821 13.0704 3.2002 11.5259 3.2002 9.72266C3.2002 7.91946 3.82821 6.37491 5.08008 5.12305C6.35774 3.84539 7.91538 3.2002 9.72266 3.2002ZM9.72266 6.14746C8.72103 6.14746 7.88722 6.49169 7.18945 7.18945C6.49169 7.88722 6.14746 8.72103 6.14746 9.72266C6.14746 10.7243 6.49169 11.5581 7.18945 12.2559C7.88722 12.9536 8.72103 13.2979 9.72266 13.2979C10.7243 13.2979 11.5581 12.9536 12.2559 12.2559C12.9536 11.5581 13.2979 10.7243 13.2979 9.72266C13.2979 8.72103 12.9536 7.88722 12.2559 7.18945C11.5581 6.49169 10.7243 6.14746 9.72266 6.14746Z" stroke="currentColor" stroke-width="1.1" stroke-linecap="round" stroke-linejoin="round"/> </svg>