<svg width="24" height="24" viewBox="0 0 24 24" fill="none" xmlns="http://www.w3.org/2000/svg"> <path d="M19.8242 2.73531C20.2361 2.56262 20.7115 2.6568 21.0273 2.97262C21.3432 3.28844 21.4373 3.76385 21.2646 4.17574L14.3467 20.6757C14.1752 21.0843 13.7751 21.3496 13.332 21.3496H12.4297C11.9742 21.3496 11.5655 21.0688 11.4023 20.6435L9.1709 14.8281L3.35645 12.5976C2.93114 12.4345 2.65039 12.0258 2.65039 11.5703V10.6679C2.65039 10.2249 2.91568 9.82472 3.32422 9.65328L19.8242 2.73531ZM3.75 11.5703L10.0234 13.9766L12.4297 20.25H13.332L20.25 3.75L3.75 10.668V11.5703Z" fill="currentColor"/> </svg>