<svg width="24" height="24" viewBox="0 0 24 24" fill="none" xmlns="http://www.w3.org/2000/svg"> <path d="M2.54492 3.29102C2.69927 3.18924 2.89452 3.17131 3.06445 3.24414L22.3145 11.4941C22.5167 11.5808 22.6475 11.78 22.6475 12C22.6475 12.22 22.5167 12.4192 22.3145 12.5059L3.06445 20.7559C2.89452 20.8287 2.69927 20.8108 2.54492 20.709C2.39061 20.6072 2.29785 20.4349 2.29785 20.25V13.8477C2.29785 13.5722 2.50143 13.3394 2.77441 13.3027L12.4688 12L2.77441 10.6973C2.50143 10.6606 2.29785 10.4278 2.29785 10.1523V3.75C2.29785 3.56514 2.39061 3.39279 2.54492 3.29102Z" stroke="currentColor" stroke-width="1.1" stroke-linecap="round" stroke-linejoin="round"/> </svg>