<svg width="24" height="24" viewBox="0 0 24 24" fill="none" xmlns="http://www.w3.org/2000/svg"> <path d="M19.3477 2.29785C19.9802 2.29785 20.5277 2.543 20.9658 3.00195H20.9668C20.972 3.00677 20.9763 3.01274 20.9814 3.01758C20.9866 3.02307 20.9929 3.02765 20.998 3.0332H20.9971C21.4567 3.4715 21.7021 4.01931 21.7021 4.65234V15.6523C21.7021 16.2906 21.4534 16.8502 20.9971 17.3135L20.998 17.3145C20.555 17.7945 19.9951 18.0498 19.3477 18.0498H6.72754L3.23633 21.541C3.07903 21.6983 2.84224 21.7453 2.63672 21.6602C2.43148 21.5749 2.29785 21.3746 2.29785 21.1523V4.65234C2.29785 4.01978 2.52751 3.46467 2.97461 3.01758C3.44088 2.55131 4.00688 2.29785 4.65234 2.29785H19.3477ZM11.6475 13.2979H12.3525V12.5498H11.6475V13.2979ZM11.6475 9.60254H12.3525V7.0498H11.6475V9.60254Z" stroke="currentColor" stroke-width="1.1" stroke-linecap="round" stroke-linejoin="round"/> </svg>