<svg width="24" height="24" viewBox="0 0 24 24" fill="none" xmlns="http://www.w3.org/2000/svg"> <path d="M1.74805 4.65234C1.74805 3.8742 2.03549 3.17935 2.58594 2.62891C3.14607 2.06877 3.8484 1.74805 4.65234 1.74805V2.84766C4.16536 2.84766 3.73568 3.03385 3.36328 3.40625C3.01953 3.75 2.84766 4.16536 2.84766 4.65234V21.1523L6.5 17.5H19.3477C19.8346 17.5 20.25 17.3138 20.5938 16.9414C20.9661 16.569 21.1523 16.1393 21.1523 15.6523V4.65234C21.1523 4.16536 20.9661 3.75 20.5938 3.40625C20.25 3.03385 19.8346 2.84766 19.3477 2.84766V1.74805C20.1257 1.74805 20.805 2.05144 21.3389 2.59863L21.3398 2.59766L21.4023 2.66016L21.4014 2.66113C21.9486 3.19495 22.252 3.87431 22.252 4.65234V15.6523C22.252 16.4413 21.9413 17.1306 21.4004 17.6855L21.4023 17.6875C20.8599 18.2751 20.1555 18.5996 19.3477 18.5996H6.95508L3.625 21.9297C3.31044 22.2442 2.83776 22.3391 2.42676 22.1689C2.01572 21.9987 1.74805 21.5973 1.74805 21.1523V4.65234ZM12.9023 12V13.8477H11.0977V12H12.9023ZM12.9023 6.5V10.1523H11.0977V6.5H12.9023ZM19.3477 1.74805V2.84766H4.65234V1.74805H19.3477Z" fill="currentColor"/> </svg>