<svg width="24" height="24" viewBox="0 0 24 24" fill="none" xmlns="http://www.w3.org/2000/svg"> <path d="M2.24219 2.83209C2.55088 2.62855 2.94139 2.59367 3.28125 2.73932L22.5312 10.9893C22.9355 11.1627 23.1973 11.5602 23.1973 12.0001C23.1973 12.44 22.9355 12.8374 22.5312 13.0108L3.28125 21.2608C2.94139 21.4065 2.55088 21.3716 2.24219 21.168C1.93357 20.9645 1.74805 20.6198 1.74805 20.2501V13.8477C1.74805 13.2968 2.1552 12.8313 2.70117 12.7579L8.33984 12.0001L2.70117 11.2423C2.1552 11.1689 1.74805 10.7033 1.74805 10.1524V3.75006C1.74805 3.38035 1.93357 3.03565 2.24219 2.83209ZM2.84766 20.25L22.0977 12L2.84766 3.75V10.1523L16.5977 12L2.84766 13.8477V20.25Z" fill="currentColor"/> </svg>