<svg width="24" height="24" viewBox="0 0 24 24" fill="none" xmlns="http://www.w3.org/2000/svg"> <path d="M13.8477 2.29785C14.0707 2.29792 14.3032 2.3635 14.4941 2.53516C14.6314 2.65867 14.7183 2.81041 14.7715 2.96289L14.8135 3.11523L14.8213 3.15625L15.1221 5.2627C15.5118 5.44687 15.8865 5.66581 16.2461 5.91895L18.2422 5.12891C18.2516 5.12516 18.2618 5.12236 18.2715 5.11914C18.4673 5.05391 18.7013 5.02054 18.9395 5.09375C19.1887 5.17045 19.3655 5.34008 19.4785 5.53613H19.4795L21.3271 8.71582L21.332 8.72461L21.4043 8.875C21.4699 9.03361 21.5096 9.2172 21.4814 9.41406C21.4425 9.68584 21.2878 9.88883 21.1016 10.0273L21.1025 10.0283L19.4062 11.3467C19.418 11.5346 19.4248 11.7536 19.4248 12C19.4248 12.246 19.4179 12.4647 19.4062 12.6523L21.1025 13.9717H21.1016C21.288 14.1102 21.4425 14.3139 21.4814 14.5859C21.5189 14.8483 21.4363 15.0876 21.332 15.2754L21.3271 15.2842L19.4795 18.4639L19.4785 18.4629C19.3655 18.6593 19.189 18.8295 18.9395 18.9062C18.7013 18.9795 18.4673 18.9461 18.2715 18.8809C18.2618 18.8776 18.2516 18.8748 18.2422 18.8711L16.2363 18.0762C15.8358 18.3496 15.4645 18.5728 15.1221 18.7373L14.8213 20.8438C14.8193 20.8575 14.8165 20.8712 14.8135 20.8848C14.769 21.0849 14.6772 21.3001 14.4941 21.4648C14.3032 21.6365 14.0707 21.7021 13.8477 21.7021H10.1523C9.92915 21.7021 9.69597 21.6367 9.50488 21.4648C9.32184 21.3001 9.23003 21.0849 9.18555 20.8848C9.18253 20.8712 9.17971 20.8575 9.17773 20.8438L8.87598 18.7354C8.48641 18.5511 8.11142 18.3332 7.75195 18.0801L5.75684 18.8711C5.74755 18.8748 5.73799 18.8777 5.72852 18.8809C5.53259 18.9462 5.29788 18.9796 5.05957 18.9062C4.80998 18.8294 4.6335 18.6593 4.52051 18.4629V18.4639L2.67285 15.2842L2.66699 15.2754C2.56268 15.0876 2.48009 14.8483 2.51758 14.5859C2.55652 14.314 2.71108 14.1102 2.89746 13.9717H2.89648L4.5918 12.6523C4.58013 12.4647 4.57422 12.2459 4.57422 12C4.57422 11.7536 4.58009 11.5346 4.5918 11.3467L2.89648 10.0283L2.89746 10.0273C2.71129 9.88883 2.55649 9.68577 2.51758 9.41406C2.48009 9.15165 2.56268 8.91238 2.66699 8.72461L2.67285 8.71582L4.52051 5.53613C4.63352 5.34005 4.81029 5.17049 5.05957 5.09375C5.23815 5.0388 5.41456 5.04371 5.57422 5.07715L5.72852 5.11914L5.75684 5.12891L7.76172 5.92285C8.16217 5.64944 8.53359 5.42624 8.87598 5.26172L9.17773 3.15625C9.17971 3.14247 9.18253 3.12883 9.18555 3.11523C9.23003 2.91507 9.32184 2.6999 9.50488 2.53516C9.69597 2.3633 9.92915 2.29785 10.1523 2.29785H13.8477ZM12 9.32715C11.2585 9.32715 10.6388 9.58395 10.1113 10.1113C9.58384 10.6388 9.32715 11.2584 9.32715 12C9.32715 12.7416 9.58384 13.3612 10.1113 13.8887C10.6388 14.416 11.2585 14.6729 12 14.6729C12.7413 14.6728 13.3604 14.4159 13.8877 13.8887C14.4152 13.3612 14.6719 12.7416 14.6719 12C14.6719 11.2584 14.4152 10.6388 13.8877 10.1113C13.3604 9.58414 12.7413 9.32722 12 9.32715Z" stroke="currentColor" stroke-width="1.1" stroke-linecap="round" stroke-linejoin="round"/> </svg>