<svg width="24" height="24" viewBox="0 0 24 24" fill="none" xmlns="http://www.w3.org/2000/svg"> <path d="M4.02454 12C4.02454 11.8637 4.02888 11.7328 4.03235 11.6084L2.55872 10.4619L2.5597 10.4609C2.28572 10.2538 2.0368 9.93247 1.97376 9.49121C1.91319 9.06677 2.04966 8.70459 2.18665 8.45801L2.19739 8.43945L4.04505 5.25977C4.21402 4.96744 4.49236 4.69215 4.89759 4.56738C5.18531 4.47885 5.45899 4.49081 5.6886 4.53906L5.90247 4.59668L5.96009 4.61816L7.69446 5.30566C7.9272 5.15445 8.15336 5.01815 8.37317 4.90039L8.63391 3.0791L8.64856 2.99609C8.70886 2.72474 8.84251 2.39195 9.13684 2.12695C9.44749 1.84737 9.82048 1.74805 10.1525 1.74805L10.152 2.84766L10.0704 2.85352C9.8886 2.88164 9.77249 3.00874 9.72233 3.23438L9.37858 5.64062C8.94889 5.8125 8.43327 6.11328 7.83171 6.54297L5.55436 5.64062C5.29655 5.55469 5.11035 5.61198 4.99577 5.8125L3.14811 8.99219L3.10266 9.08594C3.01481 9.2991 3.05853 9.46838 3.23405 9.59375L5.16764 11.0977C5.139 11.2982 5.12467 11.599 5.12467 12L5.13587 12.5264C5.14303 12.6768 5.15332 12.8021 5.16764 12.9023L3.23405 14.4062C3.03353 14.5495 3.00488 14.75 3.14811 15.0078L4.99577 18.1875C5.09602 18.3628 5.25124 18.4286 5.46106 18.3848L5.55436 18.3594L7.83171 17.457C8.31868 17.8294 8.83431 18.1302 9.37858 18.3594L9.72233 20.7656C9.77249 20.9913 9.8886 21.1184 10.0704 21.1465L10.152 21.1523H13.8473L13.9298 21.1465C14.0853 21.1222 14.193 21.0255 14.2521 20.8564L14.277 20.7656L14.6208 18.3594C15.0505 18.1875 15.5661 17.8867 16.1676 17.457L18.445 18.3594C18.7028 18.4453 18.889 18.388 19.0036 18.1875L20.8512 15.0078C20.9945 14.75 20.9658 14.5495 20.7653 14.4062L18.8317 12.9023C18.846 12.8021 18.8572 12.6767 18.8644 12.5264L18.8747 12C18.8747 11.599 18.8604 11.2982 18.8317 11.0977L20.7653 9.59375C20.9407 9.46837 20.9845 9.29907 20.8966 9.08594L20.8512 8.99219L19.0036 5.8125C18.889 5.61198 18.7028 5.55469 18.445 5.64062L16.1676 6.54297L15.797 6.27734C15.4211 6.02496 15.0289 5.81248 14.6208 5.64062L14.277 3.23438C14.2269 3.00896 14.1113 2.88184 13.9298 2.85352L13.8473 2.84766L13.8478 1.74805C14.1797 1.74811 14.5519 1.84746 14.8624 2.12695C15.0834 2.3258 15.2134 2.56266 15.2902 2.7832L15.3507 2.99609L15.3663 3.0791L15.6261 4.89844C15.8612 5.0206 16.0906 5.15486 16.3146 5.30078L18.0402 4.61816L18.0968 4.59668C18.3597 4.50904 18.7182 4.4494 19.1017 4.56738C19.5072 4.69215 19.7862 4.96727 19.9552 5.25977L21.8029 8.43945L21.8126 8.45801C21.9496 8.70457 22.087 9.06679 22.0265 9.49121C21.9634 9.93258 21.7136 10.2538 21.4396 10.4609L21.4406 10.4619L19.9659 11.6074C19.9694 11.7321 19.9747 11.8633 19.9747 12C19.9747 12.1363 19.9694 12.2672 19.9659 12.3916L21.4406 13.5381C21.7148 13.7452 21.9634 14.0672 22.0265 14.5088C22.087 14.9332 21.9496 15.2954 21.8126 15.542C21.8092 15.5481 21.8064 15.5545 21.8029 15.5605L19.9552 18.7402C19.7862 19.0327 19.5072 19.3078 19.1017 19.4326C18.7182 19.5506 18.3597 19.491 18.0968 19.4033C18.0777 19.3969 18.0589 19.3893 18.0402 19.3818L16.3048 18.6934C16.0721 18.8446 15.8459 18.9809 15.6261 19.0986L15.3663 20.9209C15.3624 20.9487 15.3568 20.9765 15.3507 21.0039C15.2904 21.2753 15.1569 21.608 14.8624 21.873C14.5519 22.1525 14.1797 22.2519 13.8478 22.252H10.1525C9.82048 22.252 9.44749 22.1526 9.13684 21.873C8.84251 21.608 8.70886 21.2753 8.64856 21.0039C8.64249 20.9765 8.63788 20.9487 8.63391 20.9209L8.37317 19.1006C8.13807 18.9784 7.90864 18.8442 7.6847 18.6982L5.96009 19.3818C5.94117 19.3893 5.92178 19.3969 5.90247 19.4033C5.63953 19.491 5.2811 19.5506 4.89759 19.4326C4.49236 19.3079 4.21402 19.0326 4.04505 18.7402L2.19739 15.5605C2.19384 15.5544 2.19008 15.5482 2.18665 15.542C2.04966 15.2954 1.91319 14.9332 1.97376 14.5088C2.03683 14.0673 2.28553 13.7452 2.5597 13.5381L4.03235 12.3906C4.0289 12.2665 4.02454 12.1359 4.02454 12ZM14.1222 12C14.1222 11.4049 13.9239 10.9248 13.4991 10.5C13.0745 10.0755 12.5949 9.87703 12.0001 9.87695C11.4051 9.87695 10.9248 10.0753 10.5001 10.5C10.0754 10.9248 9.87708 11.4049 9.87708 12C9.87708 12.5951 10.0754 13.0752 10.5001 13.5C10.9248 13.9247 11.4051 14.123 12.0001 14.123L11.9997 15.2227L11.8351 15.2188C11.1266 15.1868 10.5032 14.947 9.96497 14.499L9.72233 14.2773C9.13152 13.6865 8.81733 12.9824 8.7804 12.165L8.77702 12C8.77702 11.2229 9.01848 10.5445 9.5011 9.96484L9.72233 9.72266C10.3525 9.09245 11.1117 8.77734 11.9997 8.77734L12.1652 8.78125C12.9824 8.81826 13.6863 9.13193 14.277 9.72266C14.9072 10.3529 15.2223 11.112 15.2223 12L15.2189 12.165C15.1819 12.9824 14.8677 13.6866 14.277 14.2773L14.0343 14.499C13.4548 14.9813 12.7764 15.2226 11.9997 15.2227L12.0001 14.123C12.5949 14.123 13.0745 13.9245 13.4991 13.5C13.9239 13.0752 14.1222 12.5951 14.1222 12ZM13.8478 1.74805L13.8473 2.84766H10.152L10.1525 1.74805H13.8478Z" fill="currentColor"/> </svg>