<svg width="24" height="24" viewBox="0 0 24 24" fill="none" xmlns="http://www.w3.org/2000/svg"> <path d="M11.75 12C11.9585 12 12.1579 12.0865 12.2998 12.2393L18.7998 19.2393C19.0028 19.4579 19.0567 19.7764 18.9375 20.0498C18.8183 20.3232 18.5483 20.5 18.25 20.5H5.25C4.9517 20.5 4.68174 20.3232 4.5625 20.0498C4.44326 19.7764 4.49722 19.4579 4.7002 19.2393L11.2002 12.2393C11.3421 12.0865 11.5415 12 11.75 12ZM6.9707 19H16.5293L11.75 13.8525L6.9707 19ZM10 7.75C10 6.23121 8.76879 5 7.25 5C5.73121 5 4.5 6.23121 4.5 7.75C4.5 9.26879 5.73121 10.5 7.25 10.5C8.76879 10.5 10 9.26879 10 7.75ZM20.25 3.5C20.6642 3.5 21 3.83579 21 4.25V10.25C21 10.6642 20.6642 11 20.25 11H14.25C13.8358 11 13.5 10.6642 13.5 10.25V4.25C13.5 3.83579 13.8358 3.5 14.25 3.5H20.25ZM15 9.5H19.5V5H15V9.5ZM11.5 7.75C11.5 10.0972 9.59721 12 7.25 12C4.90279 12 3 10.0972 3 7.75C3 5.40279 4.90279 3.5 7.25 3.5C9.59721 3.5 11.5 5.40279 11.5 7.75Z" fill="currentColor"/> </svg>