<svg width="24" height="24" viewBox="0 0 24 24" fill="none" xmlns="http://www.w3.org/2000/svg"> <path d="M12 3.2002C12.3038 3.2002 12.5498 3.44624 12.5498 3.75V5.59766L12.5391 5.70898C12.4876 5.9594 12.2656 6.14746 12 6.14746H5.20215V17.8525H12C12.3038 17.8525 12.5498 18.0986 12.5498 18.4023V20.25C12.5498 20.5538 12.3038 20.7998 12 20.7998H4.65234C4.00688 20.7998 3.44088 20.5463 2.97461 20.0801C2.96943 20.0749 2.96396 20.0698 2.95898 20.0645C2.52571 19.595 2.29785 19.0336 2.29785 18.4023V5.59766C2.29785 4.96637 2.52571 4.40497 2.95898 3.93555L2.97461 3.91992C3.44088 3.45366 4.00688 3.2002 4.65234 3.2002H12ZM16.5986 6.85254C16.7449 6.85288 16.8853 6.91168 16.9883 7.01562L21.543 11.6133C21.7552 11.8276 21.7552 12.1724 21.543 12.3867L16.9883 16.9844C16.8843 17.0894 16.7425 17.1482 16.5947 17.1475C16.4469 17.1466 16.305 17.0867 16.2021 16.9805L14.9131 15.6484C14.7043 15.4327 14.7076 15.0893 14.9199 14.877L16.3447 13.4521H8.34766C8.0439 13.4521 7.79785 13.2061 7.79785 12.9023V11.0977C7.79785 10.7939 8.0439 10.5479 8.34766 10.5479H16.3604L14.916 9.07715C14.7045 8.86181 14.7065 8.51616 14.9199 8.30273L16.209 7.01367L16.293 6.94434C16.3828 6.88456 16.4891 6.85234 16.5986 6.85254Z" stroke="currentColor" stroke-width="1.1" stroke-linecap="round" stroke-linejoin="round"/> </svg>