<svg width="24" height="24" viewBox="0 0 24 24" fill="none" xmlns="http://www.w3.org/2000/svg"> <path d="M1.74805 18.4023V5.59766C1.74805 4.82207 2.03188 4.12895 2.55469 3.5625L2.58594 3.53125C3.14607 2.97111 3.8484 2.65039 4.65234 2.65039V3.75C4.16536 3.75 3.73568 3.9362 3.36328 4.30859C3.01953 4.68099 2.84766 5.11068 2.84766 5.59766V18.4023C2.84766 18.8893 3.01953 19.319 3.36328 19.6914C3.73568 20.0638 4.16536 20.25 4.65234 20.25H12V18.4023H4.65234V5.59766H12V3.75H4.65234V2.65039H12C12.6075 2.65039 13.0996 3.14249 13.0996 3.75V5.59766C13.0996 6.20517 12.6075 6.69727 12 6.69727H5.75195V17.3027H12C12.6075 17.3027 13.0996 17.7948 13.0996 18.4023V20.25C13.0996 20.8575 12.6075 21.3496 12 21.3496H4.65234C3.8484 21.3496 3.14607 21.0289 2.58594 20.4688C2.57557 20.4584 2.56463 20.4483 2.55469 20.4375C2.03188 19.8711 1.74805 19.1779 1.74805 18.4023ZM16.6006 6.30273C16.893 6.30351 17.1731 6.42027 17.3789 6.62793L21.9336 11.2256C22.3583 11.6543 22.3583 12.3457 21.9336 12.7744L17.3789 17.3721C17.1708 17.582 16.8865 17.699 16.5908 17.6973C16.2952 17.6954 16.0132 17.5747 15.8076 17.3623L14.5186 16.0303C14.101 15.5988 14.1066 14.9129 14.5312 14.4883L15.0176 14.002H8.34766C7.74014 14.002 7.24805 13.5099 7.24805 12.9023V11.0977C7.24805 10.4901 7.74014 9.99805 8.34766 9.99805H15.0498L14.5234 9.46191C14.1008 9.03122 14.1045 8.3408 14.5312 7.91406L15.8203 6.625L15.9004 6.55078C16.0968 6.38997 16.3445 6.30213 16.6006 6.30273ZM8.34766 12.9023H17.6719L15.3086 15.2656L16.5977 16.5977L21.1523 12L16.5977 7.40234L15.3086 8.69141L17.6719 11.0977H8.34766V12.9023Z" fill="currentColor"/> </svg>