<svg width="24" height="24" viewBox="0 0 24 24" fill="none" xmlns="http://www.w3.org/2000/svg"> <path d="M8.04492 6.04102C8.25843 5.89987 8.54831 5.92331 8.73633 6.11133L10.0254 7.40039C10.1288 7.50378 10.1868 7.64384 10.1865 7.79004C10.1862 7.93638 10.1274 8.07673 10.0234 8.17969L6.16406 12L10.0234 15.8203C10.1274 15.9233 10.1862 16.0636 10.1865 16.21C10.1868 16.3562 10.1288 16.4962 10.0254 16.5996L8.73633 17.8887C8.52154 18.1035 8.17377 18.1035 7.95898 17.8887L2.45898 12.3887C2.2442 12.1739 2.2442 11.8261 2.45898 11.6113L7.95898 6.11133L8.04492 6.04102ZM15.3496 6.04102C15.5631 5.89987 15.853 5.92331 16.041 6.11133L21.541 11.6113C21.7558 11.8261 21.7558 12.1739 21.541 12.3887L16.041 17.8887C15.8262 18.1035 15.4785 18.1035 15.2637 17.8887L13.9746 16.5996C13.8712 16.4962 13.8132 16.3562 13.8135 16.21C13.8138 16.0636 13.8726 15.9233 13.9766 15.8203L17.835 12L13.9766 8.17969C13.8726 8.07673 13.8138 7.93638 13.8135 7.79004C13.8132 7.64384 13.8712 7.50378 13.9746 7.40039L15.2637 6.11133L15.3496 6.04102Z" stroke="currentColor" stroke-width="1.1" stroke-linecap="round" stroke-linejoin="round"/> </svg>