<svg width="24" height="24" viewBox="0 0 24 24" fill="none" xmlns="http://www.w3.org/2000/svg"> <path d="M13.8477 4.65234L15.9531 6.75781L13.2891 9.42188L14.5781 10.7109L17.2422 8.04688L19.3477 10.1523V4.65234H13.8477ZM4.65234 10.1523L6.75781 8.04688L11.0977 12.3867V19.3477H12.9023V11.6133L8.04688 6.75781L10.1523 4.65234H4.65234V10.1523ZM20.4473 10.1523C20.4473 10.5973 20.1796 10.9987 19.7686 11.1689C19.3576 11.3391 18.8849 11.2442 18.5703 10.9297L17.2422 9.60156L15.3555 11.4883C14.9878 11.8559 14.426 11.9081 14.002 11.6465V19.3477C14.002 19.9552 13.5099 20.4473 12.9023 20.4473H11.0977C10.4901 20.4473 9.99805 19.9552 9.99805 19.3477V12.8418L6.75781 9.60156L5.42969 10.9297C5.11513 11.2442 4.64245 11.3391 4.23145 11.1689C3.8204 10.9987 3.55273 10.5973 3.55273 10.1523V4.65234C3.55273 4.04483 4.04483 3.55273 4.65234 3.55273H10.1523C10.5973 3.55273 10.9987 3.8204 11.1689 4.23145C11.3391 4.64245 11.2442 5.11513 10.9297 5.42969L9.60156 6.75781L12.1924 9.34863C12.2094 9.09203 12.3156 8.84067 12.5117 8.64453L14.3984 6.75781L13.0703 5.42969C12.7558 5.11513 12.6609 4.64245 12.8311 4.23145C13.0013 3.8204 13.4027 3.55273 13.8477 3.55273H19.3477C19.9552 3.55273 20.4473 4.04483 20.4473 4.65234V10.1523Z" fill="currentColor"/> </svg>