<svg width="24" height="24" viewBox="0 0 24 24" fill="none" xmlns="http://www.w3.org/2000/svg"> <path d="M19.3477 4.10254C19.6514 4.10254 19.8975 4.34859 19.8975 4.65234V10.1523C19.8975 10.3746 19.7638 10.5749 19.5586 10.6602C19.3531 10.7453 19.1163 10.6983 18.959 10.541L17.2422 8.82422L14.9668 11.0996C14.752 11.3144 14.4042 11.3144 14.1895 11.0996L12.9004 9.81055C12.6856 9.59576 12.6856 9.24799 12.9004 9.0332L15.1758 6.75781L13.459 5.04102C13.3017 4.88372 13.2547 4.64693 13.3398 4.44141C13.4251 4.23617 13.6254 4.10254 13.8477 4.10254H19.3477ZM13.4521 19.3477C13.4521 19.6514 13.2061 19.8975 12.9023 19.8975H11.0977C10.7939 19.8975 10.5479 19.6514 10.5479 19.3477V12.6143L6.75781 8.82422L5.04102 10.541C4.88372 10.6983 4.64693 10.7453 4.44141 10.6602C4.23617 10.5749 4.10254 10.3746 4.10254 10.1523V4.65234C4.10254 4.34859 4.34859 4.10254 4.65234 4.10254H10.1523C10.3746 4.10254 10.5749 4.23617 10.6602 4.44141C10.7453 4.64693 10.6983 4.88372 10.541 5.04102L8.82422 6.75781L13.291 11.2246C13.3942 11.3278 13.4521 11.4674 13.4521 11.6133V19.3477Z" stroke="currentColor" stroke-width="1.1" stroke-linecap="round" stroke-linejoin="round"/> </svg>