<svg width="24" height="24" viewBox="0 0 24 24" fill="none" xmlns="http://www.w3.org/2000/svg"> <path d="M13.2637 13.8047C13.2637 13.6609 13.2465 13.5792 13.2363 13.542C13.2334 13.5387 13.2304 13.5356 13.2275 13.5322C13.2337 13.5394 13.2011 13.5009 13.0859 13.4258C12.9938 13.3657 12.8681 13.297 12.7051 13.2168C12.6523 13.2025 12.6008 13.1882 12.5547 13.1729L12.4102 13.1123L12.4062 13.1104H12.4043L12.4023 13.1084L12.3965 13.1055H12.3945L12.3926 13.1045C12.3917 13.104 12.3934 13.1049 12.3926 13.1045L12.3906 13.1035L12.3887 13.1016L12.3848 13.0996H10.6953C10.7073 13.6117 10.8536 13.8302 10.9824 13.9424C11.146 14.0847 11.5054 14.252 12.2578 14.252V15.3516C10.4818 15.3516 9.59375 14.5781 9.59375 13.0312H6.88672C6.88672 14.4635 7.44531 15.5951 8.5625 16.4258C9.13542 16.8555 9.9375 17.1706 10.9688 17.3711C11.3984 17.457 11.8424 17.5 12.3008 17.5C13.0169 17.5 13.6758 17.4141 14.2773 17.2422C16.1966 16.6979 17.1562 15.5521 17.1562 13.8047C17.1562 13.2891 17.056 12.7878 16.8555 12.3008L16.7266 12.1719C16.6979 12.0859 16.6836 12.0286 16.6836 12H20.25V10.1523H3.75V12H12.5586C12.6159 12 12.6732 12.0143 12.7305 12.043C12.7878 12.0716 12.8451 12.1003 12.9023 12.1289C12.9883 12.1576 13.0456 12.1719 13.0742 12.1719C13.5612 12.401 13.8906 12.6159 14.0625 12.8164C14.263 13.0169 14.3633 13.3464 14.3633 13.8047C14.3633 14.8359 13.6615 15.3516 12.2578 15.3516V14.252C12.8573 14.252 13.1076 14.1354 13.1855 14.0781C13.2128 14.0581 13.2217 14.0443 13.2295 14.0273C13.2401 14.0039 13.2637 13.9386 13.2637 13.8047ZM10.0234 7.48828C10.0234 7.25911 10.0664 7.05859 10.1523 6.88672C10.4674 6.25651 11.1406 5.94141 12.1719 5.94141C13.6328 5.94141 14.3633 6.58594 14.3633 7.875H17.1133C17.1133 6.70052 16.6693 5.71224 15.7812 4.91016C14.9219 4.13672 13.7331 3.75 12.2148 3.75C10.7253 3.75 9.53646 4.09375 8.64844 4.78125C7.73177 5.52604 7.27344 6.42839 7.27344 7.48828C7.27344 8.14714 7.38802 8.66276 7.61719 9.03516C7.61719 9.0638 7.64583 9.10677 7.70312 9.16406C7.76042 9.19271 7.78906 9.22135 7.78906 9.25H12C11.599 9.10677 11.1693 8.89193 10.7109 8.60547C10.2526 8.29036 10.0234 7.91797 10.0234 7.48828ZM11.1318 7.51367C11.1467 7.53783 11.1945 7.59946 11.3174 7.68652C11.716 7.93391 12.0662 8.10533 12.3701 8.21387C12.7491 8.34925 13.0131 8.67526 13.082 9.05273H20.25C20.8575 9.05273 21.3496 9.54483 21.3496 10.1523V12C21.3496 12.6075 20.8575 13.0996 20.25 13.0996H18.2061C18.2392 13.332 18.2559 13.5671 18.2559 13.8047C18.2559 14.8906 17.953 15.8772 17.2803 16.6807C16.6185 17.4709 15.6793 17.9882 14.5771 18.3008L14.5762 18.2998C13.8642 18.5029 13.1035 18.5996 12.3008 18.5996C11.7733 18.5996 11.2568 18.551 10.7529 18.4502C9.63122 18.2315 8.65426 17.8696 7.90234 17.3057C6.51766 16.2742 5.80724 14.8355 5.78906 13.0996H3.75C3.14249 13.0996 2.65039 12.6075 2.65039 12V10.1523C2.65039 9.54483 3.14249 9.05273 3.75 9.05273H6.41602C6.24168 8.56872 6.17383 8.03452 6.17383 7.48828C6.17383 6.05647 6.81465 4.85433 7.95508 3.92773L7.97461 3.91113C9.10998 3.03213 10.5609 2.65039 12.2148 2.65039C13.8114 2.65039 15.2136 3.0332 16.3037 3.91016L16.5176 4.09277L16.5186 4.09375C17.6325 5.09991 18.2129 6.38274 18.2129 7.875C18.2129 8.48251 17.7208 8.97461 17.1133 8.97461H14.3633C13.7558 8.97461 13.2637 8.48251 13.2637 7.875C13.2637 7.43904 13.1462 7.3016 13.0879 7.25C13.0034 7.17544 12.7643 7.04102 12.1719 7.04102C11.3394 7.04102 11.1838 7.28281 11.1357 7.37891C11.133 7.38607 11.123 7.41781 11.123 7.48828C11.123 7.49581 11.122 7.49762 11.1318 7.51367Z" fill="currentColor"/> </svg>