<svg width="24" height="24" viewBox="0 0 24 24" fill="none" xmlns="http://www.w3.org/2000/svg"> <path d="M12.2148 3.2002C13.7248 3.2002 14.9928 3.5615 15.96 4.33984L16.1494 4.50098L16.1504 4.50195C17.1512 5.40604 17.6631 6.54174 17.6631 7.875C17.6631 8.17876 17.417 8.4248 17.1133 8.4248H14.3633C14.0595 8.4248 13.8135 8.17876 13.8135 7.875C13.8135 7.33435 13.6629 7.02374 13.4512 6.83691C13.2262 6.63866 12.833 6.49121 12.1719 6.49121C11.24 6.49121 10.8261 6.76966 10.6445 7.13281C10.6035 7.21496 10.5732 7.32819 10.5732 7.48828C10.5732 7.68261 10.6628 7.90141 11.0117 8.14453C11.4413 8.41232 11.8317 8.60638 12.1846 8.73242C12.4365 8.82239 12.5876 9.08018 12.542 9.34375C12.525 9.442 12.4823 9.53033 12.4219 9.60254H20.25C20.5538 9.60254 20.7998 9.84859 20.7998 10.1523V12C20.7998 12.3038 20.5538 12.5498 20.25 12.5498H17.5254C17.6455 12.9584 17.7061 13.3771 17.7061 13.8047C17.7061 14.7845 17.4348 15.6399 16.8584 16.3281C16.2877 17.0095 15.4583 17.4782 14.4277 17.7705C13.7707 17.9582 13.0606 18.0498 12.3008 18.0498C11.809 18.0498 11.33 18.0031 10.8643 17.9102V17.9111C9.78661 17.7016 8.89549 17.3635 8.23242 16.8662V16.8652C6.97242 15.9274 6.33691 14.6307 6.33691 13.0312C6.33691 12.8223 6.45443 12.6429 6.62598 12.5498H3.75C3.44624 12.5498 3.2002 12.3038 3.2002 12V10.1523C3.2002 9.84859 3.44624 9.60254 3.75 9.60254H7.37012C7.36801 9.60004 7.36632 9.59726 7.36426 9.59473C7.34717 9.58128 7.32987 9.56815 7.31445 9.55273C7.27289 9.51117 7.22305 9.45713 7.18066 9.39355C7.16308 9.36714 7.13275 9.31705 7.10742 9.24902C6.83594 8.76803 6.72363 8.16608 6.72363 7.48828C6.72363 6.24243 7.27321 5.19019 8.30176 4.35449L8.31152 4.34668C9.32322 3.56343 10.6431 3.2002 12.2148 3.2002ZM9.85449 12.5498C10.026 12.6429 10.1436 12.8223 10.1436 13.0312C10.1436 13.6985 10.3319 14.1046 10.6211 14.3564C10.9248 14.621 11.4374 14.8018 12.2578 14.8018C12.9085 14.8018 13.2973 14.679 13.5117 14.5215C13.6943 14.3872 13.8135 14.1816 13.8135 13.8047C13.8135 13.4061 13.7231 13.2544 13.6738 13.2051C13.6639 13.1951 13.6537 13.1855 13.6445 13.1748C13.5566 13.0722 13.3337 12.9084 12.8975 12.6982C12.8896 12.6964 12.8819 12.6958 12.876 12.6943C12.8287 12.6825 12.7784 12.667 12.7285 12.6504L12.6562 12.6211L12.6553 12.6201H12.6543L12.6533 12.6191H12.6523L12.6514 12.6182H12.6504L12.6494 12.6172H12.6484L12.6475 12.6162H12.6465L12.6455 12.6152H12.6445L12.6436 12.6143H12.6426L12.6416 12.6133H12.6406V12.6123H12.6387V12.6113H12.6367V12.6104H12.6348L12.6338 12.6094H12.6328L12.6318 12.6084H12.6309L12.6299 12.6074H12.6289L12.6279 12.6064H12.627L12.626 12.6055H12.625L12.624 12.6045H12.623L12.6221 12.6035H12.6211L12.6201 12.6025H12.6191V12.6016H12.6172V12.6006H12.6152V12.5996H12.6133L12.6123 12.5986H12.6113L12.6104 12.5977H12.6094L12.6084 12.5967H12.6074L12.6064 12.5957H12.6055C12.6042 12.5951 12.605 12.595 12.6045 12.5947H12.6035L12.6025 12.5938H12.6016L12.6006 12.5928H12.5996L12.5986 12.5918H12.5977V12.5908H12.5957V12.5898H12.5938V12.5889H12.5918L12.5908 12.5879H12.5898L12.5889 12.5869H12.5879L12.5869 12.5859H12.5859L12.585 12.585H12.584L12.583 12.584H12.582L12.5811 12.583H12.5801L12.5791 12.582H12.5781L12.5771 12.5811H12.5762V12.5801H12.5742V12.5791H12.5723V12.5781H12.5703L12.5693 12.5771H12.5684L12.5674 12.5762H12.5664L12.5654 12.5752H12.5645L12.5635 12.5742H12.5625L12.5615 12.5732H12.5605L12.5596 12.5723H12.5586L12.5576 12.5713H12.5566L12.5557 12.5703H12.5547V12.5693H12.5527V12.5684H12.5508V12.5674H12.5488L12.5479 12.5664H12.5469L12.5459 12.5654H12.5449L12.5439 12.5645H12.543L12.542 12.5635H12.541C12.5397 12.5628 12.5406 12.5628 12.54 12.5625H12.5391L12.5381 12.5615H12.5371L12.5361 12.5605H12.5352L12.5342 12.5596H12.5332V12.5586H12.5312V12.5576H12.5293V12.5566H12.5273L12.5264 12.5557H12.5254L12.5244 12.5547H12.5234L12.5225 12.5537H12.5215L12.5205 12.5527H12.5195C12.5182 12.5521 12.5191 12.552 12.5186 12.5518H12.5176L12.5166 12.5508H12.5156L12.5146 12.5498H9.85449ZM7.24023 9.2666C7.24103 9.29204 7.24306 9.31611 7.24707 9.33887C7.24317 9.3149 7.24093 9.29053 7.24023 9.26562V9.2666Z" stroke="currentColor" stroke-width="1.1" stroke-linecap="round" stroke-linejoin="round"/> </svg>