<svg width="24" height="24" viewBox="0 0 24 24" fill="none" xmlns="http://www.w3.org/2000/svg"> <path d="M8.34766 9.60254C8.65141 9.60254 8.89746 9.84859 8.89746 10.1523V20.25C8.89746 20.5538 8.65141 20.7998 8.34766 20.7998H5.59766C4.95219 20.7998 4.38619 20.5463 3.91992 20.0801C3.45366 19.6138 3.2002 19.0478 3.2002 18.4023V10.1523C3.2002 9.84859 3.44624 9.60254 3.75 9.60254H8.34766ZM14.75 9.64551C15.0538 9.64551 15.2998 9.89156 15.2998 10.1953V20.25C15.2998 20.5538 15.0538 20.7998 14.75 20.7998H10.1523C9.84859 20.7998 9.60254 20.5538 9.60254 20.25V10.1953C9.60254 9.89156 9.84859 9.64551 10.1523 9.64551H14.75ZM21.1523 9.60254C21.4561 9.60254 21.7021 9.84859 21.7021 10.1523V18.4023C21.7021 19.0406 21.4534 19.6002 20.9971 20.0635L20.998 20.0645C20.555 20.5445 19.9951 20.7998 19.3477 20.7998H16.5977C16.2939 20.7998 16.0479 20.5538 16.0479 20.25V10.1523C16.0479 9.84859 16.2939 9.60254 16.5977 9.60254H21.1523ZM19.3477 3.2002C19.9951 3.2002 20.555 3.45554 20.998 3.93555H20.9971C21.4537 4.3989 21.7021 4.95919 21.7021 5.59766V8.34766C21.7021 8.65141 21.4561 8.89746 21.1523 8.89746H3.75C3.44624 8.89746 3.2002 8.65141 3.2002 8.34766V5.59766C3.2002 4.95219 3.45366 4.38619 3.91992 3.91992C4.38619 3.45366 4.95219 3.2002 5.59766 3.2002H19.3477Z" stroke="currentColor" stroke-width="1.1" stroke-linecap="round" stroke-linejoin="round"/> </svg>