<svg width="24" height="24" viewBox="0 0 24 24" fill="none" xmlns="http://www.w3.org/2000/svg"> <path d="M16.5977 10.1523V20.25H19.3477C19.8346 20.25 20.25 20.0638 20.5938 19.6914C20.9661 19.319 21.1523 18.8893 21.1523 18.4023V10.1523H16.5977ZM10.1523 20.25H14.75V10.1953H10.1523V20.25ZM15.5537 9.44727C15.5921 9.48845 15.6284 9.53143 15.6602 9.57812C15.6883 9.53221 15.7195 9.4884 15.7539 9.44727H15.5537ZM9.19141 9.44727C9.21767 9.47867 9.24196 9.51167 9.26465 9.5459C9.29024 9.51097 9.31919 9.47889 9.34863 9.44727H9.19141ZM19.3477 2.65039V3.75H5.59766V2.65039H19.3477ZM3.75 18.4023C3.75 18.8893 3.9362 19.319 4.30859 19.6914C4.68099 20.0638 5.11068 20.25 5.59766 20.25H8.34766V10.1523H3.75V18.4023ZM22.252 8.34766C22.252 8.72155 22.0654 9.05124 21.7803 9.25C22.0654 9.44876 22.252 9.77845 22.252 10.1523V18.4023C22.252 19.1913 21.9413 19.8806 21.4004 20.4355L21.4023 20.4375C20.8599 21.0251 20.1555 21.3496 19.3477 21.3496H16.5977C16.2099 21.3496 15.8697 21.1489 15.6738 20.8457C15.4779 21.1489 15.1378 21.3496 14.75 21.3496H10.1523C9.77845 21.3496 9.44876 21.163 9.25 20.8779C9.05124 21.163 8.72155 21.3496 8.34766 21.3496H5.59766C4.79371 21.3496 4.09139 21.0289 3.53125 20.4688C2.97111 19.9086 2.65039 19.2063 2.65039 18.4023V10.1523C2.65039 9.77845 2.83698 9.44876 3.12207 9.25C2.83698 9.05124 2.65039 8.72155 2.65039 8.34766V5.59766C2.65039 4.79371 2.97111 4.09139 3.53125 3.53125C4.09139 2.97111 4.79371 2.65039 5.59766 2.65039V3.75C5.11068 3.75 4.68099 3.9362 4.30859 4.30859C3.9362 4.68099 3.75 5.11068 3.75 5.59766V8.34766H21.1523V5.59766C21.1523 5.11068 20.9661 4.68099 20.5938 4.30859C20.25 3.9362 19.8346 3.75 19.3477 3.75V2.65039C20.1555 2.65039 20.8599 2.97489 21.4023 3.5625L21.4004 3.56445C21.9413 4.11935 22.252 4.8087 22.252 5.59766V8.34766Z" fill="currentColor"/> </svg>