<svg width="24" height="24" viewBox="0 0 24 24" fill="none" xmlns="http://www.w3.org/2000/svg"> <path d="M13.8477 10.1523H2.84766V12H13.8477V10.1523ZM15.6953 16.5977L12.9023 13.8477L11.5273 15.2227L15.6953 19.3477L22.0977 12.9023L20.7227 11.5273L15.6953 16.5977ZM2.84766 15.6523H10.1523V13.8477H2.84766V15.6523ZM11.252 13.9434L12.0957 13.0996H10.9561C11.139 13.296 11.252 13.5581 11.252 13.8477V13.9434ZM2.84766 6.5V8.34766H13.8477V6.5H2.84766ZM14.9473 8.34766C14.9473 8.72155 14.7607 9.05124 14.4756 9.25C14.7607 9.44876 14.9473 9.77845 14.9473 10.1523V12C14.9473 12.6075 14.4552 13.0996 13.8477 13.0996H13.7109L15.6855 15.0439L19.9414 10.7529L20.0225 10.6797C20.2181 10.5181 20.4647 10.4283 20.7207 10.4277C21.0131 10.4272 21.2932 10.5432 21.5 10.75L22.875 12.125C23.3036 12.5536 23.3051 13.2477 22.8779 13.6777L16.4756 20.123C16.0481 20.5532 15.3531 20.5563 14.9219 20.1299L11.0449 16.293C10.8453 16.5707 10.5205 16.752 10.1523 16.752H2.84766C2.24014 16.752 1.74805 16.2599 1.74805 15.6523V13.8477C1.74805 13.4599 1.9488 13.1197 2.25195 12.9238C1.9488 12.7279 1.74805 12.3878 1.74805 12V10.1523C1.74805 9.77845 1.93464 9.44876 2.21973 9.25C1.93464 9.05124 1.74805 8.72155 1.74805 8.34766V6.5C1.74805 5.89249 2.24014 5.40039 2.84766 5.40039H13.8477C14.4552 5.40039 14.9473 5.89249 14.9473 6.5V8.34766Z" fill="currentColor"/> </svg>