<svg width="24" height="24" viewBox="0 0 24 24" fill="none" xmlns="http://www.w3.org/2000/svg"> <path d="M20.7217 10.9775C20.8679 10.9773 21.0079 11.0353 21.1113 11.1387L22.4863 12.5137C22.7006 12.7279 22.7017 13.075 22.4883 13.29L16.0859 19.7354C15.8721 19.9506 15.5242 19.9517 15.3086 19.7383L11.1406 15.6133C11.0366 15.5103 10.9779 15.37 10.9775 15.2236C10.9773 15.0774 11.0353 14.9374 11.1387 14.834L12.5137 13.459L12.5996 13.3887C12.8118 13.2484 13.0998 13.2707 13.2881 13.4561L15.6895 15.8203L20.332 11.1396C20.435 11.0359 20.5755 10.9779 20.7217 10.9775ZM10.1523 13.2979C10.4561 13.2979 10.7021 13.5439 10.7021 13.8477V15.6523C10.7021 15.9561 10.4561 16.2021 10.1523 16.2021H2.84766C2.5439 16.2021 2.29785 15.9561 2.29785 15.6523V13.8477C2.29785 13.5439 2.5439 13.2979 2.84766 13.2979H10.1523ZM13.8477 9.60254C14.1514 9.60254 14.3975 9.84859 14.3975 10.1523V12C14.3975 12.3038 14.1514 12.5498 13.8477 12.5498H2.84766C2.5439 12.5498 2.29785 12.3038 2.29785 12V10.1523C2.29785 9.84859 2.5439 9.60254 2.84766 9.60254H13.8477ZM13.8477 5.9502C14.1514 5.9502 14.3975 6.19624 14.3975 6.5V8.34766L14.3867 8.45898C14.3353 8.7094 14.1133 8.89746 13.8477 8.89746H2.84766C2.5439 8.89746 2.29785 8.65141 2.29785 8.34766V6.5C2.29785 6.19624 2.5439 5.9502 2.84766 5.9502H13.8477Z" stroke="currentColor" stroke-width="1.1" stroke-linecap="round" stroke-linejoin="round"/> </svg>