<svg width="25" height="25" viewBox="0 0 25 25" fill="none" xmlns="http://www.w3.org/2000/svg"> <path d="M23.0996 19.3477H1.09961V23H23.0996V19.3477ZM13.002 2.65039C13.4548 2.65039 13.8614 2.92793 14.0264 3.34961L19.0537 16.1973C19.186 16.5357 19.1424 16.9176 18.9375 17.2178C18.7325 17.5179 18.3928 17.6973 18.0293 17.6973H15.9668C15.5027 17.6973 15.0886 17.4064 14.9316 16.9697L14.2051 14.9473H9.9834L9.21973 16.9844C9.05864 17.4135 8.64787 17.6973 8.18945 17.6973H6.12695C5.76299 17.6973 5.42263 17.5176 5.21777 17.2168C5.01305 16.9159 4.97009 16.5329 5.10352 16.1943L10.1738 3.34668C10.3396 2.92656 10.7456 2.65039 11.1973 2.65039H13.002ZM11.1973 3.75L6.12695 16.5977H8.18945L9.2207 13.8477H14.9785L15.9668 16.5977H18.0293L13.002 3.75H11.1973ZM14.291 12H9.9082L12.0996 6.19922L14.291 12ZM11.5 10.9004H12.6992L12.0996 9.3125L11.5 10.9004ZM24.1992 23C24.1992 23.6075 23.7071 24.0996 23.0996 24.0996H1.09961C0.492096 24.0996 0 23.6075 0 23V19.3477C0 18.7401 0.492096 18.248 1.09961 18.248H23.0996C23.7071 18.248 24.1992 18.7401 24.1992 19.3477V23Z" fill="currentColor"/> </svg>