<svg width="25" height="25" viewBox="0 0 25 25" fill="none" xmlns="http://www.w3.org/2000/svg"> <path d="M23.0996 18.7979C23.4034 18.7979 23.6494 19.0439 23.6494 19.3477V23C23.6494 23.3038 23.4034 23.5498 23.0996 23.5498H1.09961C0.795853 23.5498 0.549805 23.3038 0.549805 23V19.3477C0.549805 19.0439 0.795853 18.7979 1.09961 18.7979H23.0996ZM13.002 3.2002C13.2284 3.2002 13.4312 3.33897 13.5137 3.5498L18.541 16.3975C18.6072 16.5666 18.5857 16.7571 18.4834 16.9072C18.3809 17.0574 18.2111 17.1475 18.0293 17.1475H15.9668C15.7348 17.1475 15.5277 17.0016 15.4492 16.7832L14.5918 14.3975H9.60156L8.7041 16.791C8.62352 17.0055 8.4186 17.1475 8.18945 17.1475H6.12695C5.9449 17.1475 5.77429 17.0577 5.67188 16.9072C5.56949 16.7567 5.54841 16.5648 5.61523 16.3955L10.6855 3.54785L10.7227 3.47266C10.8202 3.30571 10.9998 3.2002 11.1973 3.2002H13.002ZM10.7041 11.4502H13.4951L12.0996 7.75586L10.7041 11.4502Z" stroke="currentColor" stroke-width="1.1" stroke-linecap="round" stroke-linejoin="round"/> </svg>