<svg xmlns="http://www.w3.org/2000/svg" width="16" height="16" viewBox="0 0 24 24" fill="none" stroke="currentColor" stroke-width="2"><path stroke-linecap="round" stroke-linejoin="round" d="M12 3a9 9 0 019 9c0 3.1-1.57 5.55-3.46 7.2-.92.8-1.54 1.92-1.54 3.1V23H8v-.7c0-1.18-.62-2.3-1.54-3.1C4.57 17.55 3 15.1 3 12a9 9 0 019-9z"/><path stroke-linecap="round" stroke-linejoin="round" d="M9 10a3 3 0 116 0c0 1.39-.94 2.1-1.73 2.7-.7.53-1.27.97-1.27 1.8"/><path stroke-linecap="round" stroke-linejoin="round" d="M12 18h.01"/></svg>
