<svg width="24" height="24" viewBox="0 0 24 24" fill="none" xmlns="http://www.w3.org/2000/svg"> <path d="M18.4023 17.8525C18.7061 17.8525 18.9521 18.0986 18.9521 18.4023V20.25C18.9521 20.5538 18.7061 20.7998 18.4023 20.7998H5.59766C5.2939 20.7998 5.04785 20.5538 5.04785 20.25V18.4023C5.04785 18.0986 5.2939 17.8525 5.59766 17.8525H18.4023ZM8.77734 3.2002C9.0811 3.2002 9.32715 3.44624 9.32715 3.75V11.0977C9.32715 11.8365 9.58194 12.4543 10.1055 12.9805C10.6305 13.4802 11.2519 13.7275 12 13.7275C12.7478 13.7275 13.3686 13.4799 13.8936 12.9805C14.4174 12.4542 14.6729 11.8367 14.6729 11.0977V3.75C14.6729 3.44624 14.9189 3.2002 15.2227 3.2002H17.5C17.8038 3.2002 18.0498 3.44624 18.0498 3.75V11.0977C18.0498 12.764 17.4459 14.2064 16.2559 15.3965C15.0913 16.561 13.662 17.1475 12 17.1475C10.3384 17.1475 8.89717 16.562 7.70605 15.4023C7.70255 15.3989 7.69872 15.3951 7.69531 15.3916C6.53563 14.2005 5.9502 12.7592 5.9502 11.0977V3.75C5.9502 3.44624 6.19624 3.2002 6.5 3.2002H8.77734Z" stroke="currentColor" stroke-width="1.1" stroke-linecap="round" stroke-linejoin="round"/> </svg>