<svg width="24" height="24" viewBox="0 0 24 24" fill="none" xmlns="http://www.w3.org/2000/svg"> <path d="M18.4023 18.4023H5.59766V20.25H18.4023V18.4023ZM8.77734 11.0977V3.75H6.5V11.0977C6.5 12.6159 7.02995 13.9193 8.08984 15.0078C9.17839 16.0677 10.4818 16.5977 12 16.5977C13.5182 16.5977 14.8073 16.0677 15.8672 15.0078C16.9557 13.9193 17.5 12.6159 17.5 11.0977V3.75H15.2227V11.0977C15.2227 11.9857 14.9076 12.7448 14.2773 13.375C13.6471 13.9766 12.888 14.2773 12 14.2773V13.1777C12.6097 13.1777 13.0931 12.9812 13.5137 12.5811C13.928 12.1601 14.123 11.6857 14.123 11.0977V3.75C14.123 3.14249 14.6151 2.65039 15.2227 2.65039H17.5C18.1075 2.65039 18.5996 3.14249 18.5996 3.75V11.0977C18.5996 12.9122 17.9361 14.4936 16.6445 15.7852C15.9499 16.4798 15.1651 16.986 14.3008 17.3027H18.4023C19.0099 17.3027 19.502 17.7948 19.502 18.4023V20.25C19.502 20.8575 19.0099 21.3496 18.4023 21.3496H5.59766C4.99014 21.3496 4.49805 20.8575 4.49805 20.25V18.4023C4.49805 17.7948 4.99014 17.3027 5.59766 17.3027H9.69141C8.82314 16.9873 8.02971 16.4847 7.32227 15.7959C7.31534 15.7892 7.3085 15.7823 7.30176 15.7754C6.04204 14.4816 5.40039 12.9028 5.40039 11.0977V3.75C5.40039 3.14249 5.89249 2.65039 6.5 2.65039H8.77734C9.38486 2.65039 9.87695 3.14249 9.87695 3.75V11.0977C9.87695 11.6854 10.0713 12.1602 10.4854 12.5811C10.906 12.9815 11.39 13.1777 12 13.1777V14.2773C11.112 14.2773 10.3529 13.9766 9.72266 13.375C9.09245 12.7448 8.77734 11.9857 8.77734 11.0977Z" fill="currentColor"/> </svg>