<svg width="24" height="24" viewBox="0 0 24 24" fill="none" xmlns="http://www.w3.org/2000/svg"> <path d="M2.42969 6.38484C2.84249 6.21543 3.3174 6.31238 3.63086 6.62995L6.20215 9.23542C8.03009 7.91222 10.1314 7.24812 12.4727 7.24812C14.7969 7.24812 16.9036 7.93765 18.7568 9.31159C20.5972 10.676 21.8929 12.4508 22.624 14.6124C22.7185 14.8917 22.6973 15.1978 22.5645 15.461C22.4316 15.7242 22.1978 15.9229 21.917 16.0128L19.7686 16.7003C19.1926 16.8844 18.5756 16.569 18.3877 15.9942C18.0004 14.8097 17.3228 13.8485 16.334 13.0889L16.1094 12.9229C15.0431 12.1233 13.8434 11.7247 12.4727 11.7247C11.3743 11.7247 10.3762 11.9788 9.46094 12.4913L11.8701 14.8692C12.1877 15.1827 12.2847 15.6576 12.1152 16.0704C11.9457 16.483 11.5438 16.752 11.0977 16.752H2.84766C2.24014 16.752 1.74805 16.2599 1.74805 15.6524V7.40242C1.74805 6.95631 2.01706 6.55432 2.42969 6.38484ZM11.0977 15.6523L7.74609 12.3438C9.12109 11.1979 10.6966 10.625 12.4727 10.625C14.0768 10.625 15.5091 11.0977 16.7695 12.043C18.0586 12.9596 18.9466 14.1628 19.4336 15.6523L21.582 14.9648C20.9232 13.0169 19.763 11.4271 18.1016 10.1953C16.4401 8.96354 14.5638 8.34766 12.4727 8.34766C10.0378 8.34766 7.91797 9.13542 6.11328 10.7109L2.84766 7.40234V15.6523H11.0977Z" fill="currentColor"/> </svg>