<svg width="24" height="24" viewBox="0 0 24 24" fill="none" xmlns="http://www.w3.org/2000/svg"> <path d="M2.63867 6.89355C2.84503 6.80887 3.08253 6.85692 3.23926 7.01562L6.15039 9.96484C7.96957 8.52133 10.0838 7.79785 12.4727 7.79785C14.6803 7.79785 16.6714 8.45108 18.4287 9.75391C20.1796 11.052 21.4085 12.7343 22.1035 14.7891C22.1505 14.9286 22.1396 15.0814 22.0732 15.2129C22.0069 15.3443 21.8902 15.4433 21.75 15.4883L19.6016 16.1758C19.3136 16.2679 19.0051 16.1106 18.9111 15.8232C18.4611 14.4468 17.6451 13.3403 16.4512 12.4912L16.4395 12.4834C15.2761 11.6109 13.9602 11.1748 12.4727 11.1748C11.0306 11.1748 9.7378 11.5789 8.58105 12.3945L11.4844 15.2607C11.6431 15.4175 11.6911 15.655 11.6064 15.8613C11.5217 16.0676 11.3207 16.2021 11.0977 16.2021H2.84766C2.5439 16.2021 2.29785 15.9561 2.29785 15.6523V7.40234C2.29785 7.17929 2.43236 6.9783 2.63867 6.89355Z" stroke="currentColor" stroke-width="1.1" stroke-linecap="round" stroke-linejoin="round"/> </svg>