<svg width="24" height="24" viewBox="0 0 24 24" fill="none" xmlns="http://www.w3.org/2000/svg"> <path d="M19.332 13C19.332 12.6464 19.1915 12.3077 18.9414 12.0576C18.6914 11.8076 18.3526 11.667 17.999 11.667H5.99902C5.6454 11.667 5.30669 11.8076 5.05664 12.0576C4.80659 12.3077 4.66602 12.6464 4.66602 13V19C4.66602 19.3536 4.80659 19.6923 5.05664 19.9424C5.30669 20.1924 5.6454 20.333 5.99902 20.333H17.999C18.3526 20.333 18.6914 20.1924 18.9414 19.9424C19.1915 19.6923 19.332 19.3536 19.332 19V13ZM11.332 17V15C11.332 14.6318 11.6308 14.333 11.999 14.333C12.3672 14.333 12.666 14.6318 12.666 15V17C12.666 17.3682 12.3672 17.667 11.999 17.667C11.6308 17.667 11.332 17.3682 11.332 17ZM15.332 7C15.332 6.11594 14.9816 5.2677 14.3564 4.64258C13.7313 4.01746 12.8831 3.66699 11.999 3.66699C11.115 3.66699 10.2667 4.01746 9.6416 4.64258C9.01648 5.2677 8.66602 6.11594 8.66602 7V10.333H17.999C18.7063 10.333 19.3847 10.6142 19.8848 11.1143C20.3849 11.6144 20.666 12.2928 20.666 13V19C20.666 19.7072 20.3849 20.3856 19.8848 20.8857C19.3847 21.3858 18.7063 21.667 17.999 21.667H5.99902C5.29178 21.667 4.61338 21.3858 4.11328 20.8857C3.61318 20.3856 3.33203 19.7072 3.33203 19V13C3.33203 12.2928 3.61318 11.6144 4.11328 11.1143C4.61338 10.6142 5.29178 10.333 5.99902 10.333H7.33203V7C7.33203 5.76232 7.82405 4.57537 8.69922 3.7002C9.57439 2.82503 10.7613 2.33301 11.999 2.33301C13.2367 2.33301 14.4237 2.82503 15.2988 3.7002C16.174 4.57537 16.666 5.76232 16.666 7C16.666 7.36819 16.3672 7.66699 15.999 7.66699C15.6308 7.66699 15.332 7.36819 15.332 7Z" fill="currentColor"/> </svg>