<svg width="24" height="24" viewBox="0 0 24 24" fill="none" xmlns="http://www.w3.org/2000/svg"> <path d="M3.55273 19.3477V19.3447L3.5957 4.64941C3.59642 3.87245 3.88384 3.17866 4.43359 2.62891C4.99373 2.06877 5.69606 1.74805 6.5 1.74805V2.84766C6.01302 2.84766 5.58333 3.03385 5.21094 3.40625C4.86719 3.75 4.69531 4.16536 4.69531 4.65234L4.65234 19.3477C4.65234 19.8346 4.83854 20.2643 5.21094 20.6367C5.58333 20.9805 6.01302 21.1523 6.5 21.1523H17.5C17.987 21.1523 18.4167 20.9805 18.7891 20.6367C19.1615 20.2643 19.3477 19.8346 19.3477 19.3477V8.34766L13.8477 2.84766H6.5V1.74805H13.8477C14.1394 1.74805 14.4187 1.86402 14.625 2.07031L20.125 7.57031C20.3313 7.7766 20.4473 8.05592 20.4473 8.34766V19.3477C20.4473 20.1516 20.1265 20.8539 19.5664 21.4141C19.556 21.4244 19.5459 21.4354 19.5352 21.4453C18.9687 21.9681 18.2756 22.252 17.5 22.252H6.5C5.72441 22.252 5.03129 21.9681 4.46484 21.4453C4.45407 21.4354 4.44396 21.4244 4.43359 21.4141C3.87346 20.8539 3.55273 20.1516 3.55273 19.3477ZM11.8027 5.75195H7.59961V13.9434L11.2227 10.3203L11.3057 10.2441C11.5353 10.0569 11.823 9.97595 12.1025 10.002C11.9174 9.8051 11.8027 9.54156 11.8027 9.25V5.75195ZM8.34766 14.75L9.63672 16.0391L11.0977 14.6211V18.4023H12.9023V14.6211L14.3633 16.082L15.6523 14.75L12 11.0977L8.34766 14.75ZM15.1533 16.8467C14.9483 17.0585 14.6669 17.1792 14.3721 17.1816C14.2447 17.1827 14.12 17.1603 14.002 17.1191V18.248H16.4004V15.5576L15.1533 16.8467ZM7.59961 18.248H9.99805V17.0771C9.61189 17.2113 9.16721 17.1242 8.85938 16.8164L7.59961 15.5566V18.248ZM16.4004 13.9434V10.3496H12.9023C12.8684 10.3496 12.8349 10.3477 12.8018 10.3447L16.4004 13.9434ZM17.5 9.25V19.3477H6.5V4.65234H12.9023V9.25H17.5Z" fill="currentColor"/> </svg>