<svg width="24" height="24" viewBox="0 0 24 24" fill="none" xmlns="http://www.w3.org/2000/svg"> <path d="M13.4521 18.4023C13.4521 18.558 13.3871 18.6978 13.2832 18.7979H16.9502V9.7998H12.9023C12.5986 9.7998 12.3525 9.55376 12.3525 9.25V5.20215H7.0498V18.7979H10.7168C10.6129 18.6978 10.5479 18.558 10.5479 18.4023V15.9199L10.0195 16.4336C9.80385 16.6429 9.46055 16.6402 9.24805 16.4277L7.95898 15.1387C7.7442 14.9239 7.7442 14.5761 7.95898 14.3613L11.6113 10.709L11.6973 10.6387C11.9108 10.4975 12.2007 10.521 12.3887 10.709L16.041 14.3613C16.2533 14.5736 16.2566 14.9171 16.0479 15.1328L14.7588 16.4648C14.6564 16.5707 14.5154 16.6305 14.3682 16.6318C14.2207 16.633 14.0789 16.575 13.9746 16.4707L13.4521 15.9482V18.4023ZM19.8975 19.3477C19.8975 19.9931 19.644 20.5591 19.1777 21.0254C19.1726 21.0306 19.1675 21.036 19.1621 21.041C18.6927 21.4743 18.1313 21.7021 17.5 21.7021H6.5C5.86871 21.7021 5.30731 21.4743 4.83789 21.041C4.8325 21.036 4.82745 21.0306 4.82227 21.0254C4.356 20.5591 4.10254 19.9931 4.10254 19.3477V19.3457L4.14551 4.65039C4.14598 4.01864 4.37563 3.46421 4.82227 3.01758C5.28853 2.55131 5.85454 2.29785 6.5 2.29785H13.8477C13.9935 2.29785 14.1332 2.35584 14.2363 2.45898L19.7363 7.95898C19.8395 8.06213 19.8975 8.20179 19.8975 8.34766V19.3477Z" stroke="currentColor" stroke-width="1.1" stroke-linecap="round" stroke-linejoin="round"/> </svg>