<svg width="24" height="24" viewBox="0 0 24 24" fill="none" xmlns="http://www.w3.org/2000/svg"> <path d="M3.75 16.5977C3.75 16.8555 3.83594 17.0703 4.00781 17.2422C4.17969 17.4141 4.39453 17.5 4.65234 17.5H15.6523C15.9102 17.5 16.125 17.4141 16.2969 17.2422C16.4974 17.0703 16.5977 16.8555 16.5977 16.5977V13.375L20.25 17.0273V6.97266L16.5977 10.625V7.40234C16.5977 7.14453 16.4974 6.92969 16.2969 6.75781C16.125 6.58594 15.9102 6.5 15.6523 6.5V5.40039C16.1552 5.40039 16.6297 5.57187 17.0117 5.92383L17.0127 5.92285C17.4501 6.29784 17.6973 6.81456 17.6973 7.40234V7.9707L19.4727 6.19531C19.7872 5.88076 20.2599 5.78589 20.6709 5.95605C21.0819 6.12631 21.3496 6.52775 21.3496 6.97266V17.0273C21.3496 17.4723 21.0819 17.8737 20.6709 18.0439C20.2599 18.2141 19.7872 18.1192 19.4727 17.8047L17.6973 16.0293V16.5977C17.6973 17.1854 17.4501 17.7022 17.0127 18.0771L17.0117 18.0762C16.6297 18.4281 16.1552 18.5996 15.6523 18.5996H4.65234C4.12243 18.5996 3.62212 18.4112 3.23047 18.0195C2.83882 17.6279 2.65039 17.1276 2.65039 16.5977V7.40234C2.65039 6.87243 2.83882 6.37212 3.23047 5.98047C3.62212 5.58882 4.12243 5.40039 4.65234 5.40039V6.5C4.39453 6.5 4.17969 6.58594 4.00781 6.75781C3.83594 6.92969 3.75 7.14453 3.75 7.40234V16.5977ZM15.6523 5.40039V6.5H4.65234V5.40039H15.6523Z" fill="currentColor"/> </svg>