<svg width="24" height="24" viewBox="0 0 24 24" fill="none" xmlns="http://www.w3.org/2000/svg"> <path d="M15.6523 5.9502C16.0322 5.9502 16.3774 6.07892 16.6543 6.34082C16.9733 6.61426 17.1475 6.97953 17.1475 7.40234V9.29785L19.8613 6.58398C20.0186 6.42669 20.2554 6.37971 20.4609 6.46484C20.6662 6.55009 20.7998 6.75039 20.7998 6.97266V17.0273C20.7998 17.2496 20.6662 17.4499 20.4609 17.5352C20.2554 17.6203 20.0186 17.5733 19.8613 17.416L17.1475 14.7021V16.5977C17.1475 17.0204 16.9742 17.3867 16.6553 17.6602L16.6543 17.6592C16.3774 17.9211 16.0322 18.0498 15.6523 18.0498H4.65234C4.25848 18.0498 3.9009 17.9126 3.61914 17.6309C3.33738 17.3491 3.2002 16.9915 3.2002 16.5977V7.40234C3.2002 7.00848 3.33738 6.6509 3.61914 6.36914C3.9009 6.08738 4.25848 5.9502 4.65234 5.9502H15.6523Z" stroke="currentColor" stroke-width="1.1" stroke-linecap="round" stroke-linejoin="round"/> </svg>